<svg width="512" height="512" viewBox="0 0 512 512" fill="none" xmlns="http://www.w3.org/2000/svg">
<g clip-path="url(#clip0_41_2)">
<path d="M75.0469 95.749H107.386V135.722H75.0469V95.749Z" fill="#E7E3DB"/>
<path d="M105.523 140.455H77.184L0 302.448L32.497 303.941L91.052 181.05L146.989 303.941L179.311 302.448L105.523 140.455Z" fill="#7D89E5"/>
<path d="M89.656 395.491C40.14 395.491 0 355.351 0 305.836V302.448H179.311V305.836C179.311 355.351 139.171 395.491 89.656 395.491Z" fill="#5CD4AB"/>
<path d="M179.312 302.448L105.524 140.455H91.0527V181.05L146.99 303.941L179.312 302.448Z" fill="#6260D0"/>
<path d="M91.0527 95.749H107.387V135.722H91.0527V95.749Z" fill="#D9D1C2"/>
<path d="M91.0527 302.448V395.474C139.924 394.727 179.313 354.885 179.313 305.836V302.448H91.0527Z" fill="#32BEA6"/>
<path d="M407.734 95.749H440.073V135.722H407.734V95.749Z" fill="#E7E3DB"/>
<path d="M438.212 140.455H409.873L332.689 302.448L365.186 303.941L423.74 181.05L479.678 303.941L512 302.448L438.212 140.455Z" fill="#7D89E5"/>
<path d="M422.345 395.491C372.829 395.491 332.689 355.351 332.689 305.836V302.448H512V305.836C512 355.351 471.86 395.491 422.345 395.491Z" fill="#5CD4AB"/>
<path d="M512 302.448L438.212 140.455H423.74V181.05L479.678 303.941L512 302.448Z" fill="#6260D0"/>
<path d="M423.74 95.749H440.074V135.722H423.74V95.749Z" fill="#D9D1C2"/>
<path d="M423.74 302.448V395.474C472.611 394.727 512 354.885 512 305.836V302.448H423.74Z" fill="#32BEA6"/>
<path d="M241.01 198.674H270.99V436.507H241.01V198.674Z" fill="#E7E3DB"/>
<path d="M256 198.674H270.99V436.507H256V198.674Z" fill="#D9D1C2"/>
<path d="M49.9922 130.559H173.574V160.539H49.9922V130.559Z" fill="#F2EDE5"/>
<path d="M91.0527 130.559H173.575V160.539H91.0527V130.559Z" fill="#E7E3DB"/>
<path d="M340.135 130.559H461.718V160.539H340.135V130.559Z" fill="#F2EDE5"/>
<path d="M423.74 130.559H461.716V160.539H423.74V130.559Z" fill="#E7E3DB"/>
<path d="M256 218.742C195.693 218.742 146.629 169.678 146.629 109.371C146.629 49.064 195.693 0 256 0C316.307 0 316.307 218.742 256 218.742Z" fill="#FDE01D"/>
<path d="M256 0V218.742C316.307 218.742 365.371 169.678 365.371 109.371C365.371 49.064 316.307 0 256 0Z" fill="#FED330"/>
<path d="M244.283 89.6631C244.283 86.3401 247.329 83.5701 256.884 83.5701C265.331 83.5701 274.331 85.9241 283.886 90.7711L293.718 67.0921C285.825 62.6611 275.855 60.0301 265.608 59.0611V44.2441H246.083V59.3381C223.374 62.5231 212.019 75.6781 212.019 91.3251C212.019 127.467 265.608 117.635 265.608 129.821C265.608 133.144 262.285 135.083 253.007 135.083C242.344 135.083 230.159 131.621 221.02 126.221L210.496 150.038C218.804 155.162 232.236 158.9 246.083 159.731V174.409H265.608V159.038C287.071 155.299 297.872 142.283 297.872 127.328C297.872 91.6021 244.283 101.295 244.283 89.6631Z" fill="#FD8D34"/>
<path d="M265.608 159.038C287.071 155.299 297.872 142.283 297.872 127.328C297.872 102.393 271.77 99.5831 256 96.2061V123.429C261.7 124.847 265.608 126.532 265.608 129.82C265.608 132.757 263.005 134.61 256 135.002V174.409H265.608V159.038ZM283.886 90.7711L293.718 67.0921C285.825 62.6611 275.855 60.0301 265.608 59.0611V44.2441H256V83.5871C256.294 83.5811 256.576 83.5711 256.884 83.5711C265.331 83.5701 274.331 85.9241 283.886 90.7711Z" fill="#FD6E2E"/>
<path d="M351.313 421.517H160.96C136.163 421.517 115.99 441.69 115.99 466.487V497.01H396.282V466.487C396.283 441.691 376.11 421.517 351.313 421.517Z" fill="#D9D1C2"/>
<path d="M396.284 466.487C396.284 441.69 376.111 421.517 351.314 421.517H256V497.01H396.284V466.487Z" fill="#CCC2B4"/>
<path d="M84.1152 482.02H427.886V512H84.1152V482.02Z" fill="#F2EDE5"/>
<path d="M256 482.02H427.885V512H256V482.02Z" fill="#E7E3DB"/>
</g>
<defs>
<clipPath id="clip0_41_2">
<rect width="512" height="512" fill="white"/>
</clipPath>
</defs>
</svg>
