<svg width="512" height="512" viewBox="0 0 512 512" fill="none" xmlns="http://www.w3.org/2000/svg">
<path d="M387.545 115.239V485.7C387.545 500.225 375.771 511.998 361.247 511.998H56.111C41.586 511.998 29.813 500.224 29.813 485.7V115.239C29.813 100.714 41.587 88.9414 56.111 88.9414H361.247C375.772 88.9414 387.545 100.715 387.545 115.239Z" fill="#3D9AE2"/>
<path d="M387.545 115.239V477.737H85.1818C70.6568 477.737 58.8838 465.964 58.8838 451.439V88.9414H361.248C375.772 88.9414 387.545 100.715 387.545 115.239Z" fill="#5AAAE7"/>
<path d="M463.513 405.997L171.521 494.558C157.619 498.773 142.939 490.924 138.723 477.033L31.1941 122.508C26.9681 108.616 34.8171 93.9258 48.7191 89.7098L54.3981 87.9868L340.711 1.13884C354.613 -3.07616 369.293 4.77284 373.509 18.6748L478.609 365.153L481.049 373.199C485.263 387.091 477.414 401.782 463.513 405.997Z" fill="#96C8EF"/>
<path d="M478.608 365.153L192.285 451.99C178.383 456.205 163.703 448.356 159.487 434.465L54.3979 87.9868L340.711 1.13884C354.613 -3.07616 369.293 4.77284 373.509 18.6748L478.608 365.153Z" fill="#C2DFF6"/>
<path d="M219.765 177.405C231.563 178.171 237.354 178.934 240.053 187.834C242.375 195.488 239.475 200.261 230.928 202.853C222.98 205.264 219.113 203.007 215.699 201.013C213.412 199.678 210.82 198.164 207.579 199.147C202.635 200.646 200.367 206.975 201.715 211.42C203.926 218.711 215.193 223.321 227.534 222.298L228.476 225.401C230.039 230.552 235.5 233.471 240.651 231.909C245.802 230.346 248.721 224.885 247.159 219.734L246.155 216.424C258.299 209.134 262.654 196.578 258.104 181.579C251.521 159.877 234.112 158.841 223.711 158.223L222.495 158.152C212.157 157.556 207.509 157.036 205.664 150.956C204.638 147.573 205.098 145.122 207.155 143.005C209.308 140.787 212.668 139.44 215.107 138.699C221.002 136.911 224.71 137.589 227.416 138.083C229.341 138.435 231.16 138.768 233.142 138.167C238.716 136.476 240.076 129.859 238.884 125.931C236.348 117.57 223.598 118.432 216.769 119.544L215.82 116.414C214.257 111.263 208.796 108.344 203.646 109.905C198.495 111.468 195.576 116.929 197.138 122.08L198.442 126.379C187.571 133.529 183.726 144.388 187.614 157.209C193.215 175.679 207.937 176.635 219.765 177.405ZM377.748 222.445C377.148 220.469 375.787 218.813 373.966 217.839C372.145 216.866 370.012 216.655 368.036 217.254L146.061 284.585C144.112 285.207 142.486 286.572 141.535 288.383C140.584 290.194 140.384 292.306 140.977 294.264C141.571 296.222 142.911 297.867 144.708 298.845C146.505 299.823 148.615 300.054 150.581 299.489L372.556 232.158C374.532 231.558 376.189 230.198 377.163 228.376C378.136 226.555 378.347 224.422 377.748 222.445ZM390.708 265.173C390.108 263.197 388.747 261.541 386.926 260.567C385.105 259.594 382.972 259.383 380.996 259.982L159.021 327.312C157.072 327.934 155.446 329.299 154.495 331.11C153.544 332.921 153.344 335.033 153.937 336.991C154.531 338.949 155.871 340.594 157.668 341.572C159.465 342.55 161.575 342.781 163.541 342.216L385.516 274.885C387.492 274.285 389.149 272.925 390.123 271.104C391.097 269.283 391.307 267.149 390.708 265.173ZM403.668 307.9C403.068 305.924 401.707 304.268 399.886 303.294C398.065 302.321 395.932 302.11 393.956 302.709L171.982 370.04C170.033 370.662 168.407 372.027 167.456 373.838C166.505 375.649 166.305 377.761 166.898 379.719C167.492 381.677 168.832 383.322 170.629 384.3C172.426 385.278 174.536 385.509 176.502 384.944L398.477 317.613C400.453 317.013 402.11 315.653 403.083 313.831C404.057 312.01 404.267 309.876 403.668 307.9ZM416.629 350.628C416.029 348.652 414.668 346.996 412.847 346.022C411.026 345.049 408.893 344.838 406.917 345.437L184.942 412.768C182.993 413.39 181.367 414.755 180.416 416.566C179.465 418.377 179.265 420.489 179.858 422.447C180.452 424.405 181.792 426.05 183.589 427.028C185.386 428.006 187.496 428.237 189.462 427.672L411.437 360.341C413.413 359.741 415.07 358.381 416.044 356.559C417.017 354.738 417.228 352.605 416.629 350.628Z" fill="#3D9AE2"/>
<path d="M151.483 58.543L136.574 63.059C131.954 49.323 118.955 39.408 103.683 39.408C84.5481 39.408 68.9851 54.971 68.9851 74.106V164.121C68.9851 175.303 78.0901 184.408 89.2721 184.408C100.454 184.408 109.559 175.303 109.559 164.121V74.303C109.564 73.3167 109.329 72.3441 108.874 71.469C108.352 70.4412 107.556 69.5779 106.574 68.9749C105.592 68.372 104.462 68.0529 103.309 68.053C101.652 68.0546 100.063 68.7135 98.8914 69.8853C97.7197 71.0571 97.0607 72.6458 97.0591 74.303V151.558C97.0591 155.856 93.5711 159.345 89.2721 159.345C84.9731 159.345 81.4851 155.857 81.4851 151.558V74.303C81.4851 62.27 91.2761 52.479 103.309 52.479C112.757 52.479 120.814 58.511 123.845 66.921C124.698 69.2887 125.133 71.7864 125.132 74.303V164.12C125.132 183.888 109.039 199.98 89.2721 199.98C69.4941 199.98 53.4121 183.887 53.4121 164.12V74.106C53.4121 46.385 75.9621 23.835 103.683 23.835C125.974 23.835 144.921 38.422 151.483 58.543Z" fill="#1E81CE"/>
</svg>
