<svg width="512" height="512" viewBox="0 0 512 512" fill="none" xmlns="http://www.w3.org/2000/svg">
<path d="M40 192H424V384H40V192Z" fill="#559B2D"/>
<path d="M96 352H368C368 345.635 370.529 339.53 375.029 335.029C379.53 330.529 385.635 328 392 328V248C385.635 248 379.53 245.471 375.029 240.971C370.529 236.47 368 230.365 368 224H96C96 230.365 93.4714 236.47 88.9706 240.971C84.4697 245.471 78.3652 248 72 248V328C78.3652 328 84.4697 330.529 88.9706 335.029C93.4714 339.53 96 345.635 96 352Z" fill="#477C24"/>
<path d="M344 256H72V328C78.3652 328 84.4697 330.529 88.9706 335.029C93.4714 339.53 96 345.635 96 352H368V280C361.635 280 355.53 277.471 351.029 272.971C346.529 268.47 344 262.365 344 256Z" fill="#51892C"/>
<path d="M232 360C271.765 360 304 327.765 304 288C304 248.235 271.765 216 232 216C192.235 216 160 248.235 160 288C160 327.765 192.235 360 232 360Z" fill="#6BC13B"/>
<path d="M264 272V264C264 257.635 261.471 251.53 256.971 247.029C252.47 242.529 246.365 240 240 240V232H224V240C217.635 240 211.53 242.529 207.029 247.029C202.529 251.53 200 257.635 200 264V272C200 278.365 202.529 284.47 207.029 288.971C211.53 293.471 217.635 296 224 296V320C221.878 320 219.843 319.157 218.343 317.657C216.843 316.157 216 314.122 216 312V304H200V312C200 318.365 202.529 324.47 207.029 328.971C211.53 333.471 217.635 336 224 336V344H240V336C246.365 336 252.47 333.471 256.971 328.971C261.471 324.47 264 318.365 264 312V304C264 297.635 261.471 291.53 256.971 287.029C252.47 282.529 246.365 280 240 280V256C242.122 256 244.157 256.843 245.657 258.343C247.157 259.843 248 261.878 248 264V272H264ZM248 304V312C248 314.122 247.157 316.157 245.657 317.657C244.157 319.157 242.122 320 240 320V296C242.122 296 244.157 296.843 245.657 298.343C247.157 299.843 248 301.878 248 304ZM224 280C221.878 280 219.843 279.157 218.343 277.657C216.843 276.157 216 274.122 216 272V264C216 261.878 216.843 259.843 218.343 258.343C219.843 256.843 221.878 256 224 256V280Z" fill="#477C24"/>
<path d="M448 464H384L336 496L112 440C112 433.635 114.529 427.53 119.029 423.029C123.53 418.529 129.635 416 136 416H304V413.952C304 410.099 305.312 406.36 307.72 403.352L326.4 380C329.398 376.256 333.199 373.234 337.522 371.156C341.845 369.079 346.58 368.001 351.376 368H448V464Z" fill="#FBE1CA"/>
<path d="M496 480H448V352H496V480Z" fill="#3B5892"/>
<path d="M328.968 440C322.594 439.996 316.462 437.556 311.828 433.179C307.193 428.802 304.407 422.819 304.04 416.456L320.04 415.544C320.14 417.271 320.737 418.933 321.76 420.329C322.783 421.725 324.188 422.796 325.805 423.412C327.422 424.029 329.183 424.164 330.875 423.803C332.568 423.441 334.12 422.599 335.344 421.376L362.376 394.344L373.688 405.656L346.656 432.688C341.955 437.362 335.598 439.99 328.968 440ZM160 192V153.144L176 160L192 176V192H160Z" fill="#F2B9A1"/>
<path d="M223.088 110.856L256 152V192H288V136L240 40L168 16H16V96L104 112L120 136L176 160L235.032 219.032C236.608 220.608 238.479 221.858 240.538 222.71C242.597 223.563 244.803 224.001 247.032 224C251.532 223.998 255.846 222.21 259.028 219.028C262.209 215.846 263.998 211.532 264 207.032V206.4C264.004 202.281 262.511 198.301 259.8 195.2L208 136L223.088 110.856Z" fill="#FBE1CA"/>
</svg>
