<svg width="512" height="512" viewBox="0 0 512 512" fill="none" xmlns="http://www.w3.org/2000/svg">
<g clip-path="url(#clip0_19_2)">
<path d="M320.816 407.864L420.109 336.939C431.416 328.851 447.132 331.463 455.22 342.771C455.618 343.324 455.991 343.895 456.339 344.481C463.116 355.762 460.053 370.359 449.319 377.969L343.942 465.313C334.603 473.054 322.854 477.29 310.723 477.289H95.1895V373.153L137.598 337.808C143.838 332.61 151.702 329.763 159.822 329.764H273.087C285.071 329.764 294.782 339.475 294.782 351.459C294.782 363.443 285.071 373.154 273.087 373.154H216.68C207.091 373.154 199.324 380.921 199.324 390.51C199.324 400.099 207.091 407.866 216.68 407.866H320.816V407.864Z" fill="#FEC9A3"/>
<path d="M0 364.475H95.189V512H0V364.475Z" fill="#4398D1"/>
<path d="M43.3902 477.288C52.9756 477.288 60.7462 469.518 60.7462 459.932C60.7462 450.347 52.9756 442.576 43.3902 442.576C33.8047 442.576 26.0342 450.347 26.0342 459.932C26.0342 469.518 33.8047 477.288 43.3902 477.288Z" fill="#E5E5E5"/>
<path d="M8.67773 277.695H512C512 306.454 488.691 329.763 459.932 329.763H60.7457C31.9867 329.763 8.67773 306.454 8.67773 277.695Z" fill="#D1D1D1"/>
<path d="M477.288 277.695H43.3896V269.017C43.3896 149.2 140.522 52.0684 260.339 52.0684C380.156 52.0684 477.288 149.2 477.288 269.017V277.695Z" fill="#E5E5E5"/>
<path d="M115.417 173.629L100.933 164.083C105.976 156.464 111.556 149.214 117.629 142.388L130.603 153.912C125.082 160.117 120.007 166.706 115.417 173.629ZM141.607 142.536L129.727 129.892C165.053 96.5831 211.785 78.053 260.339 78.1017V95.4577C216.202 95.4143 173.721 112.258 141.607 142.536Z" fill="white"/>
<path d="M286.373 0H234.305V17.356H251.661V52.068H269.017V17.356H286.373V0Z" fill="#D1D1D1"/>
<path d="M386.612 277.695C338.299 302.27 286.717 319.804 233.437 329.763H459.932C488.691 329.763 512 306.454 512 277.695H386.612Z" fill="#C9C9C9"/>
<path d="M477.288 269.017C477.314 239.474 471.289 210.239 459.583 183.115C447.878 155.99 430.74 131.551 409.227 111.304C348.36 198.179 238.167 250.073 159.77 277.695H477.288V269.017Z" fill="#DEDEDE"/>
<path d="M457.598 347.119C457.231 346.226 456.811 345.357 456.34 344.516C449.198 332.592 433.743 328.713 421.819 335.855C421.238 336.202 420.665 336.575 420.109 336.974L405.86 347.119H457.598ZM294.339 347.119C292.274 337.018 283.396 329.763 273.087 329.763H159.822C151.701 329.762 143.837 332.608 137.598 337.807L126.429 347.118L294.339 347.119Z" fill="#F7BB8F"/>
</g>
<defs>
<clipPath id="clip0_19_2">
<rect width="512" height="512" fill="white"/>
</clipPath>
</defs>
</svg>
