<svg width="512" height="512" viewBox="0 0 512 512" fill="none" xmlns="http://www.w3.org/2000/svg">
<g clip-path="url(#clip0_21_82)">
<path d="M255.999 228.53C319.106 228.53 370.264 177.372 370.264 114.265C370.264 51.1582 319.106 0 255.999 0C192.893 0 141.734 51.1582 141.734 114.265C141.734 177.372 192.893 228.53 255.999 228.53Z" fill="#FCE25C"/>
<path d="M328.632 26.0508C344.908 45.7948 354.683 71.0968 354.683 98.6828C354.683 161.79 303.525 212.948 240.418 212.948C212.832 212.948 187.53 203.172 167.786 186.897C188.744 212.321 220.479 228.53 256 228.53C319.107 228.53 370.265 177.372 370.265 114.265C370.265 78.7438 354.056 47.0088 328.632 26.0508Z" fill="#E6B700"/>
<path d="M255.999 190.442C298.071 190.442 332.176 156.336 332.176 114.265C332.176 72.1935 298.071 38.0879 255.999 38.0879C213.928 38.0879 179.822 72.1935 179.822 114.265C179.822 156.336 213.928 190.442 255.999 190.442Z" fill="#E6B700"/>
<path d="M437.488 263.273H74.5117C68.9887 263.273 64.5117 258.796 64.5117 253.273V200.424C64.5117 194.901 68.9887 190.424 74.5117 190.424H437.489C443.012 190.424 447.489 194.901 447.489 200.424V253.273C447.488 258.796 443.011 263.273 437.488 263.273Z" fill="#97E4F9"/>
<path d="M422.512 190.425V263.274H437.187C442.877 263.274 447.489 258.662 447.489 252.972V200.727C447.489 195.037 442.877 190.425 437.187 190.425H422.512Z" fill="#0ACEFA"/>
<path d="M412.243 512H99.8241C94.1361 512 89.5241 507.39 89.5221 501.701L89.4521 263.273H422.475L422.545 501.695C422.547 507.386 417.934 512 412.243 512Z" fill="#97E4F9"/>
<path d="M89.4873 263.273H422.51V290.331H89.4873V263.273Z" fill="#0ACEFA"/>
<path d="M327.432 337.02C311.176 320.763 284.818 320.763 268.561 337.02L256.073 349.508L244.166 337.601C227.661 321.096 200.332 320.781 184.145 337.599C168.459 353.897 168.648 379.825 184.714 395.89L248.789 459.965C252.812 463.988 259.335 463.988 263.358 459.965L327.432 395.89C343.689 379.634 343.689 353.277 327.432 337.02Z" fill="#FB636F"/>
<path d="M327.431 337.02C314.58 324.169 295.421 321.487 279.925 328.953C282.739 337.298 284.173 346.047 284.171 354.854C284.171 392.967 257.899 424.929 222.481 433.658L248.788 459.965C252.811 463.988 259.334 463.988 263.357 459.965L327.431 395.89C343.688 379.634 343.688 353.277 327.431 337.02Z" fill="#FA2A3B"/>
<path d="M261.194 106.539H250.806C246.475 106.539 242.951 103.015 242.951 98.6835C242.951 94.3525 246.475 90.8285 250.806 90.8285H276.776C277.791 90.8286 278.795 90.6288 279.733 90.2406C280.67 89.8524 281.522 89.2833 282.239 88.5659C282.957 87.8484 283.526 86.9967 283.914 86.0592C284.302 85.1218 284.502 84.1171 284.502 83.1025C284.502 82.0878 284.302 81.0831 283.914 80.1457C283.526 79.2083 282.957 78.3565 282.239 77.6391C281.522 76.9216 280.67 76.3525 279.733 75.9643C278.795 75.5761 277.791 75.3763 276.776 75.3765H263.727V67.6235C263.727 65.5744 262.913 63.6093 261.464 62.1604C260.015 60.7114 258.05 59.8975 256.001 59.8975C253.952 59.8975 251.987 60.7114 250.538 62.1604C249.089 63.6093 248.275 65.5744 248.275 67.6235V75.5155C236.61 76.7825 227.499 86.6875 227.499 98.6835C227.499 111.535 237.955 121.992 250.807 121.992H261.195C265.526 121.992 269.05 125.516 269.05 129.847C269.05 134.178 265.526 137.702 261.195 137.702H235.225C233.176 137.702 231.211 138.516 229.762 139.965C228.313 141.414 227.499 143.379 227.499 145.428C227.499 147.478 228.313 149.443 229.762 150.892C231.211 152.34 233.176 153.154 235.225 153.154H248.274V161.284C248.274 163.334 249.088 165.299 250.537 166.748C251.986 168.196 253.951 169.01 256 169.01C258.049 169.01 260.014 168.196 261.463 166.748C262.912 165.299 263.726 163.334 263.726 161.284V153.014C275.391 151.747 284.502 141.842 284.502 129.846C284.502 116.995 274.046 106.539 261.194 106.539Z" fill="#FCE25C"/>
</g>
<defs>
<clipPath id="clip0_21_82">
<rect width="512" height="512" fill="white"/>
</clipPath>
</defs>
</svg>
