<svg width="512" height="512" viewBox="0 0 512 512" fill="none" xmlns="http://www.w3.org/2000/svg">
<g clip-path="url(#clip0_21_141)">
<path d="M420.426 134.489V342.484C420.426 402.303 346.809 450.785 256.003 450.785C235.282 450.785 215.456 448.253 197.196 443.65C135.422 428.074 91.5684 388.658 91.5684 342.484V132.253L197.196 132.971L420.426 134.489Z" fill="#544F57"/>
<path d="M197.197 132.971V443.651C135.423 428.075 91.5693 388.659 91.5693 342.485V132.253L197.197 132.971Z" fill="#454045"/>
<path d="M511.95 194.372V163.78L458.539 148.323H53.461L0 163.78V194.372H0.05C-0.509 206.062 5.165 218.015 17.096 224.327L221.381 332.391C232.048 338.034 243.933 340.983 256 340.983C268.068 340.983 279.953 338.034 290.62 332.391L494.905 224.327C506.836 218.015 512.509 206.062 511.95 194.372Z" fill="#454045"/>
<path d="M221.381 28.9033L17.0963 136.966C-5.69875 149.024 -5.69875 181.676 17.0963 193.734L221.381 301.797C232.048 307.44 243.933 310.39 256.001 310.39C268.068 310.39 279.953 307.44 290.62 301.797L494.905 193.734C517.699 181.676 517.699 149.024 494.905 136.966L290.619 28.9033C279.952 23.2604 268.068 20.3105 256 20.3105C243.933 20.3105 232.048 23.2604 221.381 28.9033Z" fill="#544F57"/>
<path d="M256 186.645C279.742 186.645 298.99 177.111 298.99 165.351C298.99 153.59 279.742 144.057 256 144.057C232.257 144.057 213.01 153.59 213.01 165.351C213.01 177.111 232.257 186.645 256 186.645Z" fill="#F4DD45"/>
<path d="M364.629 396.081C363.614 396.081 362.609 395.882 361.672 395.493C360.734 395.105 359.883 394.536 359.165 393.819C358.448 393.101 357.879 392.25 357.49 391.312C357.102 390.375 356.903 389.37 356.903 388.355V266.101L250.846 171.106C250.073 170.434 249.442 169.615 248.988 168.697C248.535 167.778 248.269 166.779 248.205 165.757C248.142 164.735 248.282 163.71 248.618 162.743C248.954 161.775 249.479 160.884 250.162 160.121C250.845 159.358 251.673 158.739 252.598 158.299C253.523 157.859 254.526 157.607 255.549 157.559C256.572 157.51 257.594 157.665 258.557 158.015C259.519 158.364 260.403 158.902 261.156 159.596L369.784 256.894C370.593 257.619 371.24 258.506 371.683 259.498C372.126 260.489 372.355 261.563 372.355 262.649V388.355C372.355 389.37 372.155 390.375 371.767 391.312C371.379 392.25 370.81 393.101 370.092 393.819C369.375 394.536 368.523 395.105 367.585 395.493C366.648 395.882 365.643 396.081 364.629 396.081Z" fill="#EAB14D"/>
<path d="M342.51 469.571C342.51 481.787 352.413 491.689 364.628 491.689C376.843 491.689 386.746 481.786 386.746 469.571C386.746 457.356 376.843 421.254 364.628 421.254C352.413 421.254 342.51 457.356 342.51 469.571Z" fill="#F4DD45"/>
<path d="M364.628 491.689C352.41 491.689 342.51 481.789 342.51 469.571C342.51 457.353 352.41 421.255 364.628 421.255C360.631 421.255 357.396 457.353 357.396 469.571C357.396 481.789 360.631 491.689 364.628 491.689Z" fill="#EAB14D"/>
<path d="M364.628 432.591C376.843 432.591 386.746 422.689 386.746 410.473C386.746 398.258 376.843 388.355 364.628 388.355C352.412 388.355 342.51 398.258 342.51 410.473C342.51 422.689 352.412 432.591 364.628 432.591Z" fill="#F4DD45"/>
<path d="M372.622 431.097C370.074 432.09 367.362 432.597 364.628 432.591C352.41 432.591 342.51 422.691 342.51 410.473C342.51 398.265 352.41 388.355 364.628 388.355C367.451 388.355 370.15 388.881 372.622 389.86C364.35 393.053 358.488 401.078 358.488 410.474C358.488 419.87 364.35 427.904 372.622 431.097Z" fill="#EAB14D"/>
</g>
<defs>
<clipPath id="clip0_21_141">
<rect width="512" height="512" fill="white"/>
</clipPath>
</defs>
</svg>
