<svg width="512" height="512" viewBox="0 0 512 512" fill="none" xmlns="http://www.w3.org/2000/svg">
<path d="M466.237 0V420.231L91.6428 461.109L45.7588 466.116V45.884C45.7588 33.213 50.8888 21.737 59.1928 13.433C67.4968 5.129 78.9718 0 91.6428 0H466.237Z" fill="#DA4A54"/>
<path d="M91.6428 0V461.109L45.7588 466.116V45.884C45.7588 33.213 50.8888 21.737 59.1928 13.433C67.4968 5.129 78.9718 0 91.6428 0Z" fill="#C32430"/>
<path d="M466.241 420.235H91.6418C66.3018 420.235 45.7598 440.777 45.7598 466.117C45.7598 491.457 66.3018 511.999 91.6418 511.999H466.241V486.244L447.573 466.116L466.241 445.988V420.235Z" fill="#C32430"/>
<path d="M91.6417 486.245C80.5427 486.245 71.5137 477.216 71.5137 466.117C71.5137 455.018 80.5427 445.989 91.6417 445.989H466.241V486.245H91.6417Z" fill="#DFEAEF"/>
<path d="M210.979 99.481L177.624 65.247L144.269 99.481V0H210.979V99.481Z" fill="#F4DD45"/>
<path d="M356.417 128.242H178.543C160.709 128.242 146.252 142.699 146.252 160.533V259.064C146.252 276.898 160.709 291.355 178.543 291.355H356.417C374.251 291.355 388.708 276.898 388.708 259.064V160.533C388.708 142.699 374.251 128.242 356.417 128.242Z" fill="#DFEAEF"/>
<path d="M356.416 299.082H178.542C156.476 299.082 138.524 281.13 138.524 259.064V160.533C138.524 138.468 156.476 120.516 178.542 120.516H356.416C378.482 120.516 396.434 138.468 396.434 160.533V259.064C396.434 281.13 378.482 299.082 356.416 299.082ZM178.542 135.969C164.997 135.969 153.977 146.989 153.977 160.533V259.064C153.977 272.609 164.997 283.629 178.542 283.629H356.416C369.961 283.629 380.981 272.609 380.981 259.064V160.533C380.981 146.988 369.961 135.969 356.416 135.969H178.542Z" fill="#C32430"/>
<path d="M340.051 197.057H194.909C192.86 197.057 190.894 196.243 189.446 194.795C187.997 193.346 187.183 191.381 187.183 189.331C187.183 187.282 187.997 185.317 189.446 183.868C190.894 182.419 192.86 181.605 194.909 181.605H340.05C342.099 181.605 344.064 182.419 345.513 183.868C346.962 185.317 347.776 187.282 347.776 189.331C347.776 190.346 347.576 191.351 347.188 192.288C346.8 193.226 346.231 194.077 345.514 194.795C344.796 195.512 343.945 196.081 343.007 196.47C342.07 196.858 341.065 197.058 340.051 197.057ZM340.051 237.993H194.909C192.86 237.993 190.894 237.179 189.446 235.731C187.997 234.282 187.183 232.317 187.183 230.267C187.183 228.218 187.997 226.253 189.446 224.804C190.894 223.355 192.86 222.541 194.909 222.541H340.05C342.099 222.541 344.064 223.355 345.513 224.804C346.962 226.253 347.776 228.218 347.776 230.267C347.776 232.316 346.962 234.281 345.514 235.73C344.065 237.179 342.1 237.993 340.051 237.993Z" fill="#665E66"/>
</svg>
