<svg width="512" height="512" viewBox="0 0 512 512" fill="none" xmlns="http://www.w3.org/2000/svg">
<g clip-path="url(#clip0_7_94)">
<path d="M139.473 7.85156H504V297.328H139.473V7.85156Z" fill="#F2F2F2"/>
<path d="M504.004 305.184H347.454C345.372 305.184 343.375 304.357 341.903 302.885C340.431 301.413 339.604 299.416 339.604 297.334C339.604 295.252 340.431 293.255 341.903 291.783C343.375 290.311 345.372 289.484 347.454 289.484H496.152V15.7H147.324V244C147.301 246.067 146.463 248.041 144.993 249.495C143.523 250.948 141.54 251.763 139.473 251.763C137.405 251.763 135.422 250.948 133.952 249.495C132.482 248.041 131.644 246.067 131.621 244V7.852C131.621 5.76952 132.448 3.77233 133.921 2.2998C135.393 0.827262 137.391 0 139.473 0L504.003 0C506.086 0 508.083 0.827262 509.555 2.2998C511.028 3.77233 511.855 5.76952 511.855 7.852V297.332C511.855 299.414 511.028 301.411 509.556 302.884C508.083 304.356 506.086 305.184 504.004 305.184Z" fill="#71CDE2"/>
<path d="M11.8481 190.344H278.656V376.629H11.8481V190.344Z" fill="#4D5160"/>
<path d="M0 125.813L262.434 77.6289L274.281 142.164L11.848 190.348L0 125.813Z" fill="#4D5160"/>
<path d="M98.7851 174.379L45.1211 184.234L68.1561 113.297L121.82 103.445L98.7851 174.379ZM206.113 154.676L152.449 164.527L175.484 93.5903L229.144 83.7383L206.113 154.676Z" fill="#F7F7F7"/>
<path d="M152.102 323.43C138.918 310.246 138.918 288.875 152.102 275.691C160.684 267.113 172.73 264.121 183.734 266.711C184.882 259.776 188.176 253.376 193.152 248.411C202.766 238.797 216.734 236.199 228.707 240.609C230.206 237.967 232.055 235.539 234.203 233.391C246.324 221.27 265.359 220.301 278.598 230.469C291.832 220.301 310.871 221.269 322.992 233.391C325.14 235.539 326.989 237.967 328.488 240.609C340.461 236.203 354.43 238.797 364.043 248.41C369.019 253.375 372.313 259.775 373.461 266.71C384.461 264.121 396.511 267.11 405.094 275.691C418.274 288.875 418.274 310.246 405.094 323.43L278.598 417.715L152.102 323.43Z" fill="#FCE06D"/>
<path d="M248.598 260.691C248.598 260.691 224.051 267.504 224.051 285.234C224.051 302.977 236.321 307.75 236.321 307.75C236.321 307.75 209.723 321.39 219.961 347.984C223.527 357.258 219.469 363.883 212.652 368.563L152.102 323.43C138.914 310.254 138.914 288.879 152.102 275.691C160.676 267.117 172.734 264.125 183.734 266.711C184.88 259.776 188.174 253.376 193.152 248.414C202.762 238.793 216.734 236.211 228.699 240.617C230.2 237.974 232.048 235.545 234.195 233.395C241.156 226.434 250.398 223.145 259.523 223.555C242.465 223.555 238.707 250.801 248.598 260.691Z" fill="#EDB05F"/>
<path d="M405.094 323.426L377.68 512H179.512L152.484 326.074L152.098 323.426H405.094Z" fill="#FF6694"/>
<path d="M229.5 512H179.512L152.484 326.074H221.316L229.5 512Z" fill="#BF1932"/>
<path d="M255.082 512H216.617L199.711 326.074L199.473 323.426H248.582L255.082 512Z" fill="#F2F2F2"/>
<path d="M229.5 512H216.617L199.711 326.074H221.316L229.5 512Z" fill="#E6E6E6"/>
<path d="M357.727 323.43L340.582 512H302.117L308.629 323.43H357.727Z" fill="#F2F2F2"/>
<path d="M379.777 152.59L301.055 107.14V198.043L379.777 152.59Z" fill="#FF6694"/>
<path d="M148.371 250.805H43.6611C41.5941 250.781 39.6197 249.944 38.1663 248.474C36.7128 247.004 35.8977 245.02 35.8977 242.953C35.8977 240.886 36.7128 238.902 38.1663 237.432C39.6197 235.962 41.5941 235.125 43.6611 235.102H148.371C150.438 235.125 152.412 235.962 153.866 237.432C155.319 238.902 156.134 240.886 156.134 242.953C156.134 245.02 155.319 247.004 153.866 248.474C152.412 249.944 150.438 250.781 148.371 250.805ZM110.156 292.746H43.6601C42.6293 292.746 41.6085 292.543 40.656 292.149C39.7036 291.754 38.8381 291.176 38.1091 290.448C37.38 289.719 36.8017 288.854 36.407 287.901C36.0124 286.949 35.8092 285.928 35.8091 284.898C35.8093 282.815 36.6366 280.819 38.1089 279.346C39.5812 277.874 41.578 277.047 43.6601 277.047H110.156C111.187 277.047 112.208 277.25 113.16 277.645C114.112 278.039 114.977 278.617 115.706 279.347C116.435 280.076 117.013 280.941 117.407 281.893C117.802 282.846 118.004 283.867 118.004 284.898C118.004 285.928 117.802 286.949 117.407 287.901C117.013 288.854 116.435 289.719 115.706 290.448C114.978 291.177 114.112 291.755 113.16 292.149C112.208 292.543 111.187 292.746 110.156 292.746Z" fill="#F7F7F7"/>
<path d="M412.945 323.426C412.945 324.457 412.742 325.478 412.348 326.431C411.953 327.383 411.375 328.249 410.646 328.978C409.917 329.707 409.051 330.285 408.099 330.68C407.146 331.074 406.125 331.277 405.094 331.277H152.098C150.016 331.277 148.019 330.45 146.547 328.978C145.075 327.506 144.248 325.509 144.248 323.427C144.248 321.345 145.075 319.349 146.547 317.876C148.019 316.404 150.016 315.577 152.098 315.577H405.094C409.426 315.578 412.945 319.094 412.945 323.426Z" fill="#F2F2F2"/>
<path d="M412.945 323.426C412.945 324.457 412.742 325.478 412.348 326.431C411.953 327.383 411.375 328.249 410.646 328.978C409.917 329.707 409.051 330.285 408.099 330.68C407.146 331.074 406.125 331.277 405.094 331.277H205.3C203.218 331.277 201.222 330.45 199.749 328.978C198.277 327.506 197.45 325.509 197.45 323.427C197.45 321.345 198.277 319.349 199.749 317.876C201.222 316.404 203.218 315.577 205.3 315.577H405.093C409.425 315.578 412.944 319.094 412.944 323.426H412.945Z" fill="#F7F7F7"/>
</g>
<defs>
<clipPath id="clip0_7_94">
<rect width="512" height="512" fill="white"/>
</clipPath>
</defs>
</svg>
