<svg width="512" height="512" viewBox="0 0 512 512" fill="none" xmlns="http://www.w3.org/2000/svg">
<g clip-path="url(#clip0_7_347)">
<path d="M302.95 59.5772L311.95 51.5472L302.95 42.8372C302.95 42.8372 263.784 -10.5038 242.344 1.85921C226.914 10.7572 224.532 39.9892 224.779 59.5772L263.865 68.5772L302.95 59.5772Z" fill="#FF4D54"/>
<path d="M224.779 59.5771C224.914 70.3151 225.839 78.1581 225.839 78.1581L263.865 87.1581L302.951 78.1581L311.951 68.5772L302.951 59.5771H224.779Z" fill="#EA4955"/>
<path d="M344.524 59.5772L335.524 51.5472L344.524 42.8372C344.524 42.8372 383.69 -10.5038 405.13 1.85921C420.56 10.7572 422.942 39.9892 422.695 59.5772L383.609 68.5772L344.524 59.5772Z" fill="#FF4D54"/>
<path d="M422.695 59.5771C422.56 70.3151 421.635 78.1581 421.635 78.1581L383.609 87.1581L344.523 78.1581L335.523 68.5772L344.523 59.5771H422.695Z" fill="#EA4955"/>
<path d="M302.95 59.5769L323.745 68.5769L344.54 59.5769V42.8369H302.95V59.5769Z" fill="#CC353E"/>
<path d="M302.95 59.5771V78.1581L323.745 87.1581L344.541 78.1581V59.5771H302.95Z" fill="#C12131"/>
<path d="M192.939 130.159L323.745 120.578L457.444 130.159V477.934C457.444 486.486 450.511 493.419 441.959 493.419H208.424C199.872 493.419 192.939 486.486 192.939 477.934V130.159Z" fill="#85CF99"/>
<path d="M182.593 130.159H467.79C473.491 130.159 478.113 125.537 478.113 119.836V88.4812C478.113 82.7802 473.491 78.1582 467.79 78.1582H344.524L323.746 87.1582L302.951 78.1582H182.593C176.892 78.1582 172.27 82.7802 172.27 88.4812V119.836C172.27 125.537 176.892 130.159 182.593 130.159Z" fill="#B1E7A1"/>
<path d="M467.791 111.579H182.594C176.893 111.579 172.271 106.957 172.271 101.256V119.837C172.271 125.538 176.893 130.16 182.594 130.16H467.791C473.492 130.16 478.115 125.538 478.115 119.837V101.256C478.115 106.957 473.492 111.579 467.791 111.579Z" fill="#97D4A8"/>
<path d="M302.95 111.579L323.745 120.579L344.541 111.579V78.1582H302.95V111.579Z" fill="#FF4D54"/>
<path d="M302.95 130.159L323.746 139.159L344.541 130.159V111.579H302.95V130.159Z" fill="#EA4955"/>
<path d="M302.95 130.159H344.541V263.454L335.541 305.262L344.541 348.416V493.419H302.95V130.159Z" fill="#CC353E"/>
<path d="M151.495 234.551L160.495 225.314L151.495 216.632C151.495 216.632 112.151 161.572 90.756 174.34C75.204 183.621 72.926 214.325 73.222 234.55L112.359 243.55L151.495 234.551Z" fill="#FF4D54"/>
<path d="M73.2207 234.551C73.3777 245.327 74.2647 253.132 74.2647 253.132L112.357 262.132L151.494 253.108L160.494 243.841L151.494 234.551H73.2207Z" fill="#EA4955"/>
<path d="M193.046 234.551L184.046 225.314L193.046 216.632C193.046 216.632 232.39 161.572 253.786 174.34C269.338 183.621 271.616 214.325 271.32 234.55L232.183 243.55L193.046 234.551Z" fill="#FF4D54"/>
<path d="M271.32 234.551C271.163 245.327 270.276 253.132 270.276 253.132L232.184 262.132L193.047 253.108L184.047 243.841L193.047 234.551H271.32Z" fill="#EA4955"/>
<path d="M151.495 234.538L172.279 243.544L193.062 234.55V216.644L151.495 216.632V234.538Z" fill="#CC353E"/>
<path d="M151.495 234.551V253.107L172.279 262.119L193.063 253.131V234.551H151.495Z" fill="#C12131"/>
<path d="M33.0631 502.419H311.478C320.03 502.419 326.963 496.515 326.963 477.934V305.261L172.271 295.681L17.5791 305.261V477.934C17.5781 496.515 24.5111 502.419 33.0631 502.419Z" fill="#F786CB"/>
<path d="M10.323 295.681H334.217C339.919 295.681 344.54 288.57 344.54 276.358V263.455C344.54 257.754 339.918 253.132 334.217 253.132H193.046L172.278 262.132L151.494 253.132H10.323C4.622 253.131 0 257.753 0 263.454V276.357C0 290.81 4.622 295.681 10.323 295.681Z" fill="#FFA5D5"/>
<path d="M334.217 286.681H10.323C4.622 286.681 0 282.059 0 276.358V294.939C0 300.64 4.622 305.262 10.323 305.262H334.217C339.919 305.262 344.54 300.64 344.54 294.939V276.358C344.541 282.059 339.919 286.681 334.217 286.681Z" fill="#FF92D0"/>
<path d="M311.478 493.419H33.0631C24.5111 493.419 17.5781 486.486 17.5781 477.934V496.515C17.5781 505.067 24.5111 512 33.0631 512H151.472L172.271 502.419L193.069 512H285.149L298.329 502.419L311.478 512C320.03 512 326.963 505.067 326.963 496.515V477.934C326.962 486.487 320.03 493.419 311.478 493.419Z" fill="#EF78C2"/>
<path d="M151.471 286.681L172.27 295.681L193.069 286.681V253.131H151.471V286.681Z" fill="#FF4D54"/>
<path d="M151.471 305.262L172.279 314.262L193.069 305.262V286.681H151.471V305.262Z" fill="#EA4955"/>
<path d="M151.471 305.262H193.069V493.419L172.27 502.419L151.471 493.419V305.262Z" fill="#CC353E"/>
<path d="M151.471 493.419H193.069V512H151.471V493.419Z" fill="#C12131"/>
<path d="M362.18 329.836L371.18 320.291L362.18 311.673C362.18 311.673 329.923 270.393 312.473 285.582C301.913 294.775 299.505 314.838 299.315 329.836L330.741 338.836L362.18 329.836Z" fill="#FF4D54"/>
<path d="M299.316 329.836C299.183 340.377 300.145 348.417 300.145 348.417L330.005 357.417L362.181 348.417L371.181 339.127L362.181 329.837H299.316V329.836Z" fill="#EA4955"/>
<path d="M402.463 329.836L393.463 320.291L402.463 311.673C402.463 311.673 434.721 270.393 452.17 285.582C462.73 294.775 465.138 314.838 465.328 329.836L433.902 338.836L402.463 329.836Z" fill="#FF4D54"/>
<path d="M465.327 329.836C465.46 340.377 464.498 348.417 464.498 348.417L434.638 357.417L402.462 348.417L393.462 339.127L402.462 329.837H465.327V329.836Z" fill="#EA4955"/>
<path d="M362.18 329.836L382.321 338.836L402.463 329.836V311.672H362.18V329.836Z" fill="#CC353E"/>
<path d="M362.18 329.836V348.416L382.321 357.416L402.463 348.416V329.836H362.18Z" fill="#C12131"/>
<path d="M285.15 502.419H479.494C488.046 502.419 494.979 496.515 494.979 477.934V395.083L382.322 385.502L269.665 395.083V477.934C269.665 496.515 276.598 502.419 285.15 502.419Z" fill="#FCC07E"/>
<path d="M262.966 385.502H501.677C507.378 385.502 512 378.988 512 366.179V358.739C512 353.038 507.378 348.416 501.677 348.416H402.463L382.322 357.416L362.181 348.416H262.967C257.266 348.416 252.644 353.038 252.644 358.739V366.179C252.643 384.76 257.265 385.502 262.966 385.502Z" fill="#FFDE8F"/>
<path d="M501.677 376.502H262.966C257.265 376.502 252.643 371.88 252.643 366.179V384.76C252.643 390.461 257.265 395.083 262.966 395.083H501.677C507.378 395.083 512 390.461 512 384.76V366.179C512 371.881 507.378 376.502 501.677 376.502Z" fill="#F9CD7F"/>
<path d="M479.493 493.419H285.15C276.598 493.419 269.665 486.486 269.665 477.934V496.515C269.665 505.067 276.598 512 285.15 512H362.181L382.322 502.419L402.463 512H479.493C488.045 512 494.978 505.067 494.978 496.515V477.934C494.978 486.487 488.045 493.419 479.493 493.419Z" fill="#F9B067"/>
<path d="M362.18 376.502L382.321 385.502L402.463 376.502V348.416H362.18V376.502Z" fill="#FF4D54"/>
<path d="M362.18 395.083L382.321 404.083L402.463 395.083V376.502H362.18V395.083Z" fill="#EA4955"/>
<path d="M362.18 395.083H402.463V493.419L382.322 502.419L362.18 493.419V395.083Z" fill="#CC353E"/>
<path d="M362.18 493.419H402.462V512H362.18V493.419Z" fill="#C12131"/>
</g>
<defs>
<clipPath id="clip0_7_347">
<rect width="512" height="512" fill="white"/>
</clipPath>
</defs>
</svg>
