<svg width="512" height="512" viewBox="0 0 512 512" fill="none" xmlns="http://www.w3.org/2000/svg">
<path d="M440 304L419.504 468C418.53 475.734 414.766 482.846 408.92 488.001C403.074 493.156 395.547 496.001 387.752 496H124.248C116.453 496.001 108.926 493.156 103.08 488.001C97.2339 482.846 93.4703 475.734 92.496 468L72 304" fill="#D5883E"/>
<path d="M92.496 468C93.4703 475.734 97.2339 482.846 103.08 488.001C108.926 493.156 116.453 496.001 124.248 496H387.752C393.861 495.992 399.839 494.222 404.968 490.904V328H75L92.496 468Z" fill="#F3A748"/>
<path d="M440 256H72C58.7452 256 48 266.745 48 280C48 293.255 58.7452 304 72 304H440C453.255 304 464 293.255 464 280C464 266.745 453.255 256 440 256Z" fill="#F0AE42"/>
<path d="M49.472 272C48.5239 274.562 48.0259 277.268 48 280C48 286.365 50.5286 292.47 55.0294 296.971C59.5303 301.471 65.6348 304 72 304H440V272H49.472Z" fill="#F9D266"/>
<path d="M313.272 43.824L304 16L288 32L256 16L272.192 56.472C283.972 55.0369 295.92 56.8893 306.712 61.824C307.834 55.4879 310.054 49.3965 313.272 43.824Z" fill="#559B2D"/>
<path d="M306.712 61.8244C296.96 57.3454 286.238 55.3905 275.533 56.1395C264.828 56.8884 254.483 60.3172 245.45 66.1105C236.417 71.9038 228.985 79.8755 223.839 89.2924C218.693 98.7093 215.997 109.269 216 120C227.224 127.481 235.235 138.9 238.448 152H240C250.48 151.995 260.54 156.119 268 163.48C275.46 156.119 285.52 151.995 296 152L306.224 65.1204C306.35 64.0166 306.512 62.9173 306.712 61.8244Z" fill="#B52F28"/>
<path d="M384 216C384.083 209.806 382.708 203.679 379.985 198.115C377.261 192.552 373.267 187.707 368.324 183.973C363.381 180.239 357.629 177.721 351.533 176.622C345.437 175.523 339.167 175.875 333.232 177.648C330.346 170.11 325.244 163.624 318.597 159.045C311.95 154.466 304.071 152.01 296 152L306.224 65.12C307.815 51.5884 314.319 39.1118 324.5 30.0574C334.681 21.003 347.831 16.0008 361.456 16C369.863 16.0002 378.161 17.9063 385.725 21.5751C393.29 25.244 399.924 30.58 405.129 37.1819C410.334 43.7839 413.975 51.4801 415.778 59.6917C417.58 67.9034 417.498 76.4169 415.536 84.592L384 216Z" fill="#C18E59"/>
<path d="M237.472 256H424C424 245.391 419.786 235.217 412.284 227.716C404.783 220.214 394.609 216 384 216C384.084 209.806 382.708 203.679 379.985 198.115C377.262 192.552 373.267 187.707 368.324 183.973C363.382 180.239 357.63 177.721 351.533 176.622C345.437 175.523 339.167 175.875 333.232 177.648C330.869 171.457 327 165.953 321.974 161.634C316.949 157.315 310.926 154.316 304.451 152.91C297.975 151.503 291.251 151.733 284.887 153.579C278.522 155.424 272.719 158.827 268 163.48C260.541 156.119 250.48 151.994 240 152H237.472V256Z" fill="#559B2D"/>
<path d="M192 64V75.152C191.999 84.0254 194.19 92.7618 198.376 100.585C202.563 108.409 208.617 115.078 216 120C223.383 124.922 229.437 131.591 233.624 139.415C237.81 147.238 240.001 155.975 240 164.848V232H239.032C236.803 231.999 234.597 232.437 232.538 233.29C230.479 234.142 228.608 235.392 227.032 236.968L208 256H80V164.848C79.9994 155.975 82.1897 147.238 86.3764 139.415C90.5632 131.591 96.6168 124.922 104 120C111.383 115.078 117.437 108.409 121.624 100.585C125.81 92.7618 128.001 84.0254 128 75.152V64H192Z" fill="#C8CDED"/>
<path d="M176 336C180.243 336 184.313 337.686 187.314 340.686C190.314 343.687 192 347.757 192 352V448C192 452.243 190.314 456.313 187.314 459.314C184.313 462.314 180.243 464 176 464C171.757 464 167.687 462.314 164.686 459.314C161.686 456.313 160 452.243 160 448V352L176 336ZM336 336C331.757 336 327.687 337.686 324.686 340.686C321.686 343.687 320 347.757 320 352V448C320 452.243 321.686 456.313 324.686 459.314C327.687 462.314 331.757 464 336 464C340.243 464 344.313 462.314 347.314 459.314C350.314 456.313 352 452.243 352 448V352L336 336Z" fill="#F2F2F2"/>
<path d="M251.032 260.968L76.968 435.032C75.3923 436.608 73.5214 437.858 71.4624 438.71C69.4034 439.563 67.1965 440.001 64.968 440C60.4685 439.998 56.1538 438.209 52.9722 435.028C49.7905 431.846 48.0021 427.532 48 423.032C47.9991 420.803 48.4374 418.597 49.2898 416.538C50.1423 414.479 51.3921 412.608 52.968 411.032L227.032 236.968C228.608 235.392 230.479 234.142 232.538 233.29C234.597 232.437 236.803 231.999 239.032 232C243.532 232.002 247.846 233.79 251.028 236.972C254.21 240.154 255.998 244.468 256 248.968C256.001 251.197 255.563 253.403 254.71 255.462C253.858 257.521 252.608 259.392 251.032 260.968Z" fill="#FCE797"/>
<path d="M260.968 260.968L435.032 435.032C436.608 436.608 438.479 437.858 440.538 438.71C442.597 439.563 444.803 440.001 447.032 440C451.532 439.998 455.846 438.209 459.028 435.028C462.209 431.846 463.998 427.532 464 423.032C464.001 420.803 463.563 418.597 462.71 416.538C461.858 414.479 460.608 412.608 459.032 411.032L284.968 236.968C283.392 235.392 281.521 234.142 279.462 233.29C277.403 232.437 275.197 231.999 272.968 232C268.468 232.002 264.154 233.79 260.972 236.972C257.791 240.154 256.002 244.468 256 248.968C255.999 251.197 256.437 253.403 257.29 255.462C258.142 257.521 259.392 259.392 260.968 260.968Z" fill="#FCE797"/>
<path d="M272 352C272 343.163 264.837 336 256 336C247.163 336 240 343.163 240 352V448C240 456.837 247.163 464 256 464C264.837 464 272 456.837 272 448V352Z" fill="#F2F2F2"/>
<path d="M192 16H128C119.163 16 112 23.1634 112 32V48C112 56.8366 119.163 64 128 64H192C200.837 64 208 56.8366 208 48V32C208 23.1634 200.837 16 192 16Z" fill="#3B5892"/>
<path d="M112 256V176H208V256" fill="#E2E7F6"/>
<path d="M112 200H184V256H112V200Z" fill="#F2F2F2"/>
<path d="M334.528 80.0084L337.152 64.2324L385.128 72.2164L382.504 87.9924L334.528 80.0084ZM326.52 120L329.144 104.216L377.12 112.2L374.496 127.976L326.52 120Z" fill="#976947"/>
<path d="M216 120C227.224 127.481 235.235 138.899 238.448 152H240C250.48 151.994 260.54 156.119 268 163.48C272.682 158.973 278.394 155.677 284.64 153.88V76H233.6C222.293 87.8576 215.99 103.616 216 120Z" fill="#D23F34"/>
</svg>
