<svg width="512" height="512" viewBox="0 0 512 512" fill="none" xmlns="http://www.w3.org/2000/svg">
<g clip-path="url(#clip0_7_425)">
<path d="M301.6 402.071V303.153H256.518V334.212H155.341C144.518 334.306 135.765 343.059 135.765 353.883V402.165C135.765 428.424 157.035 449.694 183.294 449.694H254.165C280.423 449.6 301.694 428.33 301.6 402.071Z" fill="#1F315F"/>
<path d="M256.612 452.705C255.859 434.729 241.177 420.611 223.2 420.611H214.259C196.283 420.611 181.6 434.823 180.941 452.8L256.612 452.705Z" fill="#EFCDB1"/>
<path d="M218.682 420.141C215.576 420.047 213.129 417.6 213.035 414.494V375.435C213.035 372.329 215.576 369.788 218.682 369.788C221.788 369.788 224.329 372.329 224.329 375.435V414.494C224.423 417.6 221.976 420.047 218.87 420.141H218.776H218.682Z" fill="#414042"/>
<path d="M256.706 478.494V452.706H180.941V478.494C180.847 496.941 195.812 511.906 214.259 512H223.294C241.741 511.906 256.706 496.941 256.706 478.494Z" fill="#8A5D3B"/>
<path d="M256.612 386.165C253.506 386.165 250.965 383.624 250.965 380.518V339.012C250.965 335.906 253.506 333.365 256.612 333.365C259.718 333.365 262.259 335.906 262.259 339.012V380.518C262.259 383.624 259.718 386.165 256.612 386.165Z" fill="#192A4F"/>
<path d="M301.506 303.153V278.494C301.506 272.377 296.612 267.482 290.494 267.482H267.529C261.412 267.482 256.518 272.377 256.518 278.494V303.153H301.506Z" fill="#EFCDB1"/>
<path d="M423.012 271.153L329.835 237.741L314.588 280.188L343.859 290.635L309.694 385.977C306.024 396.141 311.294 407.341 321.459 411.012L366.918 427.294C391.671 436.141 418.871 423.341 427.718 398.588L451.624 331.953C460.471 307.294 447.671 280.094 423.012 271.153Z" fill="#89C45E"/>
<path d="M455.294 330.73C438.165 325.271 419.812 334.306 413.788 351.247L410.776 359.624C404.753 376.565 413.129 395.2 429.788 401.977L455.294 330.73Z" fill="#EFCDB1"/>
<path d="M406.541 359.059C405.882 359.059 405.224 358.965 404.659 358.682L367.859 345.506C364.941 344.471 363.435 341.176 364.471 338.259C365.506 335.341 368.612 333.835 371.529 334.871H371.624L408.424 348.047C411.341 348.988 413.035 352.188 412 355.2C411.247 357.553 408.988 359.153 406.541 359.059Z" fill="#414042"/>
<path d="M479.67 339.388L456.612 331.106L455.294 330.729L429.788 401.977L431.012 402.447L454.07 410.729C471.482 416.941 490.588 407.906 496.8 390.494L499.812 382.118C506.023 364.8 496.988 345.694 479.67 339.388Z" fill="#8A5D3B"/>
<path d="M387.341 311.905L385.459 311.623L346.4 297.6C343.482 296.564 341.976 293.27 343.012 290.353C344.047 287.435 347.341 285.929 350.259 286.964L389.318 300.988C392.235 302.023 393.741 305.129 392.706 308.047V308.141C391.859 310.4 389.788 311.905 387.341 311.905Z" fill="#75AA4D"/>
<path d="M329.835 237.741L306.588 229.459C300.847 227.388 294.541 230.4 292.47 236.047V236.141L284.753 257.694C282.682 263.435 285.694 269.741 291.341 271.812H291.435L314.588 280.188L329.835 237.741Z" fill="#EFCDB1"/>
<path d="M341.223 119.811L282.682 199.623L319.012 226.258L337.364 201.223L418.964 261.082C427.717 267.482 439.953 265.6 446.353 256.847L474.964 217.882C490.494 196.705 485.882 166.964 464.706 151.435L407.576 109.553C386.4 94.1172 356.753 98.729 341.223 119.811Z" fill="#FDC00F"/>
<path d="M407.482 105.694C397.412 120.565 400.894 140.706 415.388 151.341L422.541 156.612C437.035 167.153 457.271 164.518 468.471 150.494L407.482 105.694Z" fill="#EFCDB1"/>
<path d="M392.236 196.047C391.012 196.047 389.883 195.67 388.941 195.011C386.4 193.129 385.836 189.647 387.718 187.106L410.777 155.576C412.659 153.035 416.141 152.47 418.683 154.353C421.224 156.235 421.788 159.717 419.906 162.259L396.753 193.788C395.718 195.2 394.024 196.047 392.236 196.047Z" fill="#414042"/>
<path d="M422.635 84.8944L408.141 104.659L407.482 105.694L468.471 150.494L469.318 149.459L483.812 129.6C494.729 114.73 491.435 93.8356 476.565 82.9179L469.412 77.6473C454.541 66.7297 433.647 69.9297 422.729 84.8003C422.635 84.8003 422.635 84.8944 422.635 84.8944Z" fill="#8A5D3B"/>
<path d="M340.188 203.011C338.965 203.011 337.835 202.635 336.8 201.976C334.259 200.094 333.788 196.611 335.671 194.07L360.141 160.564C362.024 158.023 365.506 157.459 368.047 159.341C370.588 161.223 371.153 164.706 369.271 167.247L344.706 200.753C343.671 202.164 341.977 203.011 340.188 203.011Z" fill="#E5A60A"/>
<path d="M282.682 199.624L268.094 219.483C264.518 224.377 265.553 231.248 270.447 234.918L288.988 248.471C293.882 252.048 300.753 251.012 304.424 246.118L319.012 226.259L282.682 199.624Z" fill="#EFCDB1"/>
<path d="M147.059 322.729L238.918 285.835L222.165 244.047L193.271 255.623L155.53 161.694C151.577 151.717 140.282 146.729 130.212 150.682C130.212 150.682 130.118 150.682 130.118 150.776L85.2236 168.847C60.9413 178.635 49.1766 206.306 58.8707 230.588L85.3178 296.282C95.0119 320.659 122.588 332.517 146.965 322.729H147.059Z" fill="#02648E"/>
<path d="M83.3414 299.764C99.7178 292.423 107.435 273.412 100.753 256.753L97.3649 248.47C90.6825 231.812 72.0473 223.435 55.2002 229.459L83.3414 299.764Z" fill="#EFCDB1"/>
<path d="M104.706 256C102.447 256 100.377 254.588 99.5295 252.424C98.4001 249.506 99.7177 246.212 102.635 245.082L138.871 230.494C141.788 229.365 145.082 230.777 146.306 233.694C147.435 236.612 146.024 239.906 143.106 241.035L106.871 255.624C106.212 255.906 105.459 256 104.706 256Z" fill="#414042"/>
<path d="M59.4353 309.365L82.2118 300.235L83.3412 299.765L55.2 229.459L53.8824 229.93L31.2 239.059C14.0706 245.93 5.78823 265.412 12.6588 282.541L15.9529 290.824C22.8235 307.953 42.3059 316.235 59.4353 309.365Z" fill="#8A5D3B"/>
<path d="M150.447 278.494C147.341 278.588 144.706 276.141 144.706 273.035C144.612 270.682 146.118 268.518 148.282 267.577L186.776 252.141C189.694 251.012 192.988 252.33 194.118 255.247C195.341 258.071 194.023 261.365 191.2 262.494C191.106 262.494 191.106 262.494 191.012 262.588L152.518 278.118C151.859 278.4 151.2 278.494 150.447 278.494Z" fill="#345493"/>
<path d="M238.917 285.835L261.788 276.612C267.435 274.353 270.165 267.953 267.906 262.306L259.341 240.941C257.082 235.294 250.682 232.565 245.035 234.823L222.165 244.047L238.917 285.835Z" fill="#EFCDB1"/>
<path d="M163.341 145.412L218.212 227.765L255.67 202.824L238.447 177.036L322.776 120.942C331.717 114.918 334.164 102.777 328.141 93.7417L301.412 53.5535C286.823 31.7182 257.365 25.7888 235.529 40.2829L176.612 79.5299C154.776 94.0241 148.847 123.577 163.341 145.412Z" fill="#BE1E2D"/>
<path d="M172.847 78.4003C183.388 92.8944 203.435 96.565 218.4 86.5885L225.835 81.6944C240.8 71.8121 245.318 51.765 235.906 36.4238L172.847 78.4003Z" fill="#EFCDB1"/>
<path d="M247.2 127.435C245.318 127.435 243.529 126.494 242.494 124.894L220.847 92.3291C218.965 89.7879 219.529 86.3055 221.976 84.4232C224.518 82.5408 228 83.1055 229.882 85.5526C229.976 85.7408 230.165 85.9291 230.259 86.1173L251.906 118.588C253.6 121.223 252.941 124.706 250.306 126.494C249.365 127.058 248.329 127.435 247.2 127.435Z" fill="#414042"/>
<path d="M158.541 56.8471L172.094 77.2706L172.847 78.4001L235.906 36.4236L235.153 35.2942L221.6 14.8706C211.341 -0.470529 190.541 -4.61171 175.2 5.64712L167.859 10.5412C152.517 20.7059 148.282 41.3177 158.447 56.753L158.541 56.8471Z" fill="#8A5D3B"/>
<path d="M235.812 178.729C233.929 178.729 232.141 177.788 231.106 176.188L208.141 141.647C206.353 139.011 207.106 135.529 209.741 133.835C212.376 132.047 215.859 132.8 217.553 135.341L240.518 169.882C242.212 172.423 241.553 175.906 239.106 177.6C239.012 177.6 239.012 177.694 238.918 177.694C237.976 178.353 236.941 178.729 235.812 178.729Z" fill="#AA1729"/>
<path d="M218.212 227.764L231.859 248.282C235.153 253.364 241.93 254.776 246.918 251.482C247.012 251.482 247.012 251.388 247.106 251.388L266.306 238.682C271.388 235.294 272.706 228.423 269.318 223.341L255.671 202.823L218.212 227.764Z" fill="#EFCDB1"/>
</g>
<defs>
<clipPath id="clip0_7_425">
<rect width="512" height="512" fill="white"/>
</clipPath>
</defs>
</svg>
