<svg width="512" height="512" viewBox="0 0 512 512" fill="none" xmlns="http://www.w3.org/2000/svg">
<path fill-rule="evenodd" clip-rule="evenodd" d="M262.804 475.433C268.96 480.473 272.024 483.214 275.117 483.331C278.18 483.213 281.273 480.472 287.43 475.433L449.76 309.211C497.773 257.841 497.773 173.758 449.76 122.359C406.136 75.675 334.5 86.05 289.049 130.758L280.507 139.158C275.558 144.021 274.616 144.021 269.549 139.04L261.154 130.758C215.792 86.02 144.067 75.675 100.443 122.359C52.4303 173.758 52.4303 257.841 100.443 309.211L119.913 329.164L262.804 475.433Z" fill="#FD8087"/>
<path fill-rule="evenodd" clip-rule="evenodd" d="M309.05 114.402C332.408 148.295 345.958 188.553 345.958 231.73C345.958 236.445 345.781 241.102 345.457 245.7C342.865 284.043 329.551 319.704 308.284 350.149C298.917 363.559 288.018 375.966 275.765 387.166C262.687 399.132 248.106 409.683 232.288 418.554C226.831 421.613 221.26 424.464 215.587 427.101L262.805 475.435C268.961 480.475 272.025 483.216 275.118 483.333C278.181 483.215 281.274 480.474 287.431 475.435L337.093 424.566L449.76 309.211C487.699 268.628 495.652 207.592 473.649 158.433C467.787 145.377 459.834 133.146 449.76 122.359C443.132 115.286 435.857 109.509 428.139 104.971C402.984 90.206 373.027 88.526 344.75 97.19C332.349 100.992 320.243 106.828 309.05 114.402Z" fill="#FE636E"/>
<path d="M322.983 291.213L322.846 291.212C321.484 291.187 320.154 290.803 318.988 290.099C317.823 289.395 316.864 288.396 316.209 287.202L276.271 214.385L246.535 266.368C245.872 267.526 244.922 268.492 243.775 269.173C242.628 269.854 241.325 270.227 239.991 270.255C238.657 270.283 237.339 269.965 236.165 269.333C234.991 268.7 234 267.775 233.29 266.646L214.819 237.28L200.88 260.444C200.193 261.586 199.223 262.53 198.063 263.186C196.903 263.842 195.593 264.187 194.261 264.187H145.983C141.716 264.187 138.257 260.726 138.257 256.457C138.257 252.188 141.716 248.727 145.983 248.727H189.894L208.054 218.548C208.734 217.417 209.693 216.479 210.838 215.824C211.983 215.169 213.277 214.818 214.597 214.805L214.673 214.804C215.979 214.804 217.265 215.135 218.408 215.767C219.552 216.399 220.516 217.311 221.212 218.417L239.514 247.514L269.707 194.733C270.383 193.551 271.359 192.569 272.536 191.886C273.714 191.203 275.051 190.843 276.412 190.843L276.482 190.844C277.855 190.856 279.2 191.235 280.378 191.939C281.556 192.644 282.526 193.651 283.186 194.855L323.257 267.916L343.473 233.963C344.158 232.813 345.129 231.86 346.293 231.198C347.457 230.537 348.772 230.189 350.111 230.189H414.501C418.768 230.189 422.227 233.65 422.227 237.919C422.227 242.188 418.768 245.649 414.501 245.649H354.502L329.62 287.439C328.935 288.589 327.963 289.541 326.8 290.203C325.637 290.864 324.321 291.212 322.983 291.213Z" fill="#F8F2F0"/>
<path fill-rule="evenodd" clip-rule="evenodd" d="M428.139 171.843C474.326 171.843 512 134.148 512 87.907C512 41.695 474.326 4 428.139 4C381.923 4 344.249 41.695 344.249 87.907C344.249 134.148 381.923 171.843 428.139 171.843Z" fill="#F8F2F0"/>
<path fill-rule="evenodd" clip-rule="evenodd" d="M398.065 9.541C427.55 22.568 448.11 52.04 448.11 86.345C448.11 86.875 448.11 87.406 448.081 87.907C447.904 97.662 446.078 107.005 442.838 115.64C434.473 138.157 416.681 156.105 394.295 164.711C404.634 169.309 416.092 171.843 428.14 171.843C444.9 171.843 460.541 166.921 473.649 158.433C496.742 143.461 512 117.467 512 87.907C512 41.577 474.444 4 428.139 4C417.535 4 407.403 5.945 398.065 9.541Z" fill="#D6DCEA"/>
<path d="M458.655 80.1756H435.865V57.3736C435.865 53.1046 432.406 49.6436 428.139 49.6436C423.872 49.6436 420.413 53.1046 420.413 57.3736V80.1766H397.623C393.356 80.1766 389.897 83.6376 389.897 87.9066C389.897 92.1756 393.356 95.6366 397.623 95.6366H420.413V118.44C420.413 122.709 423.872 126.17 428.139 126.17C432.406 126.17 435.865 122.709 435.865 118.44V95.6356H458.655C462.922 95.6356 466.381 92.1746 466.381 87.9056C466.381 83.6366 462.923 80.1756 458.655 80.1756Z" fill="#FD8087"/>
<path fill-rule="evenodd" clip-rule="evenodd" d="M71.5477 347.849L54.3457 403.669L71.5477 462.819L150.784 484.392L215.056 501.869C252.553 513.54 269.107 506.879 303.6 495.798L429.995 455.245C466.284 443.604 460.865 393.678 407.756 410.742L337.092 424.564L325.545 426.833C308.402 430.163 306.045 431.548 288.755 428.867L232.288 418.552L222.037 416.666C198.885 409.269 207.898 378.264 228.105 381.329C241.772 383.068 260.094 385.543 275.764 387.164C276.088 387.193 276.412 387.223 276.707 387.252C306.958 390.317 319.094 367.712 308.284 350.147C304.19 343.457 296.737 337.474 285.691 333.967L243.127 326.157C215.527 321.088 195.909 327.395 153.081 334.439L128.957 338.418L71.5477 347.849Z" fill="#FED1A3"/>
<path fill-rule="evenodd" clip-rule="evenodd" d="M0 337.858V473.871C0 475.58 1.797 476.966 3.977 476.966H67.543C69.752 476.966 71.549 475.581 71.549 473.871V337.858C71.549 336.149 69.752 334.763 67.543 334.763H3.977C1.797 334.764 0 336.149 0 337.858Z" fill="#99E6FC"/>
<path fill-rule="evenodd" clip-rule="evenodd" d="M0 452.975V473.871C0 475.58 1.797 476.966 3.977 476.966H67.543C69.752 476.966 71.549 475.581 71.549 473.871V452.975C71.549 454.655 69.752 456.07 67.543 456.07H3.977C1.797 456.07 0 454.655 0 452.975Z" fill="#62DBFB"/>
<path fill-rule="evenodd" clip-rule="evenodd" d="M71.5479 452.975V462.819L150.784 484.392L215.056 501.869C252.553 513.54 269.107 506.879 303.6 495.798L429.995 455.245C450.467 448.702 457.654 429.958 450.526 417.904C447.021 424.859 440.158 431.107 429.995 434.349L303.6 474.902C269.107 485.954 252.553 492.644 215.056 480.973L150.784 463.496L71.5479 441.893V452.975ZM228.105 360.434C212.081 358.017 203.097 376.968 211.58 388.609C214.967 383.569 220.8 380.239 228.105 381.329C241.772 383.068 260.094 385.543 275.764 387.164L276.707 387.252C305.544 390.17 317.916 369.805 309.668 352.681C307.4 357.043 303.6 360.786 298.357 363.291C292.76 365.973 285.485 367.24 276.707 366.356L275.764 366.268C260.094 364.648 241.773 362.172 228.105 360.434Z" fill="#FFBC85"/>
</svg>
