<svg width="512" height="512" viewBox="0 0 512 512" fill="none" xmlns="http://www.w3.org/2000/svg">
<g clip-path="url(#clip0_19_48)">
<path d="M241.806 332.01C180.145 332.01 129.98 281.747 129.98 219.966V112.271C129.98 50.4894 180.145 0.226562 241.806 0.226562C303.468 0.226562 353.633 50.4894 353.633 112.271V219.966C353.633 281.747 303.468 332.01 241.806 332.01Z" fill="#DADA3B"/>
<path d="M241.807 0.226562V332.01C303.468 332.01 353.633 281.747 353.633 219.966V112.271C353.632 50.4894 303.467 0.226562 241.807 0.226562Z" fill="#9DBC29"/>
<path d="M241.052 107.925C232.785 107.925 226.082 114.641 226.082 122.925V168.643L216.105 158.547C210.288 152.66 200.81 152.613 194.933 158.442C189.058 164.271 189.01 173.768 194.828 179.655L226.081 211.282V496.808C226.081 505.092 232.784 511.808 241.051 511.808C249.319 511.808 256.022 505.092 256.022 496.808V122.925C256.023 114.641 249.32 107.925 241.052 107.925Z" fill="#A34F3E"/>
<path d="M241.807 107.982V511.789C249.722 511.393 256.024 504.856 256.024 496.827V122.943C256.023 114.914 249.722 108.378 241.807 107.982Z" fill="#873F2E"/>
<path d="M84.3821 510.961C76.1141 510.961 69.4111 504.245 69.4111 495.961V403.622C69.4111 395.338 76.1141 388.622 84.3821 388.622C92.6501 388.622 99.3531 395.338 99.3531 403.622V495.961C99.3531 504.245 92.6501 510.961 84.3821 510.961Z" fill="#C86E59"/>
<path d="M84.3818 388.622V510.961C92.6498 510.961 99.3528 504.245 99.3528 495.961V403.622C99.3528 395.337 92.6498 388.622 84.3818 388.622Z" fill="#A34F3E"/>
<path d="M84.3815 418.622C60.1546 418.622 38.2187 401.545 22.6138 370.537C8.65284 342.793 0.963867 306.238 0.963867 267.607C0.963867 188.459 69.4266 94.702 72.3416 90.7501C75.1646 86.9221 79.6326 84.6631 84.3825 84.6631C89.1325 84.6631 93.6005 86.9221 96.4235 90.7501C99.3375 94.703 167.8 188.459 167.8 267.607C167.8 306.238 160.111 342.793 146.149 370.537C130.545 401.545 108.608 418.622 84.3815 418.622Z" fill="#DADA3B"/>
<path d="M96.4228 90.7501C95.0327 88.8634 93.2188 87.3296 91.1274 86.2723C89.0359 85.215 86.7253 84.6638 84.3818 84.6631V418.622C108.609 418.622 130.545 401.545 146.15 370.537C160.112 342.793 167.8 306.238 167.8 267.607C167.799 188.459 99.3368 94.702 96.4228 90.7501Z" fill="#9DBC29"/>
<path d="M454.907 131.449C408.618 137.847 369.793 95.7214 381.901 48.6244C387.728 25.9574 405.569 8.08142 428.192 2.24342C475.197 -9.88858 517.241 29.0124 510.855 75.3924C506.852 104.472 483.931 127.437 454.907 131.449Z" fill="#FFDD54"/>
<path d="M445.581 0.000976562V132.086C448.647 132.086 451.759 131.883 454.907 131.448C483.93 127.437 506.851 104.471 510.855 75.391C516.439 34.836 484.994 0.000976562 445.581 0.000976562Z" fill="#FFB454"/>
<path d="M447.108 307.45C438.84 307.45 432.137 300.734 432.137 292.45V208.556C432.137 200.272 438.84 193.556 447.108 193.556C455.376 193.556 462.079 200.272 462.079 208.556V292.45C462.079 300.734 455.376 307.45 447.108 307.45Z" fill="#FF405C"/>
<path d="M147.67 512V314.596C147.67 313.167 148.282 311.804 149.349 310.856L308.699 169.222C309.611 168.41 310.79 167.962 312.011 167.962C313.232 167.962 314.41 168.41 315.322 169.222L474.672 310.856C475.2 311.326 475.622 311.902 475.911 312.547C476.201 313.191 476.35 313.89 476.351 314.596V511.999H147.67V512Z" fill="#FFF2DE"/>
<path d="M474.672 310.856L315.323 169.222C314.41 168.41 313.232 167.962 312.011 167.962V512H476.351V314.596C476.351 313.89 476.201 313.191 475.912 312.547C475.622 311.902 475.2 311.326 474.672 310.856Z" fill="#FDE4C3"/>
<path d="M277.416 512.001H187.591V355.383C187.591 347.099 194.294 340.383 202.562 340.383H262.445C270.713 340.383 277.416 347.099 277.416 355.383V512.001Z" fill="#A34F3E"/>
<path d="M406.183 427.871H355.013C349.165 427.871 344.424 423.121 344.424 417.262V365.992C344.424 360.133 349.165 355.383 355.013 355.383H406.183C412.031 355.383 416.772 360.133 416.772 365.992V417.262C416.772 423.121 412.031 427.871 406.183 427.871Z" fill="#C8FFFF"/>
<path d="M416.772 442.871H344.425C336.157 442.871 329.454 436.155 329.454 427.871V355.383C329.454 347.099 336.157 340.383 344.425 340.383H416.772C425.04 340.383 431.743 347.099 431.743 355.383V427.871C431.742 436.155 425.04 442.871 416.772 442.871ZM359.395 412.871H401.8V370.383H359.395V412.871Z" fill="#A34F3E"/>
<path d="M496.025 351.523C492.363 351.528 488.828 350.182 486.096 347.744L312.01 193.014L137.926 347.744C131.742 353.241 122.279 352.675 116.792 346.477C111.305 340.28 111.871 330.799 118.057 325.302L302.077 161.741C304.813 159.307 308.349 157.963 312.011 157.963C315.674 157.963 319.209 159.307 321.945 161.741L505.965 325.302C512.15 330.8 512.716 340.28 507.23 346.477C505.827 348.066 504.103 349.337 502.171 350.207C500.239 351.077 498.144 351.526 496.025 351.523Z" fill="#FF405C"/>
<path d="M505.966 325.303L321.946 161.741C319.21 159.304 315.674 157.959 312.011 157.962V193.013L486.096 347.744C488.828 350.181 492.363 351.527 496.025 351.523C500.158 351.523 504.272 349.818 507.23 346.477C512.717 340.281 512.151 330.8 505.966 325.303Z" fill="#E20059"/>
<path d="M497.028 512H14.9719C6.70395 511.808 0.000976562 505.093 0.000976562 496.809C0.000976562 488.525 6.70395 481.809 14.9719 481.809H497.028C505.296 481.809 511.999 488.525 511.999 496.809C511.999 505.093 505.296 511.808 497.028 512Z" fill="#DADA3B"/>
<path d="M497.029 481.809H256.023V512H497.029C505.296 511.808 511.999 505.093 511.999 496.809C511.999 488.524 505.296 481.809 497.029 481.809Z" fill="#9DBC29"/>
</g>
<defs>
<clipPath id="clip0_19_48">
<rect width="512" height="512" fill="white"/>
</clipPath>
</defs>
</svg>
