<svg width="512" height="512" viewBox="0 0 512 512" fill="none" xmlns="http://www.w3.org/2000/svg">
<g clip-path="url(#clip0_19_84)">
<path d="M241 250H271V347H241V250ZM241 0H271V73H241V0Z" fill="#575F64"/>
<path d="M256 0H271V73H256V0ZM256 250H271V347H256V250Z" fill="#474F54"/>
<path d="M362 287H392V332H362V287Z" fill="#5BC980"/>
<path d="M377 287H392V332H377V287Z" fill="#5BC980"/>
<path d="M120 287H150V332H120V287Z" fill="#7FE881"/>
<path d="M135 287H150V332H135V287Z" fill="#B5FB4A"/>
<path d="M0 287H30V332H0V287Z" fill="#7FE881"/>
<path d="M482 287H512V332H482V287Z" fill="#5BC980"/>
<path d="M301 437C301 456.55 288.46 473.23 271 479.42V512H241V479.42C223.54 473.23 211 456.55 211 437H241C241 445.27 247.73 452 256 452C264.27 452 271 445.27 271 437C271 428.73 264.27 422 256 422C231.19 422 211 401.81 211 377C211 352.19 231.19 332 256 332C280.81 332 301 352.19 301 377H271C271 368.73 264.27 362 256 362C247.73 362 241 368.73 241 377C241 385.27 247.73 392 256 392C280.81 392 301 412.19 301 437Z" fill="#575F64"/>
<path d="M301 437C301 456.55 288.46 473.23 271 479.42V512H256V452C264.27 452 271 445.27 271 437C271 428.73 264.27 422 256 422V392C280.81 392 301 412.19 301 437ZM256 362V332C280.81 332 301 352.19 301 377H271C271 368.73 264.27 362 256 362Z" fill="#474F54"/>
<path d="M256 32L377 308.213L387.606 297.606C400.799 284.413 418.341 277.147 437 277.147C455.659 277.147 473.2 284.413 486.394 297.606L512 287C512 146.393 397.159 32 256 32Z" fill="#5BC980"/>
<path d="M0 287L25.606 297.606C38.8 284.413 56.342 277.147 75 277.147C93.658 277.147 111.2 284.413 124.394 297.606L135 308.213L256 32C114.841 32 0 146.393 0 287Z" fill="#7FE881"/>
<path d="M377 287V308.21L366.39 297.61C353.2 284.41 335.48 277.15 316.5 277.15C297.52 277.15 279.8 284.41 266.61 297.61L256 308.21L245.39 297.61C232.2 284.41 214.48 277.15 195.5 277.15C176.52 277.15 158.8 284.41 145.61 297.61L135 308.21V287C135 154.45 189.73 32 256 32C322.27 32 377 154.45 377 287Z" fill="#B5FB4A"/>
<path d="M377 287V308.21L366.39 297.61C353.2 284.41 335.48 277.15 316.5 277.15C297.52 277.15 279.8 284.41 266.61 297.61L256 308.21V32C322.27 32 377 154.45 377 287Z" fill="#7FE881"/>
</g>
<defs>
<clipPath id="clip0_19_84">
<rect width="512" height="512" fill="white"/>
</clipPath>
</defs>
</svg>
