<svg width="512" height="512" viewBox="0 0 512 512" fill="none" xmlns="http://www.w3.org/2000/svg">
<g clip-path="url(#clip0_21_52)">
<path d="M343.24 66.5803H365.781C366.467 66.5803 367.126 66.853 367.611 67.3386C368.097 67.8241 368.37 68.4826 368.37 69.1693V207.171H408.497V69.1693C408.497 68.4826 408.77 67.8241 409.255 67.3386C409.741 66.853 410.399 66.5803 411.086 66.5803H432.818C434.93 66.5803 436.154 64.1863 434.916 62.4743L390.514 1.07228C390.275 0.741754 389.961 0.472344 389.599 0.286007C389.236 0.0996696 388.834 0.00167859 388.427 2.13761e-05C388.019 -0.00163584 387.616 0.0930877 387.252 0.276471C386.888 0.459854 386.572 0.726706 386.331 1.05528L341.155 62.4583C339.897 64.1673 341.118 66.5803 343.24 66.5803Z" fill="#05E39C"/>
<path d="M451.469 234.861V217.382C451.469 211.182 446.443 206.157 440.244 206.157H321.256C315.056 206.157 310.031 211.183 310.031 217.382V234.861C310.031 241.061 315.057 246.086 321.256 246.086C315.056 246.086 310.031 251.112 310.031 257.311V274.79C310.031 280.99 315.057 286.015 321.256 286.015C315.056 286.015 310.031 291.041 310.031 297.24V314.719C310.031 320.919 315.057 325.944 321.256 325.944C319.664 325.945 318.092 326.286 316.643 326.944H317.506C323.145 326.944 327.732 331.531 327.732 337.17V354.649C327.732 360.288 323.145 364.875 317.506 364.875V366.875C323.145 366.875 327.732 371.462 327.732 377.1V394.579C327.732 400.218 323.145 404.805 317.506 404.805V406.805C323.145 406.805 327.732 411.392 327.732 417.03V434.509C327.732 440.148 323.145 444.735 317.506 444.735V446.735C323.145 446.735 327.732 451.322 327.732 456.961V474.44C327.732 480.079 323.145 484.666 317.506 484.666V485.011C318.68 485.428 319.939 485.666 321.256 485.666H440.244C446.444 485.666 451.469 480.64 451.469 474.441V456.962C451.469 450.762 446.443 445.737 440.244 445.737C446.444 445.737 451.469 440.711 451.469 434.512V417.033C451.469 410.833 446.443 405.808 440.244 405.808C446.444 405.808 451.469 400.782 451.469 394.583V377.104C451.469 370.904 446.443 365.879 440.244 365.879C446.444 365.879 451.469 360.853 451.469 354.654V337.175C451.469 330.975 446.443 325.95 440.244 325.95C446.444 325.95 451.469 320.924 451.469 314.725V297.246C451.469 291.046 446.443 286.021 440.244 286.021C446.444 286.021 451.469 280.995 451.469 274.796V257.317C451.469 251.117 446.443 246.092 440.244 246.092C446.443 246.086 451.469 241.06 451.469 234.861Z" fill="#FEDF30"/>
<path d="M440.244 325.946H321.256C319.664 325.947 318.091 326.288 316.643 326.946H317.506C323.145 326.946 327.732 331.533 327.732 337.172V354.651C327.732 360.29 323.145 364.877 317.506 364.877V365.221C318.68 365.638 319.939 365.876 321.256 365.876H440.244C446.444 365.876 451.469 360.85 451.469 354.651V337.172C451.469 330.971 446.443 325.946 440.244 325.946Z" fill="#FAC600"/>
<path d="M352.123 354.65V337.171C352.123 330.971 357.149 325.946 363.348 325.946H321.255C319.663 325.947 318.09 326.288 316.642 326.946H317.505C323.144 326.946 327.731 331.533 327.731 337.172V354.651C327.731 360.29 323.144 364.877 317.505 364.877V365.221C318.679 365.638 319.938 365.876 321.255 365.876H363.348C357.149 365.876 352.123 360.85 352.123 354.65Z" fill="#E8B800"/>
<path d="M362.855 66.4453L400.644 15.0823L390.513 1.07228C390.274 0.741754 389.96 0.472344 389.598 0.286007C389.235 0.0996696 388.833 0.00167859 388.426 2.13761e-05C388.018 -0.00163584 387.615 0.0930877 387.251 0.276471C386.887 0.459854 386.571 0.726706 386.33 1.05528L341.154 62.4583C339.896 64.1673 341.117 66.5813 343.239 66.5813H362.768C362.799 66.5353 362.823 66.4893 362.855 66.4453Z" fill="#0ED290"/>
<path d="M86.6807 231.225H109.222C109.908 231.225 110.567 231.498 111.052 231.983C111.538 232.469 111.811 233.127 111.811 233.814V349.032C122.622 344.201 134.332 341.708 146.174 341.714C148.113 341.714 150.031 341.803 151.939 341.932V233.813C151.939 233.126 152.211 232.468 152.697 231.982C153.183 231.497 153.841 231.224 154.528 231.224H176.26C178.373 231.224 179.596 228.83 178.358 227.118L133.955 165.715C133.716 165.385 133.402 165.116 133.039 164.929C132.677 164.743 132.275 164.645 131.868 164.644C131.46 164.642 131.058 164.737 130.693 164.92C130.329 165.103 130.013 165.37 129.772 165.698L84.5957 227.101C83.3377 228.811 84.5587 231.225 86.6807 231.225Z" fill="#FD5426"/>
<path d="M143.349 178.707L133.955 165.716C133.716 165.385 133.402 165.116 133.04 164.93C132.677 164.743 132.275 164.645 131.868 164.644C131.46 164.642 131.057 164.737 130.693 164.92C130.329 165.103 130.013 165.37 129.772 165.699L84.5957 227.102C83.3377 228.811 84.5587 231.225 86.6807 231.225H104.71L143.349 178.707Z" fill="#EF4424"/>
<path d="M214.961 146.16H237.502C238.189 146.16 238.847 146.433 239.333 146.919C239.818 147.404 240.091 148.063 240.091 148.749V326.962H280.218V148.749C280.218 148.063 280.491 147.404 280.976 146.919C281.462 146.433 282.12 146.16 282.807 146.16H304.539C306.652 146.16 307.875 143.766 306.637 142.054L262.234 80.6514C261.995 80.3209 261.681 80.0514 261.319 79.8651C260.956 79.6788 260.554 79.5808 260.147 79.5791C259.739 79.5775 259.337 79.6722 258.972 79.8556C258.608 80.039 258.292 80.3058 258.051 80.6344L212.875 142.037C211.618 143.746 212.839 146.16 214.961 146.16Z" fill="#01D0FB"/>
<path d="M271.546 93.5294L262.234 80.6524C261.995 80.3218 261.681 80.0524 261.318 79.8661C260.956 79.6798 260.554 79.5818 260.146 79.5801C259.739 79.5784 259.336 79.6732 258.972 79.8566C258.608 80.0399 258.292 80.3068 258.051 80.6354L212.875 142.038C211.617 143.747 212.838 146.161 214.96 146.161H232.823L271.546 93.5294Z" fill="#01C0FA"/>
<path d="M440.244 405.806H321.256C319.978 405.808 318.709 406.03 317.506 406.461V406.806C323.145 406.806 327.732 411.393 327.732 417.031V434.51C327.732 440.149 323.145 444.736 317.506 444.736V445.081C318.68 445.498 319.939 445.736 321.256 445.736H440.244C446.444 445.736 451.469 440.71 451.469 434.511V417.032C451.469 410.832 446.443 405.806 440.244 405.806Z" fill="#FAC600"/>
<path d="M352.123 394.58V377.101C352.123 370.901 357.149 365.876 363.348 365.876H321.255C319.977 365.879 318.708 366.1 317.505 366.531V366.876C323.144 366.876 327.731 371.463 327.731 377.101V394.58C327.731 400.219 323.144 404.806 317.505 404.806V405.15C318.679 405.567 319.938 405.805 321.255 405.805H363.348C357.149 405.805 352.123 400.78 352.123 394.58Z" fill="#FED402"/>
<path d="M352.123 434.511V417.032C352.123 410.832 357.149 405.807 363.348 405.807H321.255C319.977 405.809 318.708 406.031 317.505 406.462V406.807C323.144 406.807 327.731 411.394 327.731 417.032V434.511C327.731 440.15 323.144 444.737 317.505 444.737V445.082C318.679 445.499 319.938 445.737 321.255 445.737H363.348C357.149 445.736 352.123 440.711 352.123 434.511Z" fill="#E8B800"/>
<path d="M352.123 474.44V456.961C352.123 450.761 357.149 445.736 363.348 445.736H321.255C319.977 445.739 318.708 445.961 317.505 446.391V446.736C323.144 446.736 327.731 451.323 327.731 456.962V474.441C327.731 480.08 323.144 484.667 317.505 484.667V485.012C318.679 485.429 319.938 485.668 321.255 485.668H363.348C357.149 485.665 352.123 480.639 352.123 474.44Z" fill="#FED402"/>
<path d="M328.731 354.65V337.171C328.731 330.971 323.705 325.946 317.506 325.946H198.518C192.318 325.946 187.293 330.972 187.293 337.171V352.409C213.23 366.889 230.818 394.601 230.818 426.357C230.818 449.438 221.522 470.381 206.49 485.666H317.506C323.706 485.666 328.731 480.64 328.731 474.441V456.962C328.731 450.762 323.705 445.737 317.506 445.737C323.706 445.737 328.731 440.711 328.731 434.512V417.033C328.731 410.833 323.705 405.808 317.506 405.808C323.706 405.808 328.731 400.782 328.731 394.583V377.104C328.731 370.904 323.705 365.879 317.506 365.879C323.706 365.876 328.731 360.85 328.731 354.65Z" fill="#FAC600"/>
<path d="M352.123 314.721V297.242C352.123 291.042 357.149 286.017 363.348 286.017H321.255C315.055 286.017 310.03 291.043 310.03 297.242V314.721C310.03 320.921 315.056 325.946 321.255 325.946H363.348C357.149 325.947 352.123 320.921 352.123 314.721Z" fill="#FED402"/>
<path d="M321.256 286.016H440.244C446.444 286.016 451.469 280.99 451.469 274.791V257.312C451.469 251.112 446.443 246.087 440.244 246.087H321.256C315.056 246.087 310.031 251.113 310.031 257.312V274.791C310.03 280.99 315.056 286.016 321.256 286.016Z" fill="#FAC600"/>
<path d="M352.123 274.791V257.312C352.123 251.112 357.149 246.087 363.348 246.087H321.255C315.055 246.087 310.03 251.113 310.03 257.312V274.791C310.03 280.991 315.056 286.016 321.255 286.016H363.348C357.149 286.016 352.123 280.99 352.123 274.791Z" fill="#E8B800"/>
<path d="M352.123 234.861V217.382C352.123 211.182 357.149 206.157 363.348 206.157H321.255C315.055 206.157 310.03 211.183 310.03 217.382V234.861C310.03 241.061 315.056 246.086 321.255 246.086H363.348C357.149 246.086 352.123 241.06 352.123 234.861Z" fill="#FED402"/>
<path d="M317.506 445.735H228.553C224.948 461.063 217.178 474.796 206.489 485.665H317.505C323.705 485.665 328.73 480.639 328.73 474.44V456.961C328.731 450.761 323.706 445.735 317.506 445.735Z" fill="#E8B800"/>
<path d="M229.297 474.44V456.961C229.297 450.761 234.323 445.736 240.522 445.736H228.553C224.948 461.063 217.178 474.797 206.489 485.666H240.522C234.323 485.665 229.297 480.639 229.297 474.44Z" fill="#D7AA02"/>
<path d="M317.506 365.876H205.309C216.327 376.651 224.423 390.394 228.282 405.806H317.506C323.706 405.806 328.731 400.78 328.731 394.581V377.102C328.731 370.901 323.706 365.876 317.506 365.876Z" fill="#E8B800"/>
<path d="M229.297 394.58V377.101C229.297 370.901 234.323 365.876 240.522 365.876H205.308C216.326 376.651 224.422 390.394 228.281 405.806H240.521C234.323 405.805 229.297 400.78 229.297 394.58Z" fill="#D7AA02"/>
<path d="M229.297 354.65V337.171C229.297 330.971 234.323 325.946 240.522 325.946H198.518C192.318 325.946 187.293 330.972 187.293 337.171V352.409C193.868 356.081 199.926 360.61 205.309 365.876H240.523C234.323 365.876 229.297 360.85 229.297 354.65Z" fill="#E8B800"/>
<path d="M146.174 504.5C189.331 504.5 224.317 469.514 224.317 426.357C224.317 383.2 189.331 348.214 146.174 348.214C103.017 348.214 68.0308 383.2 68.0308 426.357C68.0308 469.514 103.017 504.5 146.174 504.5Z" fill="#FED402"/>
<path d="M100.381 426.357C100.381 388.746 126.955 357.351 162.349 349.9C157.03 348.779 151.609 348.214 146.174 348.214C103.017 348.214 68.0308 383.2 68.0308 426.357C68.0308 469.514 103.017 504.5 146.174 504.5C151.721 504.5 157.129 503.913 162.349 502.814C126.955 495.363 100.381 463.967 100.381 426.357Z" fill="#FAC600"/>
<path d="M146.174 512C98.9498 512 60.5308 473.58 60.5308 426.356C60.5308 379.132 98.9498 340.713 146.174 340.713C193.398 340.713 231.818 379.132 231.818 426.356C231.818 473.58 193.398 512 146.174 512ZM146.174 355.714C107.221 355.714 75.5308 387.404 75.5308 426.357C75.5308 465.31 107.221 497.001 146.174 497.001C185.127 497.001 216.818 465.311 216.818 426.357C216.818 387.404 185.127 355.714 146.174 355.714Z" fill="#FEDF30"/>
<path d="M154.541 418.856H137.808C133.596 418.856 130.169 415.429 130.169 411.216C130.169 407.004 133.596 403.577 137.808 403.577H167.29C171.432 403.577 174.79 400.22 174.79 396.077C174.79 391.934 171.432 388.577 167.29 388.577H153.674V380.539C153.674 376.396 150.316 373.039 146.174 373.039C142.032 373.039 138.674 376.396 138.674 380.539V388.577H137.807C125.324 388.577 115.168 398.732 115.168 411.216C115.168 423.7 125.324 433.856 137.807 433.856H154.54C158.752 433.856 162.18 437.283 162.18 441.496C162.18 445.709 158.753 449.136 154.54 449.136H125.058C120.916 449.136 117.558 452.493 117.558 456.636C117.558 460.779 120.916 464.136 125.058 464.136H138.673V472.174C138.673 476.317 142.031 479.674 146.173 479.674C150.315 479.674 153.673 476.317 153.673 472.174V464.136H154.54C167.023 464.136 177.18 453.98 177.18 441.496C177.18 429.012 167.024 418.856 154.541 418.856Z" fill="#E8B800"/>
</g>
<defs>
<clipPath id="clip0_21_52">
<rect width="512" height="512" fill="white"/>
</clipPath>
</defs>
</svg>
