<svg width="512" height="512" viewBox="0 0 512 512" fill="none" xmlns="http://www.w3.org/2000/svg">
<path d="M345.397 105.651H329.143V89.397C329.143 49.068 296.333 16.254 256 16.254C215.667 16.254 182.857 49.067 182.857 89.397V105.651H166.603V89.397C166.603 40.103 206.706 0 256 0C305.294 0 345.397 40.103 345.397 89.397V105.651Z" fill="#785550"/>
<path d="M20.3169 276.317V479.492C20.3169 497.445 34.8709 512 52.8249 512H459.174C477.128 512 491.682 497.445 491.682 479.492V276.317H20.3169Z" fill="#694B4B"/>
<path d="M117.841 365.714H394.158C433.007 365.714 467.834 348.5 491.682 321.402V276.317H20.3169V479.492C20.3169 497.446 34.8709 512 52.8249 512H459.174C477.128 512 491.682 497.445 491.682 479.492H142.222C106.315 479.492 77.2059 450.383 77.2059 414.476V379.833C77.2059 369.802 86.1949 362.154 96.0799 363.855C103.267 365.093 110.548 365.715 117.841 365.714Z" fill="#5A4146"/>
<path d="M394.159 349.46H117.841C55.003 349.46 4.06299 298.52 4.06299 235.682V138.158C4.06299 129.181 11.34 121.904 20.317 121.904H491.682C500.659 121.904 507.936 129.181 507.936 138.158V235.682C507.936 298.52 456.996 349.46 394.159 349.46Z" fill="#785550"/>
<path d="M182.857 89.3975H166.603C165.536 89.3973 164.479 89.6074 163.493 90.0158C162.507 90.4242 161.611 91.0228 160.856 91.7775C160.101 92.5322 159.503 93.4282 159.094 94.4142C158.686 95.4003 158.476 96.4572 158.476 97.5245V121.905H190.984V97.5245C190.984 96.4572 190.774 95.4003 190.366 94.4142C189.957 93.4282 189.359 92.5322 188.604 91.7775C187.849 91.0228 186.953 90.4242 185.967 90.0158C184.981 89.6074 183.924 89.3973 182.857 89.3975ZM345.397 89.3975H329.143C328.076 89.3973 327.019 89.6074 326.033 90.0158C325.047 90.4242 324.151 91.0228 323.396 91.7775C322.641 92.5322 322.043 93.4282 321.634 94.4142C321.226 95.4003 321.016 96.4572 321.016 97.5245V121.905H353.524V97.5245C353.524 95.369 352.668 93.3019 351.144 91.7778C349.62 90.2537 347.552 89.3975 345.397 89.3975Z" fill="#5A4146"/>
<path d="M410.413 186.921H93.4598C66.5298 186.921 44.6978 165.09 44.6978 138.159V121.905H459.174V138.159C459.175 165.089 437.343 186.921 410.413 186.921Z" fill="#8C5F5F"/>
<path d="M365.714 390.095H357.587C355.432 390.095 353.365 389.239 351.841 387.715C350.317 386.191 349.46 384.124 349.46 381.968V300.698C349.46 298.543 350.317 296.476 351.841 294.952C353.365 293.428 355.432 292.572 357.587 292.571H365.714C367.869 292.572 369.936 293.428 371.46 294.952C372.984 296.476 373.841 298.543 373.841 300.698V381.968C373.841 383.036 373.631 384.092 373.223 385.078C372.814 386.065 372.216 386.961 371.461 387.715C370.706 388.47 369.81 389.069 368.824 389.477C367.838 389.885 366.781 390.095 365.714 390.095Z" fill="#5A4146"/>
<path d="M377.905 373.841H345.397C336.42 373.841 329.143 366.564 329.143 357.587V345.397H394.159V357.587C394.159 366.564 386.882 373.841 377.905 373.841Z" fill="#E1A546"/>
<path d="M381.968 357.587H341.333C334.6 357.587 329.143 352.129 329.143 345.397C329.143 338.664 334.601 333.207 341.333 333.207H381.968C388.701 333.207 394.158 338.665 394.158 345.397C394.159 352.129 388.701 357.587 381.968 357.587Z" fill="#FFC850"/>
<path d="M154.413 390.095H146.286C144.131 390.095 142.064 389.239 140.54 387.715C139.016 386.191 138.159 384.124 138.159 381.968V300.698C138.159 298.543 139.016 296.476 140.54 294.952C142.064 293.428 144.131 292.572 146.286 292.571H154.413C156.569 292.572 158.635 293.428 160.16 294.952C161.684 296.476 162.54 298.543 162.54 300.698V381.968C162.54 383.036 162.33 384.092 161.922 385.078C161.513 386.064 160.914 386.96 160.16 387.715C159.405 388.47 158.509 389.068 157.523 389.477C156.537 389.885 155.48 390.095 154.413 390.095Z" fill="#5A4146"/>
<path d="M166.603 373.841H134.095C125.118 373.841 117.841 366.564 117.841 357.587V345.397H182.857V357.587C182.857 366.564 175.581 373.841 166.603 373.841Z" fill="#E1A546"/>
<path d="M170.668 357.587H130.033C123.3 357.587 117.843 352.129 117.843 345.397C117.843 338.664 123.301 333.207 130.033 333.207H170.668C177.401 333.207 182.858 338.665 182.858 345.397C182.857 352.129 177.4 357.587 170.668 357.587Z" fill="#FFC850"/>
</svg>
