<svg width="512" height="512" viewBox="0 0 512 512" fill="none" xmlns="http://www.w3.org/2000/svg">
<g clip-path="url(#clip0_20_16)">
<path d="M422.331 504.389H65.0649C59.5419 504.389 55.0649 499.912 55.0649 494.389V10C55.0649 4.477 59.5419 0 65.0649 0H422.331C427.854 0 432.331 4.477 432.331 10V494.389C432.331 499.911 427.854 504.389 422.331 504.389Z" fill="#EAEAEA"/>
<path d="M411.827 0V504.389H422.182C427.787 504.389 432.331 499.845 432.331 494.24V10.149C432.331 4.544 427.787 0 422.182 0H411.827Z" fill="#CBCBCB"/>
<path d="M508.194 452.104V97.2887C508.194 91.6837 503.65 87.1396 498.045 87.1396H469.134C463.529 87.1396 458.985 91.6837 458.985 97.2887V452.104C458.985 461.415 462.154 470.45 467.971 477.721L483.589 497.244L499.207 477.721C505.025 470.45 508.195 461.415 508.194 452.104Z" fill="#818181"/>
<path d="M489.741 87.1396V452.103C489.741 461.415 486.572 470.449 480.755 477.721L474.363 485.711L475.978 487.73V504.07C475.978 508.238 479.19 511.872 483.356 511.997C484.375 512.028 485.39 511.855 486.34 511.486C487.291 511.118 488.157 510.563 488.889 509.853C489.621 509.144 490.203 508.294 490.6 507.356C490.997 506.417 491.201 505.408 491.201 504.389V487.73L499.208 477.721C505.025 470.45 508.194 461.415 508.194 452.104V97.2887C508.194 91.6837 503.65 87.1396 498.045 87.1396H489.741Z" fill="#595959"/>
<path d="M458.986 134.299H508.195V175.306H458.986V134.299Z" fill="#FCDD2E"/>
<path d="M489.741 134.299H508.194V175.306H489.741V134.299Z" fill="#E6B700"/>
<path d="M155.784 504.389H13.8062C8.28315 504.389 3.80615 499.912 3.80615 494.389V463.13C3.80615 457.607 8.28315 453.13 13.8062 453.13H165.784V494.389C165.784 499.911 161.307 504.389 155.784 504.389ZM165.784 453.13H13.8062C8.28315 453.13 3.80615 448.653 3.80615 443.13V411.871C3.80615 406.348 8.28315 401.871 13.8062 401.871H165.784V453.13ZM165.784 401.871H13.8062C8.28315 401.871 3.80615 397.394 3.80615 391.871V360.612C3.80615 355.089 8.28315 350.612 13.8062 350.612H165.784V401.871Z" fill="#FCDD2E"/>
<path d="M165.784 350.612H13.8062C8.28315 350.612 3.80615 346.135 3.80615 340.612V309.353C3.80615 303.83 8.28315 299.353 13.8062 299.353H165.784V350.612Z" fill="#FCDD2E"/>
<path d="M78.644 395.5C78.644 441.412 102.919 481.755 139.304 504.388H155.636C161.241 504.388 165.785 499.844 165.785 494.239V299.352H122.172C95.501 322.853 78.644 357.243 78.644 395.5Z" fill="#E6B700"/>
<path d="M13.9542 504.389H155.635C161.24 504.389 165.784 499.845 165.784 494.24V483.885H3.80615V494.24C3.80615 499.845 8.34915 504.389 13.9542 504.389ZM13.9542 453.13H165.784V432.626H3.80615V442.981C3.80615 448.586 8.34915 453.13 13.9542 453.13ZM13.9542 401.871H165.784V381.367H3.80615V391.722C3.80615 397.327 8.34915 401.871 13.9542 401.871ZM13.9542 350.612H165.784V330.108H3.80615V340.463C3.80615 346.068 8.34915 350.612 13.9542 350.612Z" fill="#E6B700"/>
<path d="M206.791 504.389C266.241 504.389 314.435 456.195 314.435 396.745C314.435 337.294 266.241 289.101 206.791 289.101C147.341 289.101 99.147 337.294 99.147 396.745C99.147 456.195 147.341 504.389 206.791 504.389Z" fill="#FCE25C"/>
<path d="M275.215 313.643C290.547 332.243 299.757 356.079 299.757 382.066C299.757 441.516 251.563 489.71 192.113 489.71C166.126 489.71 142.29 480.501 123.69 465.168C143.433 489.119 173.329 504.389 206.792 504.389C266.242 504.389 314.436 456.195 314.436 396.745C314.435 363.282 299.166 333.386 275.215 313.643Z" fill="#E6B700"/>
<path d="M206.791 468.508C246.425 468.508 278.554 436.379 278.554 396.745C278.554 357.112 246.425 324.982 206.791 324.982C167.158 324.982 135.028 357.112 135.028 396.745C135.028 436.379 167.158 468.508 206.791 468.508Z" fill="#E6B700"/>
<path d="M401.576 140.015H85.82C84.8204 140.015 83.8306 140.211 82.9071 140.594C81.9836 140.976 81.1444 141.537 80.4376 142.243C79.7307 142.95 79.17 143.789 78.7875 144.713C78.4049 145.636 78.208 146.626 78.208 147.626V178.381C78.208 179.38 78.4049 180.37 78.7875 181.293C79.17 182.217 79.7307 183.056 80.4376 183.763C81.1444 184.47 81.9836 185.03 82.9071 185.413C83.8306 185.795 84.8204 185.992 85.82 185.992H401.576C402.576 185.992 403.565 185.795 404.489 185.413C405.412 185.03 406.252 184.47 406.958 183.763C407.665 183.056 408.226 182.217 408.609 181.293C408.991 180.37 409.188 179.38 409.188 178.381V147.626C409.188 145.607 408.386 143.671 406.958 142.244C405.531 140.816 403.595 140.015 401.576 140.015Z" fill="#FB636F"/>
<path d="M286.827 28.432C286.336 26.8954 285.369 25.5547 284.066 24.6035C282.763 23.6522 281.192 23.1396 279.578 23.1396C277.965 23.1396 276.394 23.6522 275.091 24.6035C273.788 25.5547 272.821 26.8954 272.33 28.432L246.701 108.396C246.126 110.307 246.324 112.367 247.253 114.134C248.181 115.9 249.767 117.231 251.667 117.84C253.567 118.449 255.631 118.288 257.413 117.391C259.196 116.493 260.555 114.932 261.198 113.043L268.374 90.652H290.783L297.96 113.043C299.243 117.047 303.533 119.246 307.532 117.969C309.454 117.352 311.053 115.998 311.977 114.203C312.9 112.408 313.074 110.32 312.458 108.397L286.827 28.432ZM273.254 75.428L279.579 55.693L285.905 75.428H273.254ZM155.532 103.108H111.885V30.755C111.885 28.7364 111.083 26.8005 109.656 25.3732C108.228 23.9458 106.293 23.144 104.274 23.144C102.255 23.144 100.32 23.9458 98.8922 25.3732C97.4649 26.8005 96.663 28.7364 96.663 30.755V110.719C96.6629 111.718 96.8596 112.708 97.2421 113.632C97.6245 114.555 98.1851 115.394 98.8919 116.101C99.5987 116.808 100.438 117.368 101.361 117.751C102.285 118.133 103.274 118.33 104.274 118.33H155.533C156.532 118.33 157.522 118.133 158.446 117.75C159.369 117.368 160.208 116.807 160.915 116.1C161.621 115.394 162.182 114.555 162.564 113.631C162.947 112.708 163.144 111.718 163.143 110.718C163.143 109.719 162.946 108.729 162.564 107.806C162.181 106.883 161.621 106.044 160.914 105.337C160.207 104.63 159.368 104.07 158.445 103.687C157.521 103.305 156.531 103.108 155.532 103.108ZM207.817 23.144C189.487 23.144 174.576 38.056 174.576 56.385V85.09C174.576 103.419 189.488 118.331 207.817 118.331C226.146 118.331 241.058 103.419 241.058 85.09V56.385C241.057 38.056 226.146 23.144 207.817 23.144ZM225.834 85.09C225.834 95.025 217.751 103.108 207.816 103.108C197.88 103.108 189.798 95.025 189.798 85.09V56.385C189.798 46.45 197.881 38.367 207.816 38.367C217.751 38.367 225.834 46.45 225.834 56.385V85.09ZM383.122 23.144C382.122 23.1438 381.133 23.3406 380.209 23.723C379.286 24.1055 378.446 24.6661 377.74 25.3728C377.033 26.0796 376.472 26.9187 376.089 27.8421C375.707 28.7656 375.51 29.7554 375.51 30.755V84.741L338.271 26.647C337.384 25.2605 336.071 24.199 334.529 23.6219C332.988 23.0447 331.301 22.9829 329.721 23.4457C328.142 23.9086 326.755 24.8711 325.768 26.189C324.782 27.5068 324.25 29.1089 324.251 30.755V110.719C324.251 114.923 327.658 118.33 331.862 118.33C336.066 118.33 339.474 114.923 339.474 110.719V56.733L376.713 114.827C377.601 116.212 378.914 117.271 380.455 117.848C381.996 118.424 383.682 118.485 385.261 118.023C386.84 117.561 388.227 116.599 389.213 115.282C390.2 113.965 390.733 112.364 390.733 110.719V30.755C390.733 29.7554 390.536 28.7657 390.154 27.8422C389.771 26.9187 389.211 26.0797 388.504 25.3729C387.797 24.6661 386.958 24.1055 386.035 23.7231C385.111 23.3406 384.122 23.1438 383.122 23.144ZM187.313 222.899H85.82C83.8014 222.899 81.8655 222.097 80.4382 220.67C79.0109 219.242 78.209 217.307 78.209 215.288C78.209 213.269 79.0109 211.334 80.4382 209.906C81.8655 208.479 83.8014 207.677 85.82 207.677H187.313C191.517 207.677 194.924 211.084 194.924 215.288C194.924 219.492 191.517 222.899 187.313 222.899ZM147.331 253.655H85.82C83.8014 253.655 81.8655 252.853 80.4382 251.426C79.0109 249.998 78.209 248.063 78.209 246.044C78.209 244.025 79.0109 242.09 80.4382 240.662C81.8655 239.235 83.8014 238.433 85.82 238.433H147.331C151.535 238.433 154.942 241.84 154.942 246.044C154.942 250.248 151.535 253.655 147.331 253.655ZM401.576 222.899H340.065C338.046 222.899 336.111 222.097 334.683 220.67C333.256 219.242 332.454 217.307 332.454 215.288C332.454 213.269 333.256 211.334 334.683 209.906C336.111 208.479 338.046 207.677 340.065 207.677H401.576C403.595 207.677 405.53 208.479 406.958 209.906C408.385 211.334 409.187 213.269 409.187 215.288C409.187 217.307 408.385 219.242 406.958 220.67C405.53 222.097 403.595 222.899 401.576 222.899ZM401.576 294.662H340.065C335.861 294.662 332.453 291.255 332.453 287.05C332.453 282.845 335.86 279.439 340.065 279.439H401.576C403.595 279.439 405.531 280.241 406.958 281.668C408.386 283.096 409.188 285.032 409.188 287.05C409.188 289.069 408.386 291.005 406.958 292.433C405.531 293.86 403.595 294.662 401.576 294.662ZM377.996 453.565C375.977 453.565 374.041 452.763 372.613 451.335L354.417 433.138L336.221 451.335C334.787 452.731 332.861 453.506 330.861 453.492C328.86 453.479 326.945 452.678 325.53 451.263C324.115 449.849 323.314 447.934 323.3 445.933C323.286 443.932 324.061 442.006 325.456 440.572L349.035 416.992C349.742 416.285 350.581 415.724 351.505 415.342C352.428 414.959 353.418 414.762 354.418 414.762C355.418 414.762 356.408 414.959 357.331 415.342C358.255 415.724 359.094 416.285 359.801 416.992L377.997 435.189L396.194 416.991C397.629 415.601 399.553 414.832 401.551 414.848C403.549 414.864 405.46 415.665 406.873 417.077C408.285 418.49 409.086 420.401 409.102 422.399C409.118 424.397 408.349 426.321 406.959 427.756L383.379 451.336C381.951 452.763 380.015 453.565 377.996 453.565Z" fill="#818181"/>
<path d="M483.59 293.636C482.59 293.637 481.601 293.44 480.677 293.057C479.754 292.675 478.915 292.114 478.208 291.407C477.501 290.701 476.941 289.862 476.558 288.938C476.176 288.015 475.979 287.025 475.979 286.025V154.802C475.979 150.598 479.386 147.191 483.59 147.191C487.794 147.191 491.202 150.598 491.202 154.802V286.025C491.202 288.044 490.4 289.98 488.972 291.407C487.545 292.835 485.609 293.636 483.59 293.636Z" fill="#434343"/>
<path d="M93.5863 453.13V473.633C93.5748 474.639 93.7631 475.639 94.1404 476.572C94.5178 477.506 95.0766 478.355 95.7845 479.071C96.4925 479.787 97.3355 480.356 98.2647 480.744C99.1939 481.132 100.191 481.332 101.198 481.332C102.205 481.332 103.202 481.132 104.131 480.744C105.06 480.356 105.903 479.787 106.611 479.071C107.319 478.355 107.878 477.506 108.255 476.572C108.632 475.639 108.821 474.639 108.809 473.633V453.13H93.5863ZM59.7553 453.13V473.633C59.7389 474.642 59.9237 475.645 60.2988 476.583C60.674 477.521 61.232 478.375 61.9403 479.095C62.6487 479.815 63.4933 480.386 64.4248 480.777C65.3564 481.167 66.3563 481.368 67.3663 481.368C68.3763 481.368 69.3762 481.167 70.3078 480.777C71.2393 480.386 72.0839 479.815 72.7922 479.095C73.5006 478.375 74.0586 477.521 74.4338 476.583C74.8089 475.645 74.9937 474.642 74.9773 473.633V453.13H59.7553ZM33.5363 481.245C34.5359 481.245 35.5258 481.048 36.4493 480.665C37.3728 480.283 38.2119 479.722 38.9187 479.015C39.6255 478.308 40.1861 477.469 40.5685 476.546C40.9509 475.622 41.1476 474.632 41.1473 473.633V453.13H25.9253V473.633C25.9253 475.651 26.7271 477.587 28.1544 479.015C29.5818 480.442 31.5176 481.244 33.5363 481.245ZM33.5363 429.985C34.5359 429.985 35.5258 429.788 36.4493 429.405C37.3728 429.023 38.2119 428.462 38.9187 427.755C39.6255 427.048 40.1861 426.209 40.5685 425.286C40.9509 424.362 41.1476 423.372 41.1473 422.373V401.87H25.9253V422.373C25.9252 423.372 26.1219 424.362 26.5044 425.285C26.8868 426.209 27.4474 427.048 28.1542 427.755C28.8609 428.462 29.7 429.023 30.6235 429.405C31.5469 429.788 32.5367 429.985 33.5363 429.985ZM59.7553 401.87V422.373C59.7389 423.382 59.9237 424.385 60.2988 425.323C60.674 426.261 61.232 427.115 61.9403 427.835C62.6487 428.555 63.4933 429.126 64.4248 429.517C65.3564 429.907 66.3563 430.108 67.3663 430.108C68.3763 430.108 69.3762 429.907 70.3078 429.517C71.2393 429.126 72.0839 428.555 72.7922 427.835C73.5006 427.115 74.0586 426.261 74.4338 425.323C74.8089 424.385 74.9937 423.382 74.9773 422.373V401.87H59.7553ZM67.3673 378.726C68.3669 378.726 69.3568 378.529 70.2803 378.146C71.2038 377.764 72.0429 377.203 72.7497 376.496C73.4565 375.789 74.0171 374.95 74.3995 374.027C74.7819 373.103 74.9786 372.113 74.9783 371.114V350.611H59.7553V371.114C59.7552 372.113 59.952 373.103 60.3345 374.027C60.7169 374.95 61.2776 375.789 61.9845 376.496C62.6914 377.203 63.5306 377.764 64.4542 378.146C65.3777 378.529 66.3676 378.726 67.3673 378.726ZM33.5363 378.726C34.5359 378.726 35.5258 378.529 36.4493 378.146C37.3728 377.764 38.2119 377.203 38.9187 376.496C39.6255 375.789 40.1861 374.95 40.5685 374.027C40.9509 373.103 41.1476 372.113 41.1473 371.114V350.611H25.9253V371.114C25.9252 372.113 26.1219 373.103 26.5044 374.026C26.8868 374.95 27.4474 375.789 28.1542 376.496C28.8609 377.203 29.7 377.764 30.6235 378.146C31.5469 378.529 32.5367 378.726 33.5363 378.726ZM93.5863 299.353V319.856C93.5748 320.862 93.7631 321.862 94.1404 322.795C94.5178 323.729 95.0766 324.578 95.7845 325.294C96.4925 326.01 97.3355 326.579 98.2647 326.967C99.1939 327.355 100.191 327.555 101.198 327.555C102.205 327.555 103.202 327.355 104.131 326.967C105.06 326.579 105.903 326.01 106.611 325.294C107.319 324.578 107.878 323.729 108.255 322.795C108.632 321.862 108.821 320.862 108.809 319.856V299.353H93.5863ZM33.5363 327.468C34.5359 327.468 35.5258 327.271 36.4493 326.888C37.3728 326.506 38.2119 325.945 38.9187 325.238C39.6255 324.531 40.1861 323.692 40.5685 322.769C40.9509 321.845 41.1476 320.855 41.1473 319.856V299.353H25.9253V319.856C25.9253 321.874 26.7271 323.81 28.1544 325.238C29.5818 326.665 31.5176 327.467 33.5363 327.468ZM59.7553 299.353V319.856C59.7389 320.865 59.9237 321.868 60.2988 322.806C60.674 323.744 61.232 324.598 61.9403 325.318C62.6487 326.038 63.4933 326.609 64.4248 327C65.3564 327.39 66.3563 327.591 67.3663 327.591C68.3763 327.591 69.3762 327.39 70.3078 327C71.2393 326.609 72.0839 326.038 72.7922 325.318C73.5006 324.598 74.0586 323.744 74.4338 322.806C74.8089 321.868 74.9937 320.865 74.9773 319.856V299.353H59.7553Z" fill="#E6B700"/>
<path d="M211.917 389.133H201.665C197.383 389.133 193.899 385.649 193.899 381.367C193.899 377.085 197.383 373.601 201.665 373.601H227.294C229.298 373.578 231.212 372.766 232.62 371.341C234.029 369.916 234.819 367.994 234.819 365.99C234.819 363.986 234.029 362.063 232.62 360.638C231.212 359.213 229.298 358.401 227.294 358.378H214.402V350.612C214.419 349.602 214.234 348.599 213.859 347.662C213.484 346.724 212.926 345.87 212.217 345.15C211.509 344.43 210.664 343.859 209.733 343.468C208.801 343.078 207.801 342.877 206.791 342.877C205.781 342.877 204.781 343.078 203.85 343.468C202.918 343.859 202.074 344.43 201.365 345.15C200.657 345.87 200.099 346.724 199.724 347.662C199.349 348.599 199.164 349.602 199.18 350.612V358.515C187.669 359.759 178.677 369.532 178.677 381.368C178.677 394.044 188.99 404.357 201.666 404.357H211.918C216.2 404.357 219.684 407.841 219.684 412.123C219.684 416.405 216.2 419.89 211.918 419.89H186.289C184.286 419.913 182.372 420.725 180.963 422.15C179.555 423.575 178.764 425.498 178.764 427.502C178.764 429.506 179.555 431.428 180.963 432.853C182.372 434.278 184.286 435.09 186.289 435.113H199.181V442.879C199.181 443.879 199.378 444.869 199.761 445.792C200.143 446.715 200.704 447.554 201.41 448.261C202.117 448.968 202.956 449.528 203.88 449.911C204.803 450.293 205.793 450.49 206.792 450.49C207.792 450.49 208.781 450.293 209.705 449.911C210.628 449.528 211.467 448.968 212.174 448.261C212.881 447.554 213.441 446.715 213.824 445.792C214.206 444.869 214.403 443.879 214.403 442.879V434.976C225.914 433.732 234.906 423.959 234.906 412.122C234.906 399.446 224.594 389.133 211.917 389.133Z" fill="#FCE25C"/>
</g>
<defs>
<clipPath id="clip0_20_16">
<rect width="512" height="512" fill="white"/>
</clipPath>
</defs>
</svg>
