<svg width="512" height="512" viewBox="0 0 512 512" fill="none" xmlns="http://www.w3.org/2000/svg">
<g clip-path="url(#clip0_25_109)">
<path d="M257.148 219.332L316.187 358.176L257.148 486.053C248.413 486.053 239.679 487.633 231.378 490.803C220.148 495.079 207.903 497.303 195.093 496.991C144.711 495.753 103.587 454.729 102.238 404.348C101.393 372.46 116.215 344.004 139.56 326.113C151.986 316.584 161.254 303.372 165.56 288.319C176.971 248.493 213.648 219.332 257.148 219.332Z" fill="#99503D"/>
<path d="M412.047 404.348C410.698 454.729 369.584 495.753 319.192 496.991C306.382 497.303 294.136 495.079 282.907 490.803C274.682 487.661 265.952 486.051 257.147 486.053V219.332C300.647 219.332 337.324 248.493 348.724 288.319C353.041 303.372 362.299 316.584 374.725 326.113C398.07 344.004 412.902 372.46 412.047 404.348Z" fill="#813602"/>
<path d="M54.5206 294.208C84.6314 294.208 109.041 262.971 109.041 224.438C109.041 185.905 84.6314 154.668 54.5206 154.668C24.4097 154.668 0 185.905 0 224.438C0 262.971 24.4097 294.208 54.5206 294.208Z" fill="#99503D"/>
<path d="M457.48 294.208C487.59 294.208 512 262.971 512 224.438C512 185.905 487.59 154.668 457.48 154.668C427.369 154.668 402.959 185.905 402.959 224.438C402.959 262.971 427.369 294.208 457.48 294.208Z" fill="#813602"/>
<path d="M167.681 154.52C197.792 154.52 222.201 123.283 222.201 84.7504C222.201 46.2175 197.792 14.9805 167.681 14.9805C137.57 14.9805 113.16 46.2175 113.16 84.7504C113.16 123.283 137.57 154.52 167.681 154.52Z" fill="#99503D"/>
<path d="M348.175 154.52C378.286 154.52 402.695 123.283 402.695 84.7504C402.695 46.2175 378.286 14.9805 348.175 14.9805C318.064 14.9805 293.654 46.2175 293.654 84.7504C293.654 123.283 318.064 154.52 348.175 154.52Z" fill="#813602"/>
</g>
<defs>
<clipPath id="clip0_25_109">
<rect width="512" height="512" fill="white"/>
</clipPath>
</defs>
</svg>
