<svg width="512" height="512" viewBox="0 0 512 512" fill="none" xmlns="http://www.w3.org/2000/svg">
<g clip-path="url(#clip0_21_95)">
<path d="M432.541 157.22L247.666 34.2393L62.791 157.22V474.205H432.625V157.22H432.541Z" fill="#E1EFFB"/>
<path d="M432.542 157.22L247.667 34.2393L209.724 59.4803L386.304 176.942H386.387V474.206H432.626V157.22H432.542Z" fill="#CCDFED"/>
<path d="M28.2183 206.6L244.583 62.6715C245.509 62.0553 246.597 61.7265 247.709 61.7265C248.821 61.7265 249.908 62.0553 250.834 62.6715L467.198 206.599C470.178 208.581 473.677 209.638 477.256 209.638C480.835 209.638 484.334 208.581 487.314 206.599C498.117 199.413 498.117 183.545 487.314 176.359L250.834 19.0495C249.908 18.4333 248.821 18.1045 247.709 18.1045C246.597 18.1045 245.509 18.4333 244.583 19.0495L8.10225 176.359C-2.70075 183.545 -2.70075 199.413 8.10225 206.599C11.0819 208.581 14.5811 209.639 18.1601 209.639C21.7391 209.639 25.2384 208.582 28.2183 206.6Z" fill="#FF4C4C"/>
<path d="M247.71 190.315C269.782 190.315 287.674 172.422 287.674 150.351C287.674 128.279 269.782 110.387 247.71 110.387C225.639 110.387 207.746 128.279 207.746 150.351C207.746 172.422 225.639 190.315 247.71 190.315Z" fill="#FFB125"/>
<path d="M287.672 150.354C287.672 147.764 287.417 145.234 286.946 142.781H255.249V111.11C252.806 110.643 250.287 110.39 247.708 110.39C245.129 110.39 242.61 110.644 240.167 111.11V142.781H208.47C207.989 145.276 207.746 147.812 207.744 150.354C207.744 152.922 207.996 155.43 208.459 157.863H240.168V189.598C242.611 190.065 245.13 190.318 247.709 190.318C250.288 190.318 252.807 190.064 255.25 189.598V157.863H286.959C287.431 155.387 287.67 152.873 287.672 150.354Z" fill="#FF901D"/>
<path d="M183.891 301.351H311.521V493.891H183.891V301.351Z" fill="#FFB125"/>
<path d="M247.71 301.351H311.526V493.891H247.71V301.351Z" fill="#FF901D"/>
<path d="M469.067 463.474H26.3506C17.9496 463.474 11.1396 470.284 11.1396 478.685C11.1396 487.086 17.9496 493.896 26.3506 493.896H469.067C477.468 493.896 484.278 487.086 484.278 478.685C484.278 470.284 477.468 463.474 469.067 463.474Z" fill="#2D5871"/>
<path d="M494.357 197.559C494.475 197.225 494.594 196.892 494.692 196.553C494.747 196.363 494.786 196.17 494.834 195.979C494.92 195.638 495.011 195.299 495.077 194.955C495.114 194.764 495.135 194.57 495.163 194.378C495.229 193.934 495.298 193.49 495.329 193.042C495.36 192.599 495.401 192.156 495.406 191.712C495.408 191.525 495.394 191.34 495.39 191.153C495.388 190.781 495.374 190.409 495.348 190.037C495.334 189.856 495.305 189.676 495.286 189.495C495.248 189.119 495.199 188.743 495.139 188.369C495.109 188.196 495.068 188.026 495.034 187.853C494.961 187.473 494.875 187.096 494.776 186.721C494.732 186.557 494.679 186.395 494.63 186.231C494.519 185.853 494.395 185.478 494.259 185.107C494.201 184.951 494.137 184.798 494.074 184.643C493.868 184.116 493.631 183.601 493.366 183.101C493.178 182.738 492.978 182.381 492.764 182.029C492.721 181.959 492.688 181.885 492.644 181.816L492.636 181.827C491.272 179.645 489.456 177.78 487.311 176.357L463.684 160.64L461.038 164.703C456.414 171.803 446.886 173.767 439.831 169.074L250.834 43.3503C249.908 42.7341 248.821 42.4053 247.709 42.4053C246.597 42.4053 245.509 42.7341 244.583 43.3503L28.2182 187.278C25.2383 189.261 21.7392 190.318 18.1602 190.318C14.5813 190.318 11.0821 189.261 8.10223 187.278C5.95662 185.858 4.13853 183.997 2.76923 181.818C-2.22977 189.781 -0.450773 200.927 8.12323 206.613C14.3072 210.715 22.4232 210.453 28.6012 206.343L244.583 62.6713C245.509 62.0551 246.597 61.7263 247.709 61.7263C248.821 61.7263 249.908 62.0551 250.834 62.6713L467.198 206.598C470.178 208.581 473.677 209.638 477.256 209.638C480.835 209.638 484.334 208.581 487.314 206.598C487.782 206.287 488.221 205.954 488.648 205.611C488.797 205.492 488.94 205.369 489.084 205.247C489.355 205.014 489.617 204.775 489.87 204.531C490.023 204.384 490.181 204.24 490.328 204.089C490.634 203.773 490.927 203.449 491.205 203.117L491.221 203.093C492.123 202.013 492.894 200.83 493.517 199.568L493.556 199.508C493.623 199.372 493.674 199.23 493.737 199.092C493.885 198.77 494.033 198.449 494.16 198.12C494.232 197.934 494.291 197.746 494.357 197.559Z" fill="#F33939"/>
<path d="M484.179 476.997C484.166 476.885 484.144 476.777 484.128 476.666C484.067 476.208 483.99 475.756 483.889 475.312C483.871 475.233 483.848 475.157 483.829 475.078C483.712 474.595 483.571 474.118 483.406 473.65L483.373 473.56C483.19 473.051 482.981 472.552 482.746 472.066V472.065C480.283 466.985 475.092 463.473 469.067 463.473H438.039V470.262C438.039 476.003 433.385 480.657 427.644 480.657H26.3507C20.3257 480.657 15.1347 477.145 12.6717 472.065C11.3825 474.705 10.8911 477.664 11.2577 480.579C12.2157 488.266 19.0117 493.895 26.7587 493.895H469.067C477.468 493.895 484.278 487.085 484.278 478.684C484.278 478.114 484.241 477.552 484.179 476.997Z" fill="#1D4859"/>
<path d="M345.827 493.895H305.149V209.789C305.149 198.556 314.255 189.45 325.488 189.45C336.721 189.45 345.827 198.556 345.827 209.789V493.895Z" fill="#FF6D3A"/>
<path d="M325.488 189.45C321.916 189.45 318.407 190.397 315.319 192.193C321.392 195.711 325.488 202.265 325.488 209.789V493.895H345.827V209.789C345.827 198.557 336.72 189.45 325.488 189.45Z" fill="#ED5729"/>
<path d="M499.224 393.056H151.753C144.696 393.056 138.976 387.336 138.976 380.279V247.559C138.976 240.502 144.696 234.782 151.753 234.782H499.224C506.281 234.782 512.001 240.502 512.001 247.559V380.279C512.001 387.335 506.281 393.056 499.224 393.056Z" fill="#61AFF6"/>
<path d="M499.224 234.781H465.762V360.84C465.762 367.897 460.042 373.617 452.985 373.617H138.976V380.279C138.976 387.336 144.697 393.056 151.753 393.056H499.224C506.281 393.056 512.001 387.335 512.001 380.279V247.559C512.001 240.502 506.281 234.781 499.224 234.781Z" fill="#55A2F0"/>
<path d="M240.18 318.634C248.375 316.121 254.494 309.346 254.494 296.78C254.494 279.407 242.912 273.944 228.598 273.944H206.964C204.232 273.944 202.375 276.021 202.375 278.314V349.337C202.375 352.288 205.981 353.817 209.477 353.817C213.082 353.817 216.579 352.287 216.579 349.337V320.818H225.758L241.274 350.976C242.367 353.162 244.225 354.364 246.191 354.364C250.342 354.364 255.041 350.54 255.041 346.934C255.041 346.497 254.932 345.731 254.495 345.185L240.18 318.634ZM228.597 309.675H216.578V286.401H228.597C235.7 286.401 240.288 289.461 240.288 298.092C240.289 306.725 235.7 309.675 228.597 309.675ZM311.962 286.401C314.803 286.401 316.442 283.45 316.442 280.063C316.442 277.113 315.021 273.945 311.962 273.945H273.063C269.894 273.945 266.835 275.475 266.835 278.425V349.338C266.835 352.289 269.895 353.818 273.063 353.818H311.962C315.022 353.818 316.442 350.648 316.442 347.699C316.442 344.311 314.802 341.362 311.962 341.362H281.039V319.399H297.648C300.708 319.399 302.128 316.449 302.128 313.936C302.128 310.986 300.488 308.254 297.648 308.254H281.039V286.401H311.962ZM372.82 273.945C369.214 273.945 365.718 275.256 365.718 278.315V322.24L344.629 281.485C341.242 275.038 339.166 273.945 334.03 273.945C330.425 273.945 326.928 275.366 326.928 278.425V349.338C326.928 352.289 330.425 353.818 334.03 353.818C337.527 353.818 341.132 352.288 341.132 349.338V305.413L364.625 349.338C366.483 352.725 369.432 353.818 372.82 353.818C376.317 353.818 379.922 352.288 379.922 349.338V278.315C379.922 275.255 376.316 273.945 372.82 273.945ZM440.668 273.945H394.448C391.388 273.945 389.968 277.224 389.968 280.282C389.968 283.779 391.608 286.729 394.448 286.729H410.51V349.338C410.51 352.289 414.007 353.818 417.613 353.818C421.11 353.818 424.715 352.288 424.715 349.338V286.729H440.668C443.509 286.729 445.147 283.669 445.147 280.282C445.148 277.223 443.728 273.945 440.668 273.945Z" fill="white"/>
</g>
<defs>
<clipPath id="clip0_21_95">
<rect width="512" height="512" fill="white"/>
</clipPath>
</defs>
</svg>
