<svg width="512" height="512" viewBox="0 0 512 512" fill="none" xmlns="http://www.w3.org/2000/svg">
<path d="M434.365 350.635C430.859 350.635 427.321 350.157 423.847 349.164C423.029 349.096 422.228 348.896 421.475 348.572L402.966 340.62C402.047 340.226 401.216 339.654 400.518 338.938C399.821 338.222 399.271 337.376 398.901 336.447C398.531 335.519 398.347 334.527 398.36 333.527C398.373 332.528 398.583 331.541 398.978 330.622C399.372 329.704 399.944 328.872 400.66 328.174C401.376 327.477 402.222 326.927 403.15 326.556C404.079 326.186 405.071 326.002 406.071 326.015C407.07 326.029 408.057 326.238 408.976 326.633L426.1 333.99C426.26 334.025 426.419 334.065 426.578 334.11L428.015 334.522C437.973 337.376 448.806 333.258 454.353 324.505L455.327 322.968L446.146 315.219C438.501 308.766 435.653 298.479 438.893 289.012L439.218 288.062C441.914 280.184 448.361 274.338 456.463 272.421C464.564 270.506 472.949 272.844 478.887 278.678C486.932 286.579 488.39 299.228 482.354 308.754L476.645 317.764C483.495 319.4 490.953 317.944 496.747 313.358L499.665 311.048C501.25 309.827 503.253 309.28 505.239 309.525C507.225 309.769 509.035 310.786 510.277 312.355C511.519 313.924 512.093 315.918 511.875 317.907C511.658 319.897 510.666 321.72 509.114 322.983L506.196 325.293C495.261 333.949 480.727 335.84 468.226 331.051L467.211 332.652C460.013 344.012 447.41 350.634 434.365 350.635ZM462.076 286.986C461.38 286.986 460.674 287.068 459.966 287.236C456.939 287.952 454.626 290.05 453.619 292.992L453.294 293.941C452.708 295.63 452.65 297.457 453.127 299.18C453.603 300.902 454.593 302.439 455.964 303.586L463.549 309.989L469.494 300.607C471.715 297.102 471.179 292.447 468.217 289.539C466.519 287.869 464.356 286.986 462.076 286.986Z" fill="#F9809D"/>
<path d="M443.76 341.584C443.76 344.243 443.689 346.892 443.527 349.53C440.528 350.265 437.451 350.636 434.363 350.636C430.807 350.638 427.268 350.142 423.849 349.164C423.031 349.094 422.23 348.896 421.474 348.575L402.963 340.618C399.106 338.964 397.32 334.478 398.975 330.622C399.368 329.703 399.939 328.87 400.655 328.172C401.371 327.474 402.217 326.924 403.145 326.554C404.074 326.183 405.067 326 406.066 326.013C407.066 326.027 408.053 326.238 408.971 326.634L426.102 333.992C426.254 334.022 426.417 334.063 426.579 334.114L428.01 334.52C433.247 336.022 438.707 335.596 443.527 333.586C443.679 336.245 443.76 338.904 443.76 341.584Z" fill="#F2708F"/>
<path d="M141.312 250.389L140.52 231.319C139.034 205.819 121.562 184.057 96.986 177.096L93.165 176.014C86.687 174.179 80.25 179.046 80.25 185.778V250.389H141.312Z" fill="#F9809D"/>
<path d="M321.49 223.029L301.187 220.163C240.035 211.53 212.081 206.318 151.461 218.123L117.251 224.953C78.429 232.513 47.224 261.233 36.399 299.135C35.996 300.544 34.883 301.637 33.456 301.972L3.951 308.88C2.82894 309.135 1.82678 309.763 1.10889 310.663C0.390997 311.562 -8.06294e-06 312.678 1.24701e-10 313.829L1.24702e-10 385.052C2.6004e-05 386.201 0.389989 387.316 1.10609 388.214C1.82218 389.113 2.82202 389.742 3.942 389.998L33.145 396.684C34.572 397.011 35.687 398.097 36.1 399.501C42.818 422.293 58.415 440.681 78.488 451.302C79.0542 451.597 79.5424 452.022 79.9125 452.542C80.2826 453.063 80.524 453.663 80.617 454.295L86.998 499.464C87.34 501.885 88.545 504.102 90.3914 505.706C92.2378 507.31 94.6013 508.193 97.047 508.193H165.111C170.167 508.193 174.453 504.471 175.16 499.464L177.713 481.644C180.764 482.054 183.76 479.362 186.819 479.682C190.03 480.019 196.488 483.592 196.488 483.592C211.93 484.732 227.436 484.733 242.878 483.593C249.394 480.576 255.558 478.071 261.651 481.642L264.166 499.463C264.508 501.885 265.713 504.101 267.559 505.705C269.406 507.309 271.769 508.192 274.215 508.192H324.281L338.23 503.204C343.287 503.204 347.572 499.482 348.279 494.475L355.17 446.246C355.261 445.622 355.497 445.028 355.86 444.512C356.222 443.997 356.701 443.574 357.258 443.278C394.811 423.074 418.962 388.676 418.962 343.045C418.96 283.39 371.011 230.413 321.49 223.029Z" fill="#F998B0"/>
<path d="M424.478 341.584C424.478 387.212 398.954 426.873 361.394 447.079C360.838 447.375 360.359 447.8 359.998 448.316C359.636 448.833 359.402 449.428 359.314 450.053L352.332 499.467C351.988 501.889 350.782 504.105 348.934 505.709C347.086 507.312 344.722 508.195 342.275 508.195H324.28L332.557 443.036C332.963 439.844 334.873 437.059 337.668 435.463C373.763 414.845 398.092 375.975 398.092 331.435C398.092 301.608 387.111 274.044 368.752 252.915C359.056 241.744 347.374 232.467 334.297 225.554C358.461 231.684 379.489 245.039 395.138 263.063C413.497 284.193 424.478 311.757 424.478 341.584Z" fill="#F9809D"/>
<path d="M346.557 91.668L355.753 125.986L205.377 166.279C191.593 169.972 177.424 161.792 173.731 148.008C173.402 146.779 173.318 145.497 173.484 144.235C173.65 142.974 174.063 141.757 174.699 140.655C175.335 139.553 176.183 138.587 177.192 137.813C178.202 137.038 179.354 136.47 180.583 136.141L223.195 108.621L265.552 94.179L346.557 91.668Z" fill="#FCC1AC"/>
<path d="M320.874 73.0918V108.621H165.194C150.923 108.621 139.355 97.0518 139.355 82.7818C139.355 77.4308 143.693 73.0918 149.045 73.0918H320.874Z" fill="#FDD0BF"/>
<path d="M261.65 481.644C255.413 482.481 249.153 483.131 242.877 483.595L239.832 460.871C239.091 455.32 243.394 450.398 248.986 450.398C251.279 450.398 253.39 451.23 255.014 452.631C256.699 454.07 257.806 456.071 258.13 458.263L261.65 481.644ZM177.713 481.645C183.951 482.481 190.212 483.131 196.488 483.594L199.533 460.871C200.274 455.32 195.971 450.398 190.379 450.398C188.167 450.393 186.027 451.185 184.351 452.631C182.667 454.07 181.56 456.071 181.235 458.263L177.713 481.645ZM74.6222 332.393C73.6227 332.393 72.6329 332.196 71.7095 331.814C70.786 331.431 69.9469 330.87 69.2401 330.164C68.5334 329.457 67.9728 328.618 67.5903 327.694C67.2079 326.771 67.0111 325.781 67.0112 324.782V312.335C67.0112 310.316 67.8131 308.38 69.2404 306.953C70.6678 305.525 72.6037 304.724 74.6222 304.724C76.6408 304.724 78.5767 305.525 80.004 306.953C81.4314 308.38 82.2332 310.316 82.2332 312.335V324.782C82.2335 325.781 82.0368 326.771 81.6544 327.695C81.272 328.618 80.7114 329.457 80.0046 330.164C79.2978 330.871 78.4587 331.431 77.5351 331.814C76.6116 332.196 75.6218 332.393 74.6222 332.393ZM312.081 293.756H266.669L225.656 283.194L179.721 293.756H134.308C126.931 293.756 120.95 287.776 120.95 280.398V273C120.95 265.623 126.93 259.642 134.308 259.642H312.081C319.458 259.642 325.439 265.622 325.439 273V280.399C325.438 287.776 319.458 293.756 312.081 293.756Z" fill="#F9809D"/>
<path d="M256.009 288.161C288.129 272.167 311.027 244.754 311.027 206.436C311.027 170.545 296.313 145.626 272.644 122.058C258.139 113.524 241.241 108.62 223.194 108.62C169.493 108.62 125.531 152.137 125.531 206.283C125.522 216.703 127.184 227.057 130.451 236.951C143.688 258.74 162.76 275.302 185.9 286.824L256.009 288.161Z" fill="#FFE059"/>
<path d="M320.86 206.282C320.86 244.603 298.787 277.769 266.666 293.763H179.723C156.584 282.244 138.661 261.805 130.451 236.951C144.953 245.496 161.851 250.388 179.895 250.388C233.602 250.388 277.556 206.871 277.556 152.727C277.556 142.01 275.831 131.699 272.644 122.058C301.496 139.016 320.86 170.386 320.86 206.282Z" fill="#FFC74F"/>
<path d="M179.275 426.461C177.77 426.46 176.298 426.014 175.047 425.178C173.795 424.341 172.82 423.153 172.243 421.762C171.667 420.372 171.516 418.841 171.81 417.365C172.103 415.889 172.828 414.532 173.892 413.468L261.728 325.632C263.16 324.227 265.089 323.444 267.095 323.453C269.101 323.463 271.022 324.264 272.441 325.682C273.86 327.101 274.661 329.022 274.671 331.028C274.68 333.035 273.898 334.963 272.493 336.396L184.657 424.232C183.951 424.939 183.112 425.5 182.188 425.883C181.265 426.265 180.275 426.462 179.275 426.461ZM192.51 367.397C179.746 367.397 169.361 357.012 169.361 344.248C169.361 331.484 179.746 321.098 192.51 321.098C205.275 321.098 215.66 331.483 215.66 344.248C215.66 357.013 205.275 367.397 192.51 367.397ZM192.51 336.322C188.139 336.322 184.584 339.878 184.584 344.249C184.584 348.62 188.139 352.175 192.51 352.175C196.881 352.175 200.437 348.619 200.437 344.249C200.437 339.879 196.881 336.322 192.51 336.322ZM253.877 428.764C241.113 428.764 230.728 418.379 230.728 405.614C230.728 392.849 241.113 382.465 253.877 382.465C266.642 382.465 277.027 392.85 277.027 405.614C277.027 418.379 266.642 428.764 253.877 428.764ZM253.877 397.688C249.506 397.688 245.951 401.244 245.951 405.614C245.951 409.985 249.506 413.541 253.877 413.541C258.248 413.541 261.804 409.985 261.804 405.614C261.804 401.244 258.248 397.688 253.877 397.688Z" fill="#F5F8F9"/>
<path d="M500.078 147.25C500.078 147.788 499.864 148.305 499.483 148.685C499.103 149.066 498.586 149.28 498.048 149.28L462.016 146.979C445.599 146.979 430.676 154.511 419.724 167.167L401.252 190.947C391.216 202.543 378.572 211.592 364.358 217.35L346.587 224.548C337.408 228.266 331.366 237.015 328.612 246.528L325.541 257.136C325.151 258.481 324.336 259.662 323.217 260.503C322.098 261.344 320.736 261.799 319.336 261.799C307.302 261.8 301.47 254.362 298.116 243.69C298.096 243.287 298.086 242.884 298.087 242.48C298.087 234.396 300.198 226.452 304.212 219.435C308.226 212.418 314.003 206.571 320.972 202.473L335.763 193.775C342.323 189.917 347.733 184.376 351.434 177.726C355.134 171.076 356.991 163.557 356.811 155.949C356.632 148.308 354.382 140.859 350.303 134.396C346.224 127.932 340.468 122.697 333.648 119.247C284.052 94.1559 234.451 69.0755 184.845 44.0061C171.468 37.2491 166.035 20.9761 172.668 7.52805L172.837 7.18605C173.517 5.80648 174.697 4.73742 176.137 4.19572C177.577 3.65401 179.169 3.68023 180.59 4.26905L273.893 42.9191C293.825 51.1761 314.633 57.1352 335.915 60.6811L392.926 70.1811C411.404 73.2601 430.248 73.45 448.785 70.7441C459.621 69.1622 470.326 66.7858 480.814 63.6341L501.776 57.3351C502.079 57.244 502.399 57.2251 502.711 57.2798C503.023 57.3346 503.317 57.4614 503.571 57.6503C503.825 57.8392 504.032 58.0848 504.174 58.3676C504.316 58.6504 504.39 58.9625 504.39 59.2791V131.896L500.078 147.25Z" fill="#FEDECF"/>
<path d="M504.388 131.897V150.638C504.388 151.176 504.174 151.692 503.794 152.073C503.413 152.454 502.897 152.668 502.358 152.668H465.062C448.642 152.668 433.723 160.198 422.762 172.854L403.449 195.181C393.414 206.774 380.771 215.821 366.559 221.578L348.789 228.773C344.259 230.608 340.205 233.448 336.931 237.079C333.658 240.709 331.251 245.034 329.892 249.73L326.817 260.345C326.427 261.688 325.612 262.868 324.494 263.708C323.376 264.548 322.015 265.002 320.616 265.003C314.395 265.003 308.762 262.476 304.683 258.406C300.748 254.482 298.409 249.239 298.117 243.69H298.401C302.988 243.693 307.451 242.205 311.117 239.449C314.784 236.694 317.455 232.822 318.728 228.416C320.087 223.72 322.494 219.394 325.767 215.764C329.04 212.134 333.095 209.294 337.625 207.459L355.395 200.264C369.607 194.508 382.251 185.461 392.285 173.867L411.598 151.54C422.558 138.885 437.477 131.354 453.898 131.354L504.388 131.897Z" fill="#FDD0BF"/>
<path d="M233.995 198.799C231.288 197.843 228.819 197.108 226.639 196.459C220.279 194.566 217.354 193.593 214.649 190.369C213.204 188.646 212.676 185.527 213.305 182.424C214.077 178.617 216.359 175.492 219.565 173.852C226.035 170.543 232.704 175.615 233.975 176.666C234.746 177.303 235.634 177.782 236.59 178.075C237.545 178.368 238.549 178.471 239.544 178.376C240.539 178.281 241.506 177.992 242.389 177.523C243.272 177.055 244.054 176.418 244.691 175.647C245.328 174.877 245.807 173.988 246.1 173.033C246.393 172.077 246.496 171.073 246.401 170.078C246.306 169.083 246.017 168.116 245.548 167.233C245.08 166.35 244.443 165.568 243.672 164.931C240.218 162.077 235.757 159.591 230.806 158.349V153.231C230.806 151.213 230.004 149.277 228.577 147.849C227.15 146.422 225.214 145.62 223.195 145.62C221.177 145.62 219.241 146.422 217.813 147.849C216.386 149.277 215.584 151.213 215.584 153.231V159.017C214.575 159.383 213.59 159.811 212.634 160.299C205.278 164.062 200.085 171.024 198.387 179.399C196.826 187.099 198.546 194.857 202.988 200.153C208.745 207.016 215.328 208.975 222.297 211.05C224.402 211.677 226.579 212.325 228.924 213.153C237.693 216.252 237.502 223.363 237.012 226.276C236.03 232.119 231.113 238.434 222.638 238.491C214.535 238.553 211.999 238.143 205.741 234.051C204.052 232.994 202.015 232.642 200.069 233.069C198.123 233.497 196.422 234.671 195.331 236.338C194.241 238.006 193.847 240.035 194.236 241.99C194.625 243.944 195.764 245.668 197.41 246.792C204.284 251.287 209.256 252.957 215.583 253.493V259.644C215.583 261.663 216.385 263.599 217.812 265.026C219.24 266.453 221.176 267.255 223.194 267.255C225.213 267.255 227.149 266.453 228.576 265.026C230.003 263.599 230.805 261.663 230.805 259.644V252.59C242.698 249.251 250.315 238.958 252.022 228.8C254.265 215.457 247.02 203.401 233.995 198.799Z" fill="#FFC74F"/>
<path d="M251.9 218.683C244.281 226.684 236.595 233.443 223.332 240.198C219.721 241.854 212.99 245.484 199.868 248.327C205.531 251.676 210.037 253.026 215.578 253.493V259.643C215.579 261.661 216.381 263.597 217.808 265.024C219.235 266.451 221.171 267.253 223.189 267.254C224.189 267.254 225.179 267.058 226.102 266.675C227.026 266.293 227.865 265.732 228.572 265.026C229.279 264.319 229.84 263.479 230.222 262.556C230.604 261.632 230.801 260.642 230.8 259.643V252.59C242.694 249.251 250.316 238.96 252.021 228.802C252.61 225.3 252.549 221.9 251.9 218.683Z" fill="#FFAF41"/>
</svg>
