<svg width="512" height="512" viewBox="0 0 512 512" fill="none" xmlns="http://www.w3.org/2000/svg">
<g clip-path="url(#clip0_7_63)">
<path d="M408.201 89.405V401.016C408.201 401.638 408.191 402.26 408.159 402.882C407.184 424.222 389.567 441.238 367.967 441.238H141.79C119.568 441.238 101.557 423.226 101.557 401.015V40.233C101.557 21.133 114.861 5.14301 132.707 1.02601C135.686 0.341836 138.733 -0.00236245 141.79 1.22033e-05H321.45C327.558 1.22033e-05 333.52 1.39001 338.922 4.00301C349.791 9.23401 352.852 15.845 372.384 35.816C394.855 60.215 400.22 62.716 404.799 73.281C407.045 78.3594 408.204 83.8518 408.201 89.405Z" fill="#FFC477"/>
<path d="M408.2 89.405V401.016C408.2 401.638 408.19 402.26 408.158 402.882C405.179 403.567 402.131 403.912 399.074 403.909H172.897C150.675 403.909 132.664 385.897 132.664 363.686V2.90301C132.664 2.27001 132.674 1.64801 132.705 1.02601C135.685 0.341887 138.732 -0.00230963 141.789 1.16629e-05H321.449C327.557 1.16629e-05 333.519 1.39001 338.921 4.00301C343.405 6.16404 347.448 9.13879 350.846 12.776L372.383 35.817L397.041 61.616C400.298 65.0135 402.925 68.9639 404.797 73.282C407.045 78.3598 408.204 83.852 408.2 89.405Z" fill="#FFDAAA"/>
<path d="M511.417 228.946V455.144C511.417 467.722 507.331 479.357 500.405 488.772C490.066 502.854 473.382 512 454.562 512H306.818C275.419 512 249.963 486.543 249.963 455.145V228.946C249.963 205.48 264.19 185.332 284.483 176.653C291.542 173.633 299.141 172.08 306.819 172.09H454.562C485.971 172.091 511.417 197.548 511.417 228.946Z" fill="#4CBA68"/>
<path d="M511.418 228.946V455.144C511.418 467.722 507.332 479.357 500.406 488.772C493.347 491.792 485.747 493.344 478.07 493.335H330.327C298.928 493.335 273.472 467.878 273.472 436.48V210.281C273.472 197.703 277.558 186.068 284.484 176.653C291.542 173.633 299.142 172.08 306.82 172.09H454.563C485.972 172.091 511.418 197.548 511.418 228.946Z" fill="#7CCC92"/>
<path d="M402.476 377.664V404.23C402.476 408.927 398.67 412.733 393.983 412.733H367.406C366.29 412.733 365.184 412.513 364.152 412.086C363.121 411.659 362.183 411.033 361.393 410.243C360.604 409.453 359.978 408.516 359.55 407.484C359.123 406.453 358.903 405.347 358.903 404.23V377.664C358.903 376.547 359.123 375.442 359.55 374.41C359.978 373.378 360.604 372.441 361.393 371.651C362.183 370.862 363.121 370.235 364.152 369.808C365.184 369.381 366.29 369.161 367.406 369.161H393.983C398.671 369.161 402.476 372.967 402.476 377.664Z" fill="#2C733F"/>
<path d="M472.345 223.616V252.08C472.345 262.201 464.143 270.413 454.012 270.413H307.368C297.247 270.413 289.035 262.2 289.035 252.08V223.616C289.035 213.495 297.248 205.283 307.368 205.283H454.012C464.143 205.283 472.345 213.496 472.345 223.616Z" fill="#1E81CE"/>
<path d="M472.346 223.616V252.08C472.346 262.201 464.144 270.413 454.013 270.413H338.477C328.356 270.413 320.144 262.2 320.144 252.08V223.616C320.144 213.495 328.357 205.283 338.477 205.283H454.013C464.144 205.283 472.346 213.496 472.346 223.616Z" fill="#3D9AE2"/>
<path d="M332.617 377.664V404.23C332.617 405.346 332.397 406.452 331.97 407.484C331.543 408.515 330.917 409.453 330.127 410.242C329.337 411.032 328.4 411.658 327.368 412.086C326.337 412.513 325.231 412.733 324.114 412.733H297.537C292.85 412.733 289.034 408.927 289.034 404.23V377.664C289.034 372.967 292.85 369.161 297.537 369.161H324.114C325.231 369.16 326.337 369.38 327.368 369.807C328.4 370.234 329.338 370.861 330.127 371.65C330.917 372.44 331.543 373.378 331.97 374.409C332.398 375.441 332.617 376.547 332.617 377.664ZM402.476 308.189V334.755C402.476 339.452 398.67 343.258 393.983 343.258H367.406C366.29 343.258 365.184 343.038 364.152 342.611C363.12 342.183 362.183 341.557 361.393 340.767C360.604 339.978 359.977 339.04 359.55 338.009C359.123 336.977 358.903 335.871 358.903 334.755V308.189C358.903 307.072 359.123 305.966 359.55 304.934C359.977 303.903 360.604 302.965 361.393 302.176C362.183 301.386 363.12 300.76 364.152 300.333C365.184 299.905 366.29 299.685 367.406 299.686H393.983C398.671 299.686 402.476 303.492 402.476 308.189Z" fill="#2C733F"/>
<path d="M473.185 308.189V334.755C473.185 335.871 472.966 336.977 472.538 338.009C472.111 339.04 471.485 339.978 470.695 340.767C469.905 341.557 468.968 342.183 467.936 342.611C466.905 343.038 465.799 343.258 464.682 343.258H438.116C437 343.258 435.894 343.038 434.862 342.611C433.83 342.183 432.893 341.557 432.103 340.767C431.314 339.978 430.688 339.04 430.26 338.009C429.833 336.977 429.613 335.871 429.613 334.755V308.189C429.613 307.072 429.833 305.966 430.26 304.934C430.688 303.903 431.314 302.965 432.103 302.176C432.893 301.386 433.83 300.76 434.862 300.333C435.894 299.905 437 299.685 438.116 299.686H464.682C465.799 299.685 466.905 299.905 467.937 300.332C468.968 300.759 469.906 301.386 470.695 302.175C471.485 302.965 472.111 303.903 472.539 304.934C472.966 305.966 473.186 307.072 473.185 308.189Z" fill="#EE8700"/>
<path d="M332.617 308.189V334.755C332.617 335.871 332.397 336.977 331.97 338.009C331.543 339.04 330.917 339.978 330.127 340.767C329.337 341.557 328.4 342.183 327.368 342.611C326.337 343.038 325.231 343.258 324.114 343.258H297.537C292.85 343.258 289.034 339.452 289.034 334.755V308.189C289.034 303.492 292.85 299.686 297.537 299.686H324.114C325.231 299.685 326.337 299.905 327.368 300.332C328.4 300.759 329.338 301.386 330.127 302.175C330.917 302.965 331.543 303.903 331.97 304.934C332.398 305.966 332.617 307.072 332.617 308.189ZM402.476 443.728V470.305C402.476 475.002 398.67 478.808 393.983 478.808H367.406C366.29 478.808 365.184 478.588 364.152 478.161C363.12 477.733 362.183 477.107 361.393 476.317C360.604 475.528 359.977 474.59 359.55 473.559C359.123 472.527 358.903 471.421 358.903 470.305V443.728C358.903 439.041 362.709 435.235 367.406 435.235H393.983C398.671 435.235 402.476 439.041 402.476 443.728ZM332.617 443.728V470.305C332.617 471.421 332.397 472.527 331.97 473.559C331.543 474.59 330.917 475.528 330.127 476.317C329.337 477.107 328.4 477.733 327.368 478.161C326.337 478.588 325.231 478.808 324.114 478.808H297.537C292.85 478.808 289.034 475.002 289.034 470.305V443.728C289.034 439.041 292.85 435.235 297.537 435.235H324.114C328.812 435.235 332.617 439.041 332.617 443.728Z" fill="#2C733F"/>
<path d="M473.185 381.791V464.3C473.185 472.316 466.694 478.807 458.689 478.807H444.11C436.105 478.807 429.614 472.316 429.614 464.3V381.791C429.614 374.812 435.276 369.161 442.244 369.161H460.556C467.534 369.161 473.185 374.813 473.185 381.791Z" fill="#EE8700"/>
<path d="M402.476 377.664V385.565C402.476 390.262 398.67 394.068 393.983 394.068H367.406C366.29 394.068 365.184 393.848 364.152 393.421C363.12 392.993 362.183 392.367 361.393 391.577C360.604 390.788 359.977 389.85 359.55 388.819C359.123 387.787 358.903 386.681 358.903 385.565V377.664C358.903 376.547 359.123 375.441 359.55 374.409C359.977 373.378 360.604 372.44 361.393 371.651C362.183 370.861 363.12 370.235 364.152 369.808C365.184 369.38 366.29 369.16 367.406 369.161H393.983C398.671 369.161 402.476 372.967 402.476 377.664ZM332.617 377.664V385.565C332.617 386.681 332.397 387.787 331.97 388.819C331.543 389.85 330.917 390.788 330.127 391.577C329.337 392.367 328.4 392.993 327.368 393.421C326.337 393.848 325.231 394.068 324.114 394.068H297.537C292.85 394.068 289.034 390.262 289.034 385.565V377.664C289.034 372.967 292.85 369.161 297.537 369.161H324.114C325.231 369.16 326.337 369.38 327.368 369.807C328.4 370.234 329.338 370.861 330.127 371.65C330.917 372.44 331.543 373.378 331.97 374.409C332.398 375.441 332.617 376.547 332.617 377.664ZM402.476 308.189V316.09C402.476 320.787 398.67 324.593 393.983 324.593H367.406C366.29 324.593 365.184 324.373 364.152 323.946C363.12 323.518 362.183 322.892 361.393 322.102C360.604 321.313 359.977 320.375 359.55 319.344C359.123 318.312 358.903 317.206 358.903 316.09V308.189C358.903 307.072 359.123 305.966 359.55 304.934C359.977 303.903 360.604 302.965 361.393 302.176C362.183 301.386 363.12 300.76 364.152 300.333C365.184 299.905 366.29 299.685 367.406 299.686H393.983C398.671 299.686 402.476 303.492 402.476 308.189Z" fill="#317F46"/>
<path d="M473.185 308.189V316.09C473.185 317.206 472.966 318.312 472.538 319.344C472.111 320.375 471.485 321.313 470.695 322.102C469.905 322.892 468.968 323.518 467.936 323.946C466.905 324.373 465.799 324.593 464.682 324.593H438.116C437 324.593 435.894 324.373 434.862 323.946C433.83 323.518 432.893 322.892 432.103 322.102C431.314 321.313 430.688 320.375 430.26 319.344C429.833 318.312 429.613 317.206 429.613 316.09V308.189C429.613 307.072 429.833 305.966 430.26 304.934C430.688 303.903 431.314 302.965 432.103 302.176C432.893 301.386 433.83 300.76 434.862 300.333C435.894 299.905 437 299.685 438.116 299.686H464.682C465.799 299.685 466.905 299.905 467.937 300.332C468.968 300.759 469.906 301.386 470.695 302.175C471.485 302.965 472.111 303.903 472.539 304.934C472.966 305.966 473.186 307.072 473.185 308.189Z" fill="#FF9811"/>
<path d="M332.617 308.189V316.09C332.617 317.206 332.397 318.312 331.97 319.344C331.543 320.375 330.917 321.313 330.127 322.102C329.337 322.892 328.4 323.518 327.368 323.946C326.337 324.373 325.231 324.593 324.114 324.593H297.537C292.85 324.593 289.034 320.787 289.034 316.09V308.189C289.034 303.492 292.85 299.686 297.537 299.686H324.114C325.231 299.685 326.337 299.905 327.368 300.332C328.4 300.759 329.338 301.386 330.127 302.175C330.917 302.965 331.543 303.903 331.97 304.934C332.398 305.966 332.617 307.072 332.617 308.189ZM402.476 443.728V451.64C402.476 456.337 398.67 460.143 393.983 460.143H367.406C366.29 460.143 365.184 459.923 364.152 459.496C363.12 459.068 362.183 458.442 361.393 457.652C360.604 456.863 359.977 455.925 359.55 454.894C359.123 453.862 358.903 452.756 358.903 451.64V443.728C358.903 439.041 362.709 435.235 367.406 435.235H393.983C398.671 435.235 402.476 439.041 402.476 443.728ZM332.617 443.728V451.64C332.617 452.756 332.397 453.862 331.97 454.894C331.543 455.925 330.917 456.863 330.127 457.652C329.337 458.442 328.4 459.068 327.368 459.496C326.337 459.923 325.231 460.143 324.114 460.143H297.537C292.85 460.143 289.034 456.337 289.034 451.64V443.728C289.034 439.041 292.85 435.235 297.537 435.235H324.114C328.812 435.235 332.617 439.041 332.617 443.728Z" fill="#317F46"/>
<path d="M473.185 381.791V445.635C473.185 453.651 466.694 460.142 458.689 460.142H444.11C436.105 460.142 429.614 453.651 429.614 445.635V381.791C429.614 374.812 435.276 369.161 442.244 369.161H460.556C467.534 369.161 473.185 374.813 473.185 381.791Z" fill="#FF9811"/>
<path d="M404.801 73.2799H354.386C345.844 73.2799 338.919 66.3549 338.919 57.8129V4.00293C343.402 6.16181 347.446 9.13454 350.844 12.7699L372.389 35.8129L397.044 61.6159C400.298 65.0152 402.925 68.9642 404.801 73.2799Z" fill="#FFB655"/>
<path d="M192.446 217.608C182.963 214.124 176.113 211.607 176.113 202.822C176.113 194.816 181.43 190.756 191.917 190.756C198.964 190.756 202.938 192.801 205.574 194.156C207.138 194.96 208.489 195.655 209.968 195.655C214.236 195.655 216.597 191.126 216.597 187.994C216.597 181.515 206.029 178.302 196.581 177.455V171.613C196.581 167.549 193.275 164.243 189.211 164.243C185.147 164.243 181.841 167.549 181.841 171.613V178.384C168.923 181.451 161.825 190.374 161.825 203.594C161.825 221.695 175.151 226.702 185.86 230.728C196.346 234.668 204.629 237.78 204.629 249.752C204.629 259.64 199.138 264.654 188.309 264.654C178.501 264.654 174.593 260.442 171.741 257.367C170.041 255.534 168.574 253.952 166.264 253.952C162.52 253.952 159.504 258.143 159.504 261.613C159.504 267.741 168.631 275.796 181.842 277.888V283.533C181.842 287.597 185.148 290.903 189.212 290.903C193.276 290.903 196.582 287.597 196.582 283.533V277.737C210.792 275.063 218.92 264.628 218.92 248.978C218.917 227.334 204.239 221.942 192.446 217.608ZM329.56 113.539H349.095C353.39 113.539 356.872 110.058 356.872 105.762C356.872 101.466 353.39 97.9854 349.095 97.9854H329.56C325.265 97.9854 321.783 101.466 321.783 105.762C321.783 110.058 325.265 113.539 329.56 113.539ZM160.539 113.539H298.452C302.747 113.539 306.229 110.058 306.229 105.762C306.229 101.466 302.747 97.9854 298.452 97.9854H160.539C156.244 97.9854 152.762 101.466 152.762 105.762C152.762 110.058 156.244 113.539 160.539 113.539ZM185.259 152.141C189.554 152.141 193.036 148.66 193.036 144.364C193.036 140.068 189.554 136.587 185.259 136.587H160.539C156.244 136.587 152.762 140.068 152.762 144.364C152.762 148.66 156.244 152.141 160.539 152.141H185.259ZM349.095 136.587H216.367C212.072 136.587 208.59 140.068 208.59 144.364C208.59 148.66 212.072 152.141 216.367 152.141H349.095C353.39 152.141 356.872 148.66 356.872 144.364C356.872 140.068 353.39 136.587 349.095 136.587Z" fill="#4E901E"/>
<path d="M223.427 487.549C223.427 492.972 221.208 497.887 217.641 501.465C214.064 505.032 209.148 507.251 203.725 507.251H83.0252C72.1892 507.251 63.3232 498.385 63.3232 487.549C63.3232 482.126 65.5422 477.211 69.1092 473.633C72.6862 470.066 77.6022 467.847 83.0252 467.847H203.725C214.562 467.847 223.427 476.713 223.427 487.549Z" fill="#AA6100"/>
<path d="M223.427 448.145C223.427 453.568 221.208 458.483 217.641 462.061C214.064 465.628 209.148 467.847 203.725 467.847H83.0252C72.1892 467.847 63.3232 458.981 63.3232 448.145C63.3232 442.722 65.5422 437.807 69.1092 434.229C72.6862 430.662 77.6022 428.443 83.0252 428.443H203.725C214.562 428.443 223.427 437.309 223.427 448.145Z" fill="#CC7400"/>
<path d="M223.427 408.741C223.427 414.164 221.208 419.079 217.641 422.657C214.064 426.224 209.148 428.443 203.725 428.443H83.0252C72.1892 428.443 63.3232 419.577 63.3232 408.741C63.3232 403.318 65.5422 398.403 69.1092 394.825C72.6862 391.258 77.6022 389.039 83.0252 389.039H203.725C214.562 389.04 223.427 397.905 223.427 408.741Z" fill="#EE8700"/>
<path d="M223.427 369.338C223.427 374.761 221.208 379.676 217.641 383.254C214.064 386.821 209.148 389.04 203.725 389.04H83.0252C72.1892 389.04 63.3232 380.174 63.3232 369.338C63.3232 365.481 64.4532 361.872 66.3922 358.823C67.1684 357.591 68.0797 356.451 69.1092 355.422C72.6862 351.855 77.6022 349.636 83.0252 349.636H203.725C214.562 349.636 223.427 358.502 223.427 369.338Z" fill="#FF9811"/>
<path d="M203.722 349.637H83.0272C72.1912 349.637 63.3252 340.771 63.3252 329.935C63.3252 319.099 72.1912 310.233 83.0272 310.233H203.723C214.559 310.233 223.425 319.099 223.425 329.935C223.424 340.771 214.559 349.637 203.722 349.637Z" fill="#FFA733"/>
<path d="M87.3062 381.232V509.493H67.6792C50.3482 510.238 34.3192 504.022 22.3022 493.34C-21.3098 454.637 5.23622 383.701 62.1872 381.232H87.3062Z" fill="#CC7400"/>
<path d="M154.125 447.684C152.97 480.853 126.44 508.047 92.7297 509.49C57.3157 511.004 27.3787 483.522 25.8647 448.108C25.8587 447.964 25.8517 447.827 25.8517 447.684C24.5717 412.447 51.9767 382.745 87.2467 381.237C122.661 379.723 152.598 407.205 154.112 442.626C154.184 444.328 154.19 446.012 154.125 447.684Z" fill="#FFC477"/>
<path d="M100.609 492.204C99.8255 492.38 99.0475 492.537 98.2655 492.674C73.2045 497.087 48.8365 481.068 43.1435 455.981C37.2815 430.11 53.4965 404.391 79.3665 398.522C85.5996 397.102 92.0538 396.942 98.3495 398.052C116.811 401.329 132.42 415.312 136.826 434.745C142.694 460.615 126.479 486.342 100.609 492.204Z" fill="#CC7400"/>
<path d="M100.608 492.204C99.825 492.38 99.047 492.537 98.265 492.674C79.811 489.397 64.196 475.408 59.789 455.981C53.927 430.11 70.142 404.391 96.012 398.522C96.7872 398.346 97.5664 398.19 98.349 398.052C116.81 401.329 132.419 415.312 136.825 434.745C142.693 460.615 126.478 486.342 100.608 492.204Z" fill="#EE8700"/>
<path d="M154.125 447.684C152.97 480.853 126.44 508.047 92.7296 509.49C57.3156 511.004 27.3786 483.522 25.8646 448.108C25.8586 447.964 25.8516 447.827 25.8516 447.684H42.0006C42.1417 450.477 42.5241 453.253 43.1436 455.981C49.0126 481.852 74.7386 498.073 100.609 492.204C122.132 487.327 136.969 468.71 137.968 447.684H154.125Z" fill="#FFA733"/>
<path d="M95.751 435.611L94.546 435.166C87.716 432.656 87.021 431.86 87.021 429.545C87.021 427.596 87.739 427.036 88.412 426.663C89.46 426.083 91.105 425.763 93.043 425.763C96.431 425.763 98.137 426.642 99.657 427.423C100.82 428.021 102.139 428.698 103.855 428.698C108.291 428.698 111.271 424.544 111.271 420.664C111.271 415.935 107.042 412.676 99.283 411.341V410.853C99.283 406.52 95.757 402.994 91.424 402.994C87.091 402.994 83.565 406.52 83.565 410.853V412.344C75.909 415.121 71.577 421.437 71.577 430.007C71.577 443.234 81.187 446.845 88.206 449.483C94.898 451.998 97.213 453.099 97.213 457.652C97.213 460.498 96.447 463.131 90.884 463.131C86.512 463.131 84.974 461.473 83.485 459.867C82.324 458.614 80.567 456.723 77.68 456.723C73.391 456.723 70.186 460.964 70.186 464.756C70.186 470.129 75.773 475.228 83.566 477.297V477.885C83.566 482.218 87.092 485.744 91.425 485.744C95.758 485.744 99.284 482.218 99.284 477.885V477.091C107.715 474.38 112.663 467.121 112.663 457.189C112.658 441.915 101.661 437.814 95.751 435.611ZM36.428 409.992C33.2445 414.802 30.726 420.02 28.941 425.504H3.89497C5.67898 419.886 8.37998 414.496 11.371 409.992H36.428ZM26.304 453.414H1.24697C0.5993 448.265 0.57479 443.057 1.17397 437.902H26.241C25.64 442.939 25.653 448.175 26.304 453.414ZM37.307 482.028H12.24C8.9016 477.245 6.23634 472.025 4.31897 466.516H29.376C31.2917 472.028 33.9607 477.248 37.307 482.028Z" fill="#AA6100"/>
</g>
<defs>
<clipPath id="clip0_7_63">
<rect width="512" height="512" fill="white"/>
</clipPath>
</defs>
</svg>
