<svg width="512" height="512" viewBox="0 0 512 512" fill="none" xmlns="http://www.w3.org/2000/svg">
<path d="M280 192C277.878 192 275.843 191.157 274.343 189.657C272.843 188.157 272 186.122 272 184V104C272 89.1479 266.1 74.9041 255.598 64.402C245.096 53.9 230.852 48 216 48C201.148 48 186.904 53.9 176.402 64.402C165.9 74.9041 160 89.1479 160 104V184C160 186.122 159.157 188.157 157.657 189.657C156.157 191.157 154.122 192 152 192C149.878 192 147.843 191.157 146.343 189.657C144.843 188.157 144 186.122 144 184V104C144 84.9044 151.586 66.5909 165.088 53.0883C178.591 39.5857 196.904 32 216 32C235.096 32 253.409 39.5857 266.912 53.0883C280.414 66.5909 288 84.9044 288 104V184C288 186.122 287.157 188.157 285.657 189.657C284.157 191.157 282.122 192 280 192Z" fill="#DADCDE"/>
<path d="M296 472H24L40 152H280L296 472Z" fill="#EB423F"/>
<path d="M360 472H296L280 152H344L360 472Z" fill="#D13330"/>
<path d="M328.47 431.99C328.31 432 328.15 432 327.99 432C325.951 431.998 323.989 431.218 322.506 429.819C321.023 428.419 320.13 426.506 320.01 424.47L304.01 152.47C304 152.31 304 152.16 304 152H320.02L335.99 423.53C336.114 425.649 335.391 427.73 333.981 429.317C332.571 430.903 330.589 431.865 328.47 431.99Z" fill="#A82A27"/>
<path d="M488 472H424L423 459.07V459.06L408 264H472L486.75 455.69V455.7L488 472Z" fill="#EBA72E"/>
<path d="M456.8 431.96C456.531 431.988 456.261 432.002 455.99 432C454.009 431.998 452.099 431.26 450.63 429.93C449.161 428.599 448.238 426.772 448.04 424.8L447.75 421.94L432.04 264.8C432.012 264.534 431.998 264.267 432 264H448.04L463.76 421.21L463.96 423.2C464.065 424.245 463.963 425.301 463.66 426.307C463.357 427.313 462.859 428.249 462.194 429.063C461.53 429.876 460.711 430.551 459.785 431.048C458.86 431.545 457.845 431.855 456.8 431.96Z" fill="#E09F2C"/>
<path d="M488 472H478.38L456 438.42L433.62 472H424L423 459.07V459.06L447.75 421.94L449.34 419.56C450.072 418.465 451.062 417.567 452.224 416.946C453.386 416.325 454.683 416 456 416C457.317 416 458.614 416.325 459.776 416.946C460.938 417.567 461.928 418.465 462.66 419.56L463.76 421.21L486.75 455.69V455.7L488 472Z" fill="#E09F2C"/>
<path d="M424 472H216L232 264H408L424 472Z" fill="#F7B030"/>
<path d="M328 416H312C301.395 415.988 291.228 411.77 283.729 404.271C276.23 396.772 272.012 386.605 272 376V312C272 309.878 272.843 307.843 274.343 306.343C275.843 304.843 277.878 304 280 304C282.122 304 284.157 304.843 285.657 306.343C287.157 307.843 288 309.878 288 312V376C288.007 382.363 290.538 388.463 295.037 392.963C299.537 397.462 305.637 399.993 312 400H328C334.363 399.993 340.463 397.462 344.963 392.963C349.462 388.463 351.993 382.363 352 376V312C352 309.878 352.843 307.843 354.343 306.343C355.843 304.843 357.878 304 360 304C362.122 304 364.157 304.843 365.657 306.343C367.157 307.843 368 309.878 368 312V376C367.988 386.605 363.77 396.772 356.271 404.271C348.772 411.77 338.605 415.988 328 416Z" fill="#E9EEF2"/>
<path d="M96 184H112V232H96V184Z" fill="#DADCDE"/>
<path d="M104 192C101.878 192 99.8434 191.157 98.3431 189.657C96.8429 188.157 96 186.122 96 184V104C96 84.9044 103.586 66.5909 117.088 53.0883C130.591 39.5857 148.904 32 168 32C187.096 32 205.409 39.5857 218.912 53.0883C232.414 66.5909 240 84.9044 240 104V184C240 186.122 239.157 188.157 237.657 189.657C236.157 191.157 234.122 192 232 192C229.878 192 227.843 191.157 226.343 189.657C224.843 188.157 224 186.122 224 184V104C224 89.1479 218.1 74.9041 207.598 64.402C197.096 53.9 182.852 48 168 48C153.148 48 138.904 53.9 128.402 64.402C117.9 74.9041 112 89.1479 112 104V184C112 186.122 111.157 188.157 109.657 189.657C108.157 191.157 106.122 192 104 192Z" fill="#E9EEF2"/>
<path d="M128 296H80V232L104 216L128 232V296Z" fill="#F7B030"/>
</svg>
