<svg width="512" height="512" viewBox="0 0 512 512" fill="none" xmlns="http://www.w3.org/2000/svg">
<path d="M508.374 190.506C508.374 241.545 470.625 277.698 419.586 277.698C384.576 277.698 355.297 262.573 338.431 235.154C331.252 222.014 327.173 206.937 327.173 190.908C327.173 139.869 368.548 98.4951 419.586 98.4951C435.536 98.4951 450.73 102.648 463.824 109.761C491.621 129.117 508.374 155.417 508.374 190.506Z" fill="#FCE698"/>
<path d="M512 190.909C512 241.945 470.623 283.322 419.587 283.322C384.582 283.322 354.118 263.851 338.432 235.155C351.579 242.331 366.654 246.413 382.678 246.413C433.714 246.413 475.091 205.036 475.091 154C475.091 137.968 471.009 122.901 463.825 109.762C492.529 125.432 512 155.896 512 190.909Z" fill="#FBD166"/>
<path d="M419.587 255.196C455.092 255.196 483.875 226.413 483.875 190.908C483.875 155.403 455.092 126.62 419.587 126.62C384.082 126.62 355.299 155.403 355.299 190.908C355.299 226.413 384.082 255.196 419.587 255.196Z" fill="#FBD166"/>
<path d="M483.874 190.908C483.874 226.411 455.089 255.196 419.586 255.196C407.677 255.196 396.523 251.957 386.96 246.308C434.589 244.138 472.816 205.911 474.986 158.282C480.636 167.844 483.874 178.998 483.874 190.908Z" fill="#F5B742"/>
<path d="M428.324 184.899C426.011 183.904 423.885 183.065 422.011 182.324C417.93 180.712 414.706 179.438 412.949 177.88C411.558 176.646 411.005 174.464 411.507 172.183C411.775 170.965 412.763 168.021 416.154 167C421.849 165.286 425.849 167.523 427.304 168.566C427.947 169.027 428.675 169.357 429.446 169.536C430.217 169.716 431.016 169.742 431.797 169.613C432.578 169.484 433.325 169.202 433.997 168.784C434.669 168.366 435.253 167.82 435.714 167.177C436.175 166.533 436.504 165.805 436.684 165.034C436.864 164.264 436.89 163.465 436.761 162.684C436.631 161.903 436.35 161.155 435.932 160.483C435.514 159.811 434.968 159.228 434.324 158.767C432.735 157.628 429.635 155.775 425.387 154.859V148.938C425.387 148.147 425.231 147.363 424.928 146.632C424.625 145.9 424.181 145.236 423.622 144.676C423.062 144.117 422.398 143.673 421.667 143.37C420.935 143.067 420.152 142.911 419.36 142.911C418.569 142.911 417.785 143.067 417.054 143.37C416.322 143.673 415.658 144.117 415.098 144.676C414.539 145.236 414.095 145.9 413.792 146.632C413.489 147.363 413.333 148.147 413.333 148.938V155.286C413.113 155.347 412.899 155.391 412.677 155.458C406.082 157.444 401.244 162.729 399.734 169.594C398.296 176.138 400.295 182.769 404.952 186.898C408.3 189.867 421.414 195.047 423.562 195.971C430.39 198.908 429.782 204.763 429.433 206.487C428.687 210.172 425.591 214.491 419.321 214.532C413.308 214.57 411.439 214.275 406.816 211.25C405.479 210.406 403.863 210.122 402.318 210.458C400.772 210.794 399.421 211.724 398.555 213.048C397.689 214.371 397.378 215.982 397.689 217.532C397.999 219.083 398.907 220.45 400.216 221.337C405.189 224.59 408.845 225.892 413.334 226.357V232.07C413.334 233.669 413.969 235.202 415.099 236.332C416.23 237.462 417.763 238.097 419.361 238.097C420.96 238.097 422.493 237.462 423.623 236.332C424.753 235.202 425.388 233.669 425.388 232.07V225.765C433.372 223.588 439.555 217.237 441.248 208.879C443.299 198.744 438.105 189.106 428.324 184.899Z" fill="#FCE698"/>
<path d="M125.998 327.657C122.941 316.063 121.398 304.121 121.407 292.131C121.407 215.526 183.508 153.425 260.113 153.425C296.27 153.425 329.195 167.259 353.885 189.923C376.152 220.997 389.345 251.683 389.345 292.132C389.345 368.737 336.866 419.188 260.113 430.837L125.998 327.657Z" fill="#94BDE5"/>
<path d="M398.822 292.13C398.822 368.74 338.431 433.279 260.108 430.833L222.281 401.728L227.016 401.25C306.398 401.25 370.745 336.903 370.745 257.532C370.745 233.089 364.64 210.079 353.882 189.925C381.513 215.271 398.822 251.676 398.822 292.13Z" fill="#76A0D4"/>
<path d="M259.07 255.275C257.615 251.413 253.863 248.818 249.735 248.818C245.619 248.818 241.871 251.403 240.412 255.244L213.888 324.885C213.183 326.808 213.265 328.932 214.115 330.796C214.965 332.659 216.515 334.113 218.429 334.842C220.343 335.571 222.468 335.517 224.342 334.691C226.216 333.864 227.69 332.333 228.443 330.428L233.272 317.75H266L270.777 330.407C271.336 331.888 272.332 333.163 273.634 334.064C274.936 334.964 276.481 335.447 278.064 335.447C278.978 335.447 279.907 335.285 280.813 334.943C281.77 334.582 282.646 334.036 283.392 333.336C284.138 332.636 284.739 331.796 285.16 330.864C285.581 329.933 285.815 328.927 285.847 327.905C285.88 326.882 285.71 325.864 285.349 324.907L259.07 255.275ZM239.205 302.173L249.712 274.587L260.123 302.173H239.205ZM362.434 323.175L338.822 289.61L358.913 261.091C359.502 260.255 359.921 259.311 360.145 258.313C360.37 257.316 360.395 256.283 360.22 255.276C360.046 254.268 359.674 253.305 359.127 252.441C358.58 251.577 357.868 250.829 357.032 250.24C356.196 249.651 355.252 249.232 354.255 249.007C353.257 248.783 352.224 248.757 351.217 248.932C350.209 249.106 349.246 249.478 348.382 250.025C347.517 250.572 346.77 251.285 346.181 252.121L329.303 276.079L312.452 252.125C311.864 251.288 311.116 250.576 310.252 250.029C309.389 249.481 308.426 249.109 307.418 248.934C306.411 248.758 305.378 248.783 304.38 249.007C303.383 249.23 302.438 249.648 301.602 250.237C300.766 250.825 300.053 251.573 299.506 252.436C298.958 253.3 298.586 254.263 298.411 255.271C298.235 256.278 298.26 257.311 298.484 258.309C298.708 259.306 299.126 260.251 299.714 261.087L319.775 289.604L296.128 323.171C295.539 324.007 295.12 324.951 294.896 325.948C294.672 326.946 294.646 327.978 294.821 328.986C294.995 329.994 295.367 330.957 295.914 331.821C296.461 332.685 297.173 333.433 298.009 334.022C299.318 334.948 300.883 335.445 302.487 335.445C303.737 335.447 304.968 335.147 306.078 334.572C307.187 333.997 308.141 333.163 308.86 332.141L329.294 303.136L349.696 332.137C350.415 333.16 351.369 333.995 352.479 334.571C353.589 335.147 354.822 335.447 356.072 335.445C357.619 335.445 359.183 334.985 360.546 334.025C362.235 332.836 363.383 331.026 363.737 328.991C364.091 326.956 363.622 324.864 362.434 323.175ZM203.397 248.82H164.161C159.86 248.82 156.373 252.306 156.373 256.608C156.373 260.91 159.859 264.396 164.161 264.396H175.912V332.263C175.912 334.328 176.733 336.309 178.193 337.77C179.654 339.23 181.635 340.051 183.7 340.051C185.766 340.051 187.746 339.23 189.207 337.77C190.668 336.309 191.488 334.328 191.488 332.263V264.396H203.398C204.421 264.396 205.433 264.194 206.378 263.803C207.323 263.411 208.182 262.838 208.905 262.115C209.628 261.391 210.202 260.533 210.593 259.588C210.984 258.643 211.186 257.63 211.186 256.607C211.185 255.585 210.984 254.572 210.593 253.627C210.201 252.682 209.627 251.824 208.904 251.101C208.181 250.377 207.322 249.804 206.377 249.413C205.433 249.021 204.42 248.82 203.397 248.82Z" fill="#F2F2F2"/>
<path d="M360.549 334.028C359.238 334.947 357.675 335.44 356.074 335.44C354.853 335.443 353.649 335.158 352.559 334.607C351.469 334.057 350.524 333.257 349.802 332.273C352.844 327.301 355.573 322.144 357.974 316.833L362.439 323.177C364.91 326.697 364.058 331.546 360.549 334.028Z" fill="#E2E8F5"/>
<path d="M236.373 111.404C236.373 162.443 198.624 198.596 147.585 198.596C112.575 198.596 83.2959 183.471 66.4299 156.052C59.2509 142.912 55.1719 127.835 55.1719 111.806C55.1719 60.7666 96.5469 19.3926 147.585 19.3926C163.535 19.3926 178.729 23.5456 191.823 30.6586C219.62 50.0156 236.373 76.3146 236.373 111.404Z" fill="#FCE698"/>
<path d="M239.999 111.805C239.999 162.841 198.622 204.218 147.586 204.218C112.581 204.218 82.1167 184.747 66.4307 156.051C79.5777 163.227 94.6527 167.309 110.677 167.309C161.713 167.309 203.09 125.932 203.09 74.8962C203.09 58.8642 199.008 43.7972 191.824 30.6582C220.528 46.3282 239.999 76.7922 239.999 111.805Z" fill="#FBD166"/>
<path d="M147.585 176.094C183.09 176.094 211.873 147.311 211.873 111.806C211.873 76.3003 183.09 47.5176 147.585 47.5176C112.08 47.5176 83.2969 76.3003 83.2969 111.806C83.2969 147.311 112.08 176.094 147.585 176.094Z" fill="#FBD166"/>
<path d="M211.873 111.806C211.873 147.309 183.088 176.094 147.585 176.094C135.676 176.094 124.522 172.855 114.959 167.206C162.588 165.036 200.815 126.809 202.985 79.1797C208.634 88.7427 211.873 99.8967 211.873 111.806Z" fill="#F5B742"/>
<path d="M156.323 105.798C154.01 104.803 151.884 103.964 150.01 103.223C145.929 101.611 142.705 100.337 140.948 98.7785C139.557 97.5445 139.004 95.3625 139.506 93.0815C139.774 91.8635 140.762 88.9195 144.153 87.8985C149.848 86.1845 153.848 88.4215 155.303 89.4645C156.603 90.3745 158.21 90.735 159.774 90.4677C161.338 90.2004 162.734 89.327 163.658 88.037C164.583 86.747 164.961 85.1445 164.711 83.5774C164.461 82.0103 163.603 80.605 162.323 79.6665C160.734 78.5275 157.634 76.6745 153.386 75.7585V69.8375C153.386 68.2391 152.751 66.7061 151.621 65.5758C150.491 64.4455 148.958 63.8105 147.359 63.8105C145.761 63.8105 144.228 64.4455 143.097 65.5758C141.967 66.7061 141.332 68.2391 141.332 69.8375V76.1855C141.112 76.2465 140.898 76.2905 140.676 76.3575C134.081 78.3435 129.243 83.6285 127.733 90.4935C126.295 97.0375 128.294 103.669 132.951 107.798C136.299 110.767 149.413 115.947 151.561 116.871C158.389 119.808 157.781 125.663 157.432 127.387C156.686 131.072 153.59 135.391 147.32 135.432C141.307 135.47 139.438 135.175 134.815 132.15C133.478 131.306 131.862 131.021 130.317 131.357C128.771 131.694 127.42 132.624 126.554 133.947C125.688 135.27 125.377 136.881 125.688 138.432C125.999 139.982 126.906 141.349 128.215 142.237C133.188 145.49 136.844 146.792 141.333 147.257V152.97C141.333 154.568 141.968 156.101 143.098 157.231C144.229 158.362 145.762 158.997 147.36 158.997C148.959 158.997 150.492 158.362 151.622 157.231C152.752 156.101 153.387 154.568 153.387 152.97V146.665C161.371 144.488 167.554 138.137 169.247 129.779C171.298 119.642 166.104 110.005 156.323 105.798Z" fill="#FCE698"/>
<path d="M412.169 374.034C404.659 365.004 391.411 363.44 382.007 370.455L319.63 417.024C317.241 418.808 314.479 420.028 311.552 420.592L310.052 420.881L297.787 428.901L286.939 425.339C290.121 414.988 286.135 403.007 276.466 397.291C262.064 388.792 247.667 380.283 233.276 371.765C222.009 365.1 211.787 356.811 202.938 347.164L196.562 340.204C181.861 324.181 159.88 316.935 138.539 321.087L2.535 346.877C1.82209 347.012 1.17871 347.392 0.715899 347.951C0.253089 348.51 -0.000110161 349.213 3.59549e-08 349.938V446.532C3.3863e-05 447.015 0.112111 447.49 0.327398 447.922C0.542685 448.354 0.855297 448.73 1.2406 449.02C1.62589 449.31 2.07335 449.507 2.54769 449.595C3.02203 449.683 3.5103 449.659 3.974 449.526L65.374 431.914C72.9247 429.748 80.8514 429.223 88.6219 430.374C96.3923 431.525 103.826 434.325 110.425 438.587L180.98 484.144C192.464 491.556 206.37 494.24 219.787 491.632L325.669 471.039C332.379 469.736 338.638 466.72 343.839 462.284L409.383 406.441C411.934 404.269 413.982 401.568 415.385 398.525C416.788 395.483 417.513 392.172 417.51 388.821C417.515 383.419 415.625 378.186 412.169 374.034Z" fill="#FAD0A4"/>
<path d="M310.053 420.892C309.589 428.059 307.442 435.016 303.787 441.198L303.49 441.693C295.033 456.053 280.133 464.026 264.705 464.026C257.239 464.026 249.651 462.165 242.615 458.245L200.846 434.976L186.695 427.102C184.381 425.814 181.884 424.889 179.291 424.357C174.576 423.393 170.944 419.638 170.441 414.851C169.664 407.46 176.237 401.286 183.524 402.746C188.39 403.72 193.075 405.446 197.41 407.863L238.54 430.757L253.329 438.994C264.297 445.106 278.128 441.351 284.504 430.526L284.812 430.019C285.685 428.539 286.398 426.97 286.937 425.339L310.053 420.892Z" fill="#C18E58"/>
</svg>
