<svg width="512" height="512" viewBox="0 0 512 512" fill="none" xmlns="http://www.w3.org/2000/svg">
<g clip-path="url(#clip0_19_113)">
<path d="M295.929 304.734H125.918V334.734H279.874L311.741 382.535H402.084V352.535H327.796L295.929 304.734Z" fill="#47449D"/>
<path d="M327.796 159.465H402.084V129.465H311.741L279.874 177.266H125.918V207.266H295.929L327.796 159.465Z" fill="#625FB2"/>
<path d="M125.918 248.5H459.847V271H125.918V248.5Z" fill="#47449D"/>
<path d="M125.918 241H459.847V256H125.918V241Z" fill="#625FB2"/>
<path d="M155.918 256.001L116.551 211.001L77.1836 256.001C77.1836 335.832 130.797 403.37 203.906 424.521V383.469C203.906 359.05 194.848 336.75 179.913 319.735C164.977 302.719 155.918 280.419 155.918 256.001Z" fill="#353376"/>
<path d="M155.918 256C155.918 231.581 164.977 209.281 179.911 192.266C194.846 175.251 203.904 152.95 203.904 128.532V87.4805C130.795 108.63 77.1826 176.169 77.1826 256H155.918Z" fill="#47449D"/>
<path d="M92.1827 256.001L60.3157 241.001L28.4487 256.001C28.4487 263.492 28.8237 270.896 29.5417 278.198L1.13867 304.191C5.17911 325.131 11.7943 345.49 20.8337 364.806L59.0747 369.139C66.5748 381.935 75.3228 393.958 85.1907 405.031L77.4857 442.782C93.0611 457.349 110.38 469.932 129.048 480.244L162.512 461.283C176.107 467.257 190.267 471.855 204.78 475.007L220.714 510.028C241.877 512.658 263.284 512.658 284.448 510.028V416.399H252.581C163.996 416.398 92.1837 344.586 92.1827 256.001Z" fill="#625FB2"/>
<path d="M92.1826 256C92.1826 167.414 163.996 95.6021 252.581 95.6021H284.448V1.97212C263.285 -0.656073 241.878 -0.656073 220.715 1.97212L204.781 36.9931C190.269 40.1454 176.109 44.7427 162.513 50.7161L129.049 31.7561C110.382 42.0691 93.0631 54.652 77.4866 69.2181L85.1917 106.969C75.3235 118.042 66.5755 130.065 59.0756 142.861L20.8346 147.194C11.7953 166.51 5.18008 186.869 1.13965 207.809L29.5426 233.803C28.8158 241.18 28.451 248.588 28.4496 256.001L92.1826 256Z" fill="#7E7BC6"/>
<path d="M403.951 399.402C421.551 399.402 435.818 385.135 435.818 367.535C435.818 349.935 421.551 335.668 403.951 335.668C386.351 335.668 372.084 349.935 372.084 367.535C372.084 385.135 386.351 399.402 403.951 399.402Z" fill="#2FF761"/>
<path d="M403.951 176.332C421.551 176.332 435.818 162.064 435.818 144.465C435.818 126.865 421.551 112.598 403.951 112.598C386.351 112.598 372.084 126.865 372.084 144.465C372.084 162.064 386.351 176.332 403.951 176.332Z" fill="#2FF761"/>
<path d="M333.183 446.282H363.183V476.282H333.183V446.282Z" fill="#625FB2"/>
<path d="M333.183 35.7158H363.183V65.7158H333.183V35.7158Z" fill="#7E7BC6"/>
<path d="M478.994 287.867C461.394 287.867 447.127 273.6 447.127 256L478.994 240.066L510.861 256C510.861 273.6 496.593 287.867 478.994 287.867Z" fill="#2FF761"/>
<path d="M510.861 256H447.127C447.127 238.4 461.394 224.133 478.994 224.133C496.594 224.133 510.861 238.4 510.861 256Z" fill="#92F785"/>
</g>
<defs>
<clipPath id="clip0_19_113">
<rect width="512" height="512" fill="white"/>
</clipPath>
</defs>
</svg>
