<svg width="512" height="512" viewBox="0 0 512 512" fill="none" xmlns="http://www.w3.org/2000/svg">
<path d="M53.4922 406.726V439.6C53.4922 452.796 64.1902 463.493 77.3854 463.493H114.751C127.947 463.493 138.644 452.795 138.644 439.6V406.726H53.4922Z" fill="#64798A"/>
<path d="M310.302 37.5898H118.668C73.6281 37.5898 37.1182 74.101 37.1182 119.139V420.916H379.906V107.193C379.905 68.7526 348.743 37.5898 310.302 37.5898Z" fill="#44C4A1"/>
<path d="M129.894 73.7637H299.109V107.607H129.894V73.7637Z" fill="#D5D6DB"/>
<path d="M118.988 378.712C137.077 378.712 151.741 364.048 151.741 345.959C151.741 327.87 137.077 313.206 118.988 313.206C100.899 313.206 86.2354 327.87 86.2354 345.959C86.2354 364.048 100.899 378.712 118.988 378.712Z" fill="#FCD462"/>
<path d="M20.9064 172.486C9.36119 172.486 0 181.847 0 193.392V247.646C0 259.193 9.36119 268.553 20.9064 268.553H40.392V172.484H20.9064V172.486ZM399.391 172.486H379.905V268.554H399.391C410.937 268.554 420.297 259.194 420.297 247.648V193.392C420.298 181.847 410.938 172.486 399.391 172.486Z" fill="#3EA69B"/>
<path d="M86.2412 152.36H338.401V288.818H86.2412V152.36Z" fill="#F6C358"/>
<path d="M86.2432 288.823V152.362H338.422L86.2432 288.823Z" fill="#FCD462"/>
<path d="M264.188 435.108V451.992C264.188 464.373 274.224 474.408 286.605 474.408H302.907C315.287 474.408 325.324 464.372 325.324 451.992V435.108H264.188ZM413.385 435.108V451.992C413.385 464.373 423.421 474.408 435.802 474.408H452.104C464.484 474.408 474.521 464.372 474.521 451.992V435.108H413.385Z" fill="#64798A"/>
<path d="M503.679 348.32H478.704V371.246H503.679C505.886 371.246 508.002 370.369 509.562 368.809C511.122 367.249 511.999 365.132 511.999 362.926V356.639C511.999 355.547 511.784 354.465 511.366 353.455C510.948 352.446 510.335 351.529 509.562 350.756C508.79 349.983 507.873 349.371 506.863 348.953C505.854 348.534 504.772 348.319 503.679 348.32ZM239.21 348.32C237.004 348.32 234.888 349.196 233.327 350.756C231.767 352.317 230.891 354.433 230.891 356.639V362.925C230.891 365.131 231.767 367.247 233.327 368.808C234.888 370.368 237.004 371.244 239.21 371.244H264.187V348.318H239.21V348.32Z" fill="#D15241"/>
<path d="M417.67 273.54H324.674C288.856 273.54 259.821 302.576 259.821 338.393V441.659H482.524V338.393C482.524 302.575 453.489 273.54 417.67 273.54Z" fill="#E56353"/>
<path d="M284.564 357.598H458.141C458.141 357.598 465.224 320.164 431.663 292.047C429.085 289.887 425.743 288.821 422.379 288.821H322.051C318.103 288.821 314.351 290.382 311.542 293.156C301.364 303.206 278.582 329.399 284.564 357.598Z" fill="#2D93BA"/>
<path d="M212.326 73.7637H299.115V107.607H212.326V73.7637Z" fill="#E1E6E9"/>
<path d="M284.564 357.598C278.582 329.398 301.364 303.206 311.543 293.156C314.338 290.382 318.115 288.824 322.052 288.821H422.38C425.744 288.821 429.086 289.887 431.665 292.047L284.564 357.598Z" fill="#27A2DB"/>
<path d="M309.965 413.701C320.458 413.701 328.965 405.194 328.965 394.7C328.965 384.206 320.458 375.699 309.965 375.699C299.471 375.699 290.964 384.206 290.964 394.7C290.964 405.194 299.471 413.701 309.965 413.701Z" fill="#FCD462"/>
<path d="M424.96 413.701C435.454 413.701 443.961 405.194 443.961 394.7C443.961 384.206 435.454 375.699 424.96 375.699C414.466 375.699 405.959 384.206 405.959 394.7C405.959 405.194 414.466 413.701 424.96 413.701Z" fill="#FCD462"/>
</svg>
