<svg width="512" height="512" viewBox="0 0 512 512" fill="none" xmlns="http://www.w3.org/2000/svg">
<path d="M48.7835 314.425L11.9478 351.261C-3.98195 367.19 -3.98195 393.018 11.9478 408.949C27.8775 424.879 63.7272 440.085 79.658 424.155L110.715 394.051C94.4167 369.207 52.5027 345.352 48.7835 314.425Z" fill="#FFC250"/>
<path d="M442.488 304.6C441.314 321.454 437.976 338.087 432.555 354.089C414.038 408.728 283.472 485.618 264.269 487.459C257.983 488.061 251.611 488.369 245.168 488.369C229.153 488.369 213.582 486.466 198.669 482.872C181.29 478.685 130.734 452.298 122.153 445.475C76.5778 409.236 47.3584 353.309 47.3584 290.558C47.3584 273.546 49.5065 257.035 53.5457 241.281C64.9562 196.779 199.921 93.1321 243.424 92.756C244.005 92.751 244.586 92.748 245.169 92.748C289.55 92.748 330.517 107.364 363.52 132.045C411.755 168.119 442.813 299.962 442.488 304.6Z" fill="#9DC6FB"/>
<path d="M186.974 449.782L159.231 437.063C156.724 435.914 154.007 435.294 151.249 435.242C148.492 435.191 145.753 435.708 143.205 436.763L122.154 445.475C144.292 463.078 170.289 476.035 198.671 482.872V468.011C198.671 460.171 194.101 453.05 186.974 449.782ZM91.4927 231.599L96.9729 228.52C101.679 225.877 107.25 230.186 105.874 235.406L101.366 252.502C99.6822 258.888 99.4254 265.566 100.614 272.062C101.803 278.558 104.408 284.713 108.243 290.088L119.293 305.572C121.274 308.348 122.585 311.545 123.123 314.913C123.661 318.281 123.411 321.728 122.393 324.983L119.22 335.131C111.643 359.363 122.351 385.562 144.733 397.548C147.909 399.249 151.594 399.741 155.105 398.932C158.616 398.124 161.715 396.07 163.827 393.151L193.59 352.019C201.37 341.268 211.337 332.287 222.838 325.667C233.402 319.585 234.296 304.679 224.535 297.377L216.551 291.405C200.455 279.367 188.455 262.668 182.177 243.575L179.219 234.578C177.185 228.393 177.067 221.739 178.879 215.485C180.692 209.232 184.35 203.672 189.376 199.533C193.058 196.5 196.023 192.691 198.059 188.377C200.095 184.063 201.151 179.353 201.151 174.583V154.077C201.151 146.367 203.907 138.911 208.921 133.055L243.425 92.7578C151.959 93.5478 75.3069 156.416 53.5469 241.282C66.8263 241.443 79.914 238.103 91.4927 231.599ZM329.546 179.732C324.476 183.138 323.654 190.269 327.816 194.74L329.142 196.164C335.91 203.433 340.508 212.451 342.417 222.198C344.325 231.945 343.468 242.032 339.942 251.317C337.118 258.753 342.203 266.822 350.13 267.482L361.648 268.442C383.724 270.282 404.904 278.001 422.986 290.798L442.488 304.6C442.813 299.962 442.979 295.279 442.979 290.559C442.979 225.693 411.757 168.119 363.52 132.046L359.814 141.723C353.883 157.209 343.311 170.484 329.546 179.732ZM358.574 324.842L357.403 325.397C353.618 327.19 349.488 328.14 345.299 328.181C341.11 328.222 336.963 327.353 333.143 325.634L324.74 321.852C317.121 318.422 308.142 321.205 303.796 328.339L294.7 343.271C286.616 356.541 288.813 373.643 299.989 384.439L310.557 394.648C318.018 401.856 316.822 414.134 308.11 419.766C303.446 422.781 299.512 426.797 296.594 431.522C293.675 436.247 291.846 441.563 291.238 447.083C290.562 453.228 288.083 459.036 284.112 463.774L264.269 487.456C342.875 479.925 408.05 426.389 432.555 354.087L394.801 327.838C389.56 324.195 383.451 321.999 377.09 321.473C370.729 320.947 364.342 322.109 358.574 324.842Z" fill="#B3E59F"/>
<path d="M363.519 132.046C348.093 120.502 331.058 111.28 312.959 104.672C316.57 107.023 320.103 109.491 323.554 112.072C371.769 148.147 402.975 205.708 402.975 270.558C402.975 379.98 314.211 468.368 205.165 468.368C184.428 468.368 164.447 465.18 145.678 459.27C164.094 469.019 187.831 480.262 198.669 482.874C213.581 486.466 229.152 488.37 245.167 488.37C251.61 488.37 257.981 488.062 264.268 487.46C283.471 485.62 414.036 408.729 432.555 354.091C437.974 338.088 441.313 321.455 442.487 304.601C442.813 299.962 411.756 168.119 363.519 132.046Z" fill="#80B4FB"/>
<path d="M137.392 456.456C156.165 468.686 176.889 477.62 198.67 482.871V468.263C177.195 467.571 156.596 463.458 137.392 456.456Z" fill="#95D6A4"/>
<path d="M91.4927 231.599L96.9729 228.52C101.679 225.877 107.25 230.186 105.874 235.406L101.366 252.502C99.6822 258.888 99.4254 265.566 100.614 272.062C101.803 278.558 104.408 284.713 108.243 290.088L119.293 305.572C121.274 308.348 122.585 311.545 123.123 314.913C123.661 318.281 123.411 321.728 122.393 324.983L119.22 335.131C111.643 359.363 122.351 385.562 144.733 397.548C147.909 399.249 151.594 399.741 155.105 398.932C158.616 398.124 161.715 396.07 163.827 393.151L193.59 352.019C201.37 341.268 211.337 332.287 222.838 325.667C233.402 319.585 234.296 304.679 224.535 297.377L216.551 291.405C200.455 279.367 188.455 262.668 182.177 243.575L179.219 234.578C177.185 228.393 177.067 221.739 178.879 215.485C180.692 209.232 184.35 203.672 189.376 199.533C193.058 196.5 196.023 192.691 198.059 188.377C200.095 184.063 201.151 179.353 201.151 174.583V154.077C201.151 146.367 203.907 138.911 208.921 133.055L243.425 92.7578C151.959 93.5478 75.3069 156.416 53.5469 241.282C66.8263 241.443 79.914 238.103 91.4927 231.599Z" fill="#B3E59F"/>
<path d="M394.802 327.84L394.6 327.701C378.511 381.116 340.452 424.954 290.999 448.814C290.079 454.326 287.701 459.492 284.112 463.776L264.27 487.459C342.876 479.927 408.051 426.392 432.555 354.089L394.802 327.84ZM363.519 132.046L359.813 141.723C359.344 142.947 358.846 144.159 358.318 145.358C386.229 179.459 402.975 223.053 402.975 270.558C402.975 273.436 402.913 276.313 402.79 279.188C409.871 282.416 416.632 286.303 422.984 290.798L442.486 304.6C442.811 299.962 442.977 295.28 442.977 290.559C442.978 225.692 411.755 168.119 363.519 132.046Z" fill="#95D6A4"/>
<path d="M238.962 239.622L69.6365 408.948C53.7067 424.878 27.8785 424.878 11.9478 408.948L69.6365 466.636C85.5662 482.565 111.394 482.565 127.325 466.636L296.651 297.31L285.669 250.073L238.962 239.622Z" fill="#FFE07D"/>
<path d="M511.879 276.442L479.388 210.224L495.345 194.267C496.26 193.352 496.773 192.112 496.773 190.818C496.773 189.525 496.26 188.284 495.345 187.369L485.878 177.902C484.963 176.988 483.723 176.474 482.429 176.474C481.136 176.474 479.895 176.988 478.98 177.902L468.615 188.267L444.466 139.05C443.772 137.636 443.537 136.04 443.795 134.486C444.053 132.931 444.79 131.497 445.903 130.382L469.665 106.591C483.199 93.0565 492.742 76.0538 497.243 57.4504C498.709 51.3941 496.982 45.9558 493.179 42.4517C489.676 38.6485 484.238 36.9224 478.18 38.3875C459.577 42.8895 442.574 52.4317 429.04 65.9658L405.249 89.7279C404.134 90.8412 402.699 91.5782 401.145 91.8359C399.591 92.0935 397.995 91.859 396.581 91.1649L347.363 67.0158L357.729 56.6503C358.182 56.1975 358.541 55.6599 358.786 55.0681C359.031 54.4764 359.158 53.8422 359.158 53.2017C359.158 52.5611 359.031 51.9269 358.786 51.3352C358.541 50.7434 358.182 50.2058 357.729 49.753L348.261 40.2856C347.347 39.3709 346.106 38.8571 344.813 38.8571C343.519 38.8571 342.279 39.3709 341.364 40.2856L325.407 56.2423L259.189 23.7518C258.968 23.6432 258.719 23.6064 258.476 23.6468C258.233 23.6872 258.008 23.8025 257.834 23.9768L247.836 33.9753C247.614 34.1967 247.49 34.4971 247.49 34.8103C247.49 35.1235 247.614 35.4239 247.836 35.6453L283.296 71.106L296.92 84.7296L292.776 88.8748C288.271 93.38 287.931 100.769 292.353 105.356C296.858 110.029 304.299 110.08 308.87 105.511L309.141 105.24C309.685 104.695 310.331 104.264 311.042 103.969C311.753 103.674 312.515 103.523 313.285 103.523C314.055 103.523 314.817 103.674 315.528 103.969C316.239 104.264 316.886 104.695 317.43 105.24L317.795 105.605L348.256 136.066C348.958 136.768 349.515 137.601 349.894 138.518C350.274 139.434 350.47 140.417 350.47 141.409C350.47 142.402 350.274 143.384 349.894 144.301C349.515 145.218 348.958 146.051 348.256 146.753L311.687 183.322C301.115 193.894 291.601 205.472 283.28 217.893C282.297 219.364 280.828 220.442 279.13 220.94C277.432 221.438 275.613 221.323 273.991 220.616L223.424 198.559C222.974 198.362 222.475 198.306 221.992 198.398C221.51 198.489 221.066 198.724 220.718 199.071L211.294 208.495C211.067 208.722 210.887 208.992 210.764 209.289C210.641 209.585 210.578 209.903 210.578 210.225C210.578 210.546 210.641 210.864 210.764 211.16C210.887 211.457 211.067 211.727 211.294 211.954L253.327 253.987C254.615 255.274 255.429 256.96 255.637 258.769C255.845 260.578 255.434 262.404 254.472 263.95L248.222 273.997C247.742 274.771 247.537 275.686 247.642 276.591C247.747 277.497 248.155 278.34 248.8 278.985L256.648 286.833C257.293 287.478 258.136 287.885 259.042 287.99C259.947 288.095 260.861 287.891 261.636 287.411L271.683 281.161C273.229 280.199 275.055 279.788 276.864 279.996C278.673 280.204 280.359 281.018 281.646 282.306L323.679 324.339C323.906 324.566 324.176 324.746 324.472 324.869C324.769 324.992 325.087 325.055 325.408 325.055C325.729 325.055 326.047 324.992 326.344 324.869C326.641 324.746 326.91 324.566 327.137 324.339L336.561 314.914C336.908 314.567 337.143 314.123 337.234 313.64C337.326 313.158 337.269 312.659 337.073 312.208L315.015 261.641C314.308 260.019 314.193 258.2 314.691 256.502C315.188 254.804 316.267 253.335 317.738 252.351C330.159 244.031 341.737 234.517 352.309 223.945L388.877 187.375C389.579 186.674 390.412 186.117 391.329 185.737C392.246 185.358 393.228 185.162 394.22 185.162C395.213 185.162 396.195 185.358 397.112 185.737C398.029 186.117 398.862 186.674 399.564 187.375L430.025 217.837L430.39 218.202C430.934 218.746 431.366 219.392 431.661 220.103C431.955 220.815 432.107 221.577 432.107 222.347C432.107 223.116 431.955 223.879 431.661 224.59C431.366 225.301 430.934 225.947 430.39 226.491L430.118 226.762C425.548 231.333 425.6 238.774 430.273 243.279C434.86 247.701 442.249 247.361 446.754 242.856L450.899 238.712L464.523 252.335L499.983 287.796C500.205 288.018 500.505 288.142 500.819 288.142C501.132 288.142 501.432 288.018 501.654 287.796L511.652 277.798C511.827 277.624 511.943 277.399 511.983 277.156C512.024 276.913 511.988 276.663 511.879 276.442Z" fill="#407093"/>
</svg>
