<svg width="512" height="512" viewBox="0 0 512 512" fill="none" xmlns="http://www.w3.org/2000/svg">
<path d="M79.016 323.6H40C31.1634 323.6 24 330.763 24 339.6V460.256C24 469.092 31.1634 476.256 40 476.256H79.016C87.8526 476.256 95.016 469.092 95.016 460.256V339.6C95.016 330.763 87.8526 323.6 79.016 323.6Z" fill="#3D82C4"/>
<path d="M95.016 339.6C95.016 335.356 93.3303 331.286 90.3297 328.286C87.3291 325.285 83.2595 323.6 79.016 323.6H40C35.7565 323.6 31.6869 325.285 28.6863 328.286C25.6857 331.286 24 335.356 24 339.6V460.256C24 464.499 25.6857 468.569 28.6863 471.569C31.6869 474.57 35.7565 476.256 40 476.256V394.616C40 387.391 41.423 380.237 44.1878 373.562C46.9527 366.887 51.0051 360.822 56.1138 355.713C61.2225 350.605 67.2874 346.552 73.9623 343.787C80.6371 341.023 87.7912 339.6 95.016 339.6Z" fill="#2B66B1"/>
<path d="M95.0156 348.56L136.16 336.952H231.176C235.242 336.951 239.252 337.904 242.882 339.735C246.512 341.567 249.662 344.225 252.077 347.496C254.492 350.768 256.105 354.56 256.787 358.569C257.468 362.578 257.198 366.691 256 370.576L364.92 326.04C372.639 322.927 381.248 322.839 389.029 325.792C396.811 328.745 403.193 334.524 406.903 341.974C410.613 349.424 411.378 358 409.046 365.989C406.714 373.979 401.455 380.796 394.32 385.08L238.16 478.304C229.229 483.635 219.203 486.865 208.84 487.749C198.477 488.634 188.048 487.149 178.344 483.408L95.0236 451.296" fill="#FFE0B2"/>
<path d="M394.319 369.079L238.159 462.303C229.229 467.634 219.203 470.864 208.84 471.749C198.477 472.633 188.048 471.148 178.343 467.407L95.0234 435.295V451.295L178.343 483.407C188.048 487.148 198.477 488.633 208.84 487.749C219.203 486.864 229.229 483.634 238.159 478.303L394.319 385.079C407.055 377.479 412.735 362.631 409.375 348.863C407.236 357.332 401.82 364.604 394.319 369.079Z" fill="#FECC81"/>
<path d="M432.992 188.399H472.008C480.844 188.399 488.008 181.236 488.008 172.399V51.7434C488.008 42.9069 480.844 35.7434 472.008 35.7434H432.992C424.155 35.7434 416.992 42.9069 416.992 51.7434V172.399C416.992 181.236 424.155 188.399 432.992 188.399Z" fill="#3D82C4"/>
<path d="M472 35.7441H432.984C428.741 35.7441 424.671 37.4298 421.671 40.4304C418.67 43.431 416.984 47.5007 416.984 51.7441C431.576 51.7441 445.569 57.5405 455.887 67.858C466.204 78.1755 472 92.169 472 106.76V188.4C476.244 188.4 480.314 186.714 483.314 183.714C486.315 180.713 488 176.644 488 172.4V51.7441C488 47.5007 486.315 43.431 483.314 40.4304C480.314 37.4298 476.244 35.7441 472 35.7441Z" fill="#2B66B1"/>
<path d="M348.121 93.9355H64.6328C55.7963 93.9355 48.6328 101.099 48.6328 109.936V270.896C48.6328 279.732 55.7963 286.896 64.6328 286.896H348.121C356.957 286.896 364.121 279.732 364.121 270.896V109.936C364.121 101.099 356.957 93.9355 348.121 93.9355Z" fill="#7CB342"/>
<path d="M241.593 109.936H364.121C364.121 105.692 362.435 101.622 359.435 98.6218C356.434 95.6213 352.364 93.9355 348.121 93.9355H64.6328C60.3894 93.9355 56.3197 95.6213 53.3191 98.6218C50.3185 101.622 48.6328 105.692 48.6328 109.936V270.896C48.6328 275.139 50.3185 279.209 53.3191 282.209C56.3197 285.21 60.3894 286.896 64.6328 286.896C64.6328 189.16 143.857 109.936 241.593 109.936Z" fill="#679F42"/>
<path d="M80.6408 157.08V223.744C88.8993 223.746 96.8189 227.028 102.658 232.868C108.497 238.709 111.777 246.629 111.777 254.888H300.977C300.979 246.629 304.261 238.709 310.102 232.871C315.942 227.032 323.862 223.752 332.121 223.752V157.08C323.861 157.08 315.939 153.798 310.099 147.958C304.258 142.117 300.977 134.195 300.977 125.936H111.777C111.777 130.025 110.971 134.075 109.406 137.854C107.841 141.632 105.547 145.066 102.655 147.958C99.763 150.85 96.3297 153.144 92.5511 154.709C88.7725 156.274 84.7307 157.08 80.6408 157.08Z" fill="#AED580"/>
<path d="M332.079 157.04V223.76C314.879 223.76 300.959 237.68 300.959 254.88H268.159L139.199 125.92H300.959C300.959 143.12 314.879 157.04 332.079 157.04Z" fill="#9CCC65"/>
<path d="M416.984 163.44L375.84 175.04H280.824C273.937 175.04 267.332 172.304 262.462 167.434C257.592 162.564 254.856 155.959 254.856 149.072C254.856 142.185 257.592 135.58 262.462 130.71C267.332 125.84 273.937 123.104 280.824 123.104H349.528C351.443 123.104 353.34 122.726 355.11 121.993C356.88 121.26 358.488 120.186 359.843 118.831C361.198 117.476 362.272 115.868 363.005 114.098C363.738 112.328 364.116 110.431 364.116 108.516C364.116 106.6 363.738 104.703 363.005 102.933C362.272 101.163 361.198 99.5551 359.843 98.2005C358.488 96.8458 356.88 95.7713 355.11 95.0382C353.34 94.3051 351.443 93.9277 349.528 93.9277H172.928L273.848 33.6877C282.778 28.3566 292.804 25.1267 303.168 24.2424C313.531 23.3582 323.959 24.8427 333.664 28.5837L416.984 60.6957" fill="#FFE0B2"/>
<path d="M333.664 28.5916C323.959 24.8505 313.531 23.366 303.168 24.2503C292.804 25.1345 282.778 28.3644 273.848 33.6956L172.928 93.9355H199.728L273.848 49.6956C282.778 44.3644 292.804 41.1345 303.168 40.2503C313.531 39.366 323.959 40.8505 333.664 44.5916L416.984 76.7036V60.7035L333.664 28.5916ZM273.92 363.2C259.28 379.92 240.96 396.88 231.2 396.88H199.68C195.28 396.88 191.68 393.28 191.68 388.88C191.68 384.48 195.28 380.88 199.68 380.88H231.2C235.28 379.84 246.16 369.68 256.64 358.48C256.96 359.92 257.12 361.44 257.12 362.96C257.12 365.6 256.72 368.16 256 370.56L273.92 363.2Z" fill="#FECC81"/>
</svg>
