<svg width="512" height="512" viewBox="0 0 512 512" fill="none" xmlns="http://www.w3.org/2000/svg">
<g clip-path="url(#clip0_27_2)">
<path d="M463.342 248.258H274.69L427.795 95.153C430.819 92.129 430.819 87.228 427.795 84.204C424.771 81.18 419.87 81.18 416.846 84.204L263.741 237.309V48.657C263.741 46.6037 262.925 44.6345 261.473 43.1826C260.022 41.7307 258.052 40.915 255.999 40.915C253.946 40.915 251.977 41.7307 250.525 43.1826C249.073 44.6345 248.257 46.6037 248.257 48.657V237.309L95.1521 84.204C92.1281 81.18 87.2271 81.18 84.2031 84.204C81.1791 87.228 81.1791 92.129 84.2031 95.153L237.308 248.258H48.6561C47.6394 248.258 46.6326 248.458 45.6933 248.847C44.754 249.236 43.9006 249.807 43.1816 250.526C42.4627 251.245 41.8925 252.098 41.5034 253.037C41.1143 253.977 40.9141 254.983 40.9141 256C40.9141 257.017 41.1143 258.023 41.5034 258.963C41.8925 259.902 42.4627 260.756 43.1816 261.474C43.9006 262.193 44.754 262.764 45.6933 263.153C46.6326 263.542 47.6394 263.742 48.6561 263.742H237.308L84.2031 416.847C81.1791 419.871 81.1791 424.772 84.2031 427.796C87.2271 430.82 92.1281 430.82 95.1521 427.796L248.257 274.69V463.342C248.257 465.395 249.073 467.365 250.525 468.816C251.977 470.268 253.946 471.084 255.999 471.084C258.052 471.084 260.022 470.268 261.473 468.816C262.925 467.365 263.741 465.395 263.741 463.342V274.69L416.846 427.795C419.87 430.819 424.771 430.819 427.795 427.795C430.819 424.771 430.819 419.87 427.795 416.846L274.69 263.742H463.342C465.395 263.742 467.365 262.926 468.816 261.474C470.268 260.023 471.084 258.053 471.084 256C471.084 253.947 470.268 251.978 468.816 250.526C467.365 249.074 465.395 248.258 463.342 248.258Z" fill="#407093"/>
<path d="M146.026 356.817C206.763 417.555 305.238 417.555 365.975 356.817C393.98 328.813 411.241 290.469 411.241 246.71C409.061 210.058 393.98 174.03 365.975 146.025C305.238 85.2884 206.763 85.2884 146.026 146.025C118.021 174.03 102.94 210.058 100.76 246.709C100.76 293.22 118.022 328.813 146.026 356.817Z" fill="#ECBB5D"/>
<path d="M228.557 473.736C228.557 491.751 243.249 502.42 256 502.42C268.751 502.42 283.443 489.895 283.443 473.736C279.57 462.293 268.751 454.052 256 454.052C243.249 454.052 232.43 462.293 228.557 473.736Z" fill="#D75950"/>
<path d="M26.076 476.343C46.62 496.887 79.928 496.887 100.472 476.343C108.37 468.444 115.044 453.403 115.044 439.435C113.165 428.858 108.077 419.114 100.471 411.527C79.927 390.983 46.619 390.983 26.075 411.527C18.4686 419.114 13.3807 428.857 11.502 439.435C11.504 452.121 18.178 468.444 26.076 476.343Z" fill="#AADEFD"/>
<path d="M256 362.041C316.728 362.041 371.25 311.19 371.25 246.71C366.518 187.198 316.729 140.378 256 140.378C195.271 140.378 145.482 187.198 140.75 246.71C140.75 315.415 195.271 362.041 256 362.041Z" fill="#F5DE8E"/>
<path d="M256.001 353.041C195.272 353.041 145.483 306.221 140.751 246.71C140.504 249.8 140.38 252.9 140.379 256C140.379 319.856 192.145 371.622 256.001 371.622C319.857 371.622 371.623 319.856 371.623 256C371.623 252.872 371.495 249.775 371.251 246.71C366.519 306.221 316.73 353.041 256.001 353.041Z" fill="#EDD17A"/>
<path d="M365.974 347.394C305.237 408.131 206.762 408.131 146.025 347.394C118.02 319.389 102.939 283.361 100.759 246.71C98.2106 289.55 113.292 333.242 146.025 365.975C206.762 426.712 305.237 426.712 365.974 365.975C398.707 333.242 413.788 289.55 411.24 246.71C409.06 283.361 393.979 319.389 365.974 347.394Z" fill="#E5A84C"/>
<path d="M100.472 467.343C79.9285 487.887 46.6205 487.887 26.0765 467.343C18.4701 459.756 13.3822 450.012 11.5035 439.435C8.58146 455.799 13.4315 473.278 26.0765 485.923C46.6205 506.467 79.9285 506.467 100.472 485.923C113.117 473.278 117.966 455.798 115.045 439.435C113.166 450.012 108.078 459.755 100.472 467.343Z" fill="#96D3EF"/>
<path d="M255.999 493.419C243.248 493.419 232.429 485.178 228.556 473.735C227.542 476.728 227.025 479.866 227.025 483.025C227.025 499.028 239.997 512 255.999 512C272.001 512 284.973 499.028 284.973 483.026C284.974 479.867 284.457 476.729 283.442 473.736C279.569 485.179 268.75 493.419 255.999 493.419Z" fill="#CA4844"/>
<path d="M228.557 19.684C228.557 37.699 243.249 48.368 256 48.368C268.751 48.368 283.443 35.843 283.443 19.684C279.57 8.241 268.751 0 256 0C243.249 0 232.43 8.241 228.557 19.684Z" fill="#D75950"/>
<path d="M255.999 39.3666C243.248 39.3666 232.429 31.1266 228.556 19.6826C227.542 22.6749 227.025 25.8131 227.025 28.9726C227.025 44.9746 239.997 57.9466 255.999 57.9466C272.001 57.9466 284.973 44.9746 284.973 28.9726C284.974 25.8131 284.457 22.6748 283.442 19.6826C279.569 31.1266 268.75 39.3666 255.999 39.3666Z" fill="#CA4844"/>
<path d="M1.53125 246.71C1.53125 264.725 16.2233 275.394 28.9743 275.394C41.7253 275.394 56.4173 262.869 56.4173 246.71C52.5443 235.267 41.7253 227.026 28.9743 227.026C16.2233 227.026 5.40425 235.266 1.53125 246.71Z" fill="#D75950"/>
<path d="M28.974 266.393C16.223 266.393 5.404 258.153 1.531 246.709C0.516345 249.702 -0.000847294 252.84 1.04193e-06 256C1.04193e-06 272.002 12.972 284.974 28.974 284.974C44.976 284.974 57.948 272.002 57.948 256C57.9489 252.84 57.4317 249.702 56.417 246.71C52.544 258.153 41.725 266.393 28.974 266.393Z" fill="#CA4844"/>
<path d="M455.582 246.71C455.582 264.725 470.274 275.394 483.025 275.394C495.776 275.394 510.468 262.869 510.468 246.71C506.595 235.267 495.776 227.026 483.025 227.026C470.274 227.026 459.455 235.266 455.582 246.71Z" fill="#D75950"/>
<path d="M483.027 266.393C470.276 266.393 459.457 258.153 455.584 246.709C454.57 249.701 454.052 252.839 454.053 255.999C454.053 272.001 467.025 284.973 483.027 284.973C499.029 284.974 512.001 272.002 512.001 256C512.002 252.84 511.484 249.702 510.47 246.71C506.597 258.153 495.778 266.393 483.027 266.393Z" fill="#CA4844"/>
<path d="M411.527 476.343C432.071 496.887 465.379 496.887 485.923 476.343C493.821 468.444 500.495 453.403 500.495 439.435C498.616 428.858 493.528 419.114 485.922 411.527C465.378 390.983 432.07 390.983 411.526 411.527C403.92 419.114 398.832 428.857 396.953 439.435C396.955 452.121 403.629 468.444 411.527 476.343Z" fill="#AADEFD"/>
<path d="M485.924 467.343C465.38 487.887 432.072 487.887 411.528 467.343C403.921 459.756 398.833 450.012 396.955 439.435C394.033 455.799 398.883 473.278 411.528 485.923C432.072 506.467 465.38 506.467 485.924 485.923C498.569 473.278 503.418 455.798 500.497 439.435C498.617 450.012 493.529 459.755 485.924 467.343Z" fill="#96D3EF"/>
<path d="M411.527 90.892C432.071 111.436 465.379 111.436 485.923 90.892C493.821 82.993 500.495 67.953 500.495 53.984C498.616 43.4064 493.528 33.6629 485.922 26.076C465.378 5.53197 432.07 5.53197 411.526 26.076C403.92 33.6628 398.832 43.4063 396.953 53.984C396.955 66.67 403.629 82.993 411.527 90.892Z" fill="#AADEFD"/>
<path d="M485.924 81.8924C465.38 102.436 432.072 102.436 411.528 81.8924C403.921 74.3055 398.833 64.5621 396.955 53.9844C394.033 70.3484 398.883 87.8274 411.528 100.472C432.072 121.016 465.38 121.016 485.924 100.472C498.569 87.8274 503.418 70.3484 500.497 53.9844C498.617 64.5618 493.529 74.305 485.924 81.8924Z" fill="#96D3EF"/>
<path d="M26.076 90.892C46.62 111.436 79.928 111.436 100.472 90.892C108.371 82.993 115.044 67.953 115.044 53.984C113.165 43.4064 108.077 33.6629 100.471 26.076C79.927 5.53197 46.619 5.53197 26.075 26.076C18.4686 33.6628 13.3807 43.4063 11.502 53.984C11.504 66.67 18.178 82.993 26.076 90.892Z" fill="#AADEFD"/>
<path d="M100.472 81.8924C79.9285 102.436 46.6205 102.436 26.0765 81.8924C18.4701 74.3055 13.3822 64.5621 11.5035 53.9844C8.58146 70.3484 13.4315 87.8274 26.0765 100.472C46.6205 121.016 79.9285 121.016 100.472 100.472C113.117 87.8274 117.966 70.3484 115.045 53.9844C113.166 64.5618 108.078 74.305 100.472 81.8924Z" fill="#96D3EF"/>
<path d="M230.989 295.519C229.267 294.43 227.187 294.062 225.196 294.494C223.206 294.927 221.465 296.124 220.35 297.829C219.235 299.533 218.835 301.608 219.236 303.605C219.638 305.602 220.808 307.361 222.496 308.502C232.27 314.896 238.953 316.818 247.558 317.312V325.497C247.558 327.554 248.375 329.527 249.83 330.982C251.284 332.437 253.257 333.254 255.315 333.254C257.372 333.254 259.345 332.437 260.8 330.982C262.254 329.527 263.072 327.554 263.072 325.497V316.692C280.248 313.285 290.281 299.104 292.507 285.857C295.376 268.795 286.451 253.961 269.771 248.064C267.529 247.274 265.295 246.459 263.071 245.621V209.611C268.674 210.981 272.008 213.811 272.303 214.069C273.827 215.419 275.822 216.116 277.856 216.008C279.889 215.9 281.799 214.997 283.173 213.494C284.547 211.99 285.274 210.007 285.198 207.972C285.122 205.937 284.249 204.013 282.768 202.616C282.332 202.214 275.03 195.634 263.071 193.813V186.504C263.071 182.219 259.598 178.747 255.314 178.747C251.03 178.747 247.557 182.219 247.557 186.504V194.407C246.414 194.657 245.281 194.949 244.161 195.283C233.172 198.594 224.96 207.996 222.732 219.823C220.699 230.61 224.157 241.014 231.756 246.974C235.761 250.116 240.742 252.994 247.557 256.031V301.768C241.729 301.321 237.638 299.869 230.989 295.519ZM241.332 234.766C238.308 232.394 237.023 227.77 237.979 222.696C238.83 218.179 241.791 212.755 247.558 210.514V238.761C245.218 237.483 243.1 236.153 241.332 234.766ZM264.6 262.691C278.675 267.665 277.808 279.711 277.208 283.285C276.041 290.225 271.228 297.579 263.072 300.558V262.144C263.582 262.326 264.077 262.507 264.6 262.691Z" fill="#E5A84C"/>
</g>
<defs>
<clipPath id="clip0_27_2">
<rect width="512" height="512" fill="white"/>
</clipPath>
</defs>
</svg>
