<svg width="512" height="512" viewBox="0 0 512 512" fill="none" xmlns="http://www.w3.org/2000/svg">
<g clip-path="url(#clip0_24_75)">
<path d="M480.223 257.288C480.223 276.242 466.401 291.817 448.246 294.665C446.313 294.968 444.267 295.262 442.249 295.262C421.277 295.262 404.275 278.261 404.275 257.288C404.275 236.315 421.276 219.314 442.249 219.314C463.222 219.314 480.223 236.315 480.223 257.288Z" fill="#A35D62"/>
<path d="M120.491 362.43L204.366 392.078C226.31 399.835 240.982 420.582 240.982 443.857L157.618 512H69.981L54.981 494.971L39.981 512H0V443.858C0 420.583 14.672 399.836 36.616 392.079L120.491 362.43Z" fill="#62617D"/>
<path d="M119.519 257.536L63.752 289.057V324.101C63.752 355.061 88.682 380.292 119.519 380.815C119.843 380.821 120.165 380.84 120.49 380.84C151.776 380.84 177.229 355.387 177.229 324.102V289.183L119.519 257.536Z" fill="#FFE3D7"/>
<path d="M142.404 238.175H63.752V289.182H177.229V273.001C177.229 253.767 161.637 238.175 142.404 238.175Z" fill="#FFBE00"/>
<path d="M391.509 362.181L475.384 391.829C497.328 399.587 512 420.334 512 443.609V511.751H471.981L456.981 496.793L441.981 511.751H354.381L271.018 443.609C271.018 420.334 285.69 399.587 307.634 391.83L391.509 362.181Z" fill="#6CD4FF"/>
<path d="M390.538 257.288L334.771 294.54V323.852C334.771 354.812 359.701 380.043 390.538 380.566C390.862 380.572 391.184 380.591 391.509 380.591C422.795 380.591 448.248 355.138 448.248 323.853V294.666L390.538 257.288Z" fill="#FFD5C9"/>
<path d="M391.509 237.926C360.173 237.926 334.77 263.329 334.77 294.664H448.247C448.248 263.329 422.845 237.926 391.509 237.926Z" fill="#BA7D68"/>
<path d="M241.001 25.098C220.077 28.341 204.008 46.476 204.008 68.295V68.702C204.008 92.806 223.618 112.416 247.722 112.416H255.902L269.632 97.416L255.902 82.416H247.722C240.16 82.416 234.008 76.264 234.008 68.702V68.295C234.008 60.733 240.16 54.581 247.722 54.581H255.902L266.998 24.756L255.902 0H241.001V25.098ZM247.722 139.845C240.16 139.845 234.008 133.693 234.008 126.13V124.914H204.008V126.13C204.008 147.949 220.077 166.084 241.001 169.327V194.425H255.902L261.706 163.365L255.902 139.845H247.722Z" fill="#ACED2F"/>
<path d="M264.278 112.416C271.84 112.416 277.992 118.568 277.992 126.131C277.992 133.694 271.84 139.846 264.278 139.846H255.9V194.426H270.999V169.328C291.923 166.085 307.992 147.95 307.992 126.131C307.992 102.027 288.382 82.416 264.278 82.416H255.9V112.416H264.278ZM264.278 54.58C271.84 54.58 277.992 60.732 277.992 68.294V69.222H307.992V68.294C307.992 46.475 291.923 28.34 270.999 25.097V0H255.9V54.58H264.278Z" fill="#70DE3D"/>
<path d="M261.039 430.69L248.235 442.697C229.35 442.697 220.924 442.104 214.283 425.566L183.597 436.074C176.017 438.67 169.438 443.57 164.78 450.089C160.122 456.608 157.617 464.419 157.617 472.431V512H255.999L274.436 482.277L261.039 430.69Z" fill="#FF6C6C"/>
<path d="M255.999 453.818L261.04 430.69L255.999 411.28L214.283 425.566C220.924 442.104 237.114 453.818 255.999 453.818Z" fill="#FFD5C9"/>
<path d="M328.653 435.962L297.869 425.182C297.869 425.182 282.344 434.167 275.074 439.234C267.804 444.3 257.901 451.919 256.002 453.819V512H354.384V472.232C354.383 464.265 351.907 456.495 347.297 449.997C342.687 443.499 336.172 438.595 328.653 435.962Z" fill="#FF336A"/>
<path d="M297.868 425.182L256 411.28V453.818C275.03 453.818 291.324 441.923 297.868 425.182Z" fill="#FFC8B6"/>
<path d="M209.879 379.694C209.879 405.126 230.569 425.816 256.001 425.816L264.241 388.005L256.001 344.236V337.307C239.292 337.307 223.634 348.812 210.204 356.768C209.991 358.557 209.882 360.357 209.879 362.159V379.694Z" fill="#FFE3D7"/>
<path d="M302.124 379.694V362.159C302.124 360.335 302.006 358.538 301.799 356.769C288.369 348.813 272.711 337.308 256.002 337.308V425.816C281.433 425.816 302.124 405.126 302.124 379.694Z" fill="#FFD5C9"/>
<path d="M256 344.236L270.208 332.036L256 316.036C232.392 316.036 212.883 333.868 210.203 356.768C223.633 348.812 239.291 344.236 256 344.236Z" fill="#BA7D68"/>
<path d="M256 316.036V344.237C272.709 344.237 288.367 348.813 301.797 356.769C299.118 333.868 279.608 316.036 256 316.036Z" fill="#A35D62"/>
<path d="M441.98 461.56H471.98V512H441.98V461.56Z" fill="#5FB6FF"/>
<path d="M39.9805 461.56H69.9805V512H39.9805V461.56Z" fill="#584A6D"/>
</g>
<defs>
<clipPath id="clip0_24_75">
<rect width="512" height="512" fill="white"/>
</clipPath>
</defs>
</svg>
