<svg width="512" height="512" viewBox="0 0 512 512" fill="none" xmlns="http://www.w3.org/2000/svg">
<g clip-path="url(#clip0_23_36)">
<path d="M256.184 37.9481C254.148 37.9479 252.195 37.1388 250.755 35.699C249.315 34.2591 248.506 32.3064 248.506 30.2701V7.67812C248.538 5.66325 249.362 3.74191 250.798 2.32854C252.234 0.915165 254.169 0.123047 256.184 0.123047C258.199 0.123047 260.133 0.915165 261.57 2.32854C263.006 3.74191 263.829 5.66325 263.862 7.67812V30.2691C263.862 31.2775 263.663 32.276 263.278 33.2077C262.892 34.1393 262.326 34.9859 261.613 35.6989C260.9 36.412 260.054 36.9777 259.122 37.3636C258.191 37.7495 257.192 37.9481 256.184 37.9481Z" fill="#97D729"/>
<path d="M236.084 205.125H276.265V400.399H236.084V205.125Z" fill="#678D98"/>
<path d="M255.777 205.125H276.264V400.399H255.777V205.125Z" fill="#537983"/>
<path d="M324.662 484.643V497.849C324.662 503.736 321.058 508.793 315.929 510.912C314.21 511.629 312.366 511.998 310.503 511.997H165.091C157.28 511.997 150.943 505.66 150.943 497.849V484.643C150.943 476.821 157.28 470.485 165.091 470.485L236.083 459.009L310.504 470.485C318.325 470.485 324.662 476.822 324.662 484.643Z" fill="#FEE45A"/>
<path d="M324.664 484.643V497.849C324.664 503.736 321.06 508.793 315.931 510.912C290.143 506.858 268.04 491.696 254.67 470.484L271.953 464.539L310.505 470.484C318.327 470.485 324.664 476.822 324.664 484.643Z" fill="#FCD829"/>
<path d="M256.185 30.2744L147.914 257.914C137.769 259.828 130.019 257.576 129.005 257.269C128.933 257.238 128.892 257.228 128.892 257.228C102.745 246.929 53.9131 230.375 14.8361 232.535C5.94006 233.016 -0.591943 224.325 2.28506 215.899C19.5561 165.327 81.4831 32.6084 256.185 30.2744ZM497.165 232.515C458.058 230.478 409.307 247.042 383.294 257.3C376.435 259.849 369.903 259.706 364.508 258.6V258.59L256.185 30.2744C426.823 30.2744 491.278 164.528 509.644 215.695C512.685 224.161 506.143 232.976 497.165 232.515Z" fill="#A2E62E"/>
<path d="M509.648 215.698C491.594 165.403 429.012 34.8465 264.84 30.3945C398.677 53.9125 452.194 169.826 468.66 215.697C470.756 221.537 468.29 229.984 463.609 234.506C475.074 232.792 486.48 231.957 497.167 232.512C506.146 232.979 512.685 224.16 509.648 215.698Z" fill="#97D729"/>
<path d="M364.508 258.59C363.529 258.399 362.559 258.163 361.601 257.884C356.196 256.348 352.336 254.035 351.097 253.246C350.956 253.153 350.816 253.057 350.677 252.959C320.896 232.279 280.704 227.959 256.185 227.959C232.321 227.959 193.634 232.054 164.13 251.311C163.854 251.495 163.567 251.68 163.291 251.854C159.104 254.475 154.968 256.154 151.098 257.188C150.013 257.475 148.948 257.72 147.914 257.915C150.545 224.623 166.782 83.9094 256.185 30.2754C346.203 84.2874 362.051 226.578 364.508 258.59Z" fill="#4FC123"/>
<path d="M295.035 443.132V456.338C295.035 464.149 288.698 470.486 280.877 470.486H135.464C127.653 470.486 121.316 464.149 121.316 456.338V443.132C121.316 435.311 127.653 428.974 135.464 428.974H165.091L220.476 416.351L280.876 428.974C288.698 428.973 295.035 435.31 295.035 443.132Z" fill="#FCA85F"/>
<path d="M295.037 443.131V456.337C295.037 464.148 288.7 470.485 280.879 470.485H254.671C246.784 457.991 242.162 443.717 241.229 428.972L253.288 423.206L280.878 428.972C288.7 428.972 295.037 435.309 295.037 443.131Z" fill="#FC9638"/>
<path d="M259.87 408.221L241.227 428.972H165.091C157.28 428.972 150.943 422.645 150.943 414.824V401.618C150.943 393.807 157.28 387.47 165.091 387.47H248.537L259.87 408.221Z" fill="#FEE45A"/>
<path d="M324.664 401.618V414.824C324.664 422.645 318.327 428.972 310.506 428.972H241.229C241.106 427.053 241.044 425.131 241.045 423.208C241.045 410.493 243.717 398.403 248.539 387.469H310.506C318.327 387.469 324.664 393.806 324.664 401.618Z" fill="#FCD829"/>
<path d="M118.626 340.5H112.538V334.412C112.506 332.398 111.682 330.476 110.246 329.063C108.81 327.65 106.875 326.857 104.86 326.857C102.845 326.857 100.911 327.65 99.4743 329.063C98.0379 330.476 97.2147 332.398 97.1821 334.412V340.5H91.0941C89.0793 340.533 87.1579 341.356 85.7446 342.793C84.3312 344.229 83.5391 346.163 83.5391 348.178C83.5391 350.194 84.3312 352.128 85.7446 353.564C87.1579 355.001 89.0793 355.824 91.0941 355.856H97.1821V361.945C97.2147 363.96 98.0379 365.882 99.4743 367.295C100.911 368.708 102.845 369.501 104.86 369.501C106.875 369.501 108.81 368.708 110.246 367.295C111.682 365.882 112.506 363.96 112.538 361.945V355.856H118.626C120.641 355.824 122.562 355.001 123.976 353.564C125.389 352.128 126.181 350.194 126.181 348.178C126.181 346.163 125.389 344.229 123.976 342.793C122.562 341.356 120.641 340.533 118.626 340.5Z" fill="#FEE45A"/>
<path d="M360.747 512C409.787 512 449.541 472.246 449.541 423.206C449.541 374.167 409.787 334.412 360.747 334.412C311.708 334.412 271.953 374.167 271.953 423.206C271.953 472.246 311.708 512 360.747 512Z" fill="#FEE45A"/>
<path d="M360.748 334.412C355.476 334.412 350.312 334.874 345.293 335.755C386.965 343.069 418.632 379.438 418.632 423.206C418.632 466.974 386.964 503.343 345.293 510.657C350.396 511.552 355.567 512.001 360.748 512C409.788 512 449.542 472.245 449.542 423.206C449.542 374.167 409.788 334.412 360.748 334.412Z" fill="#FCD829"/>
<path d="M369.884 415.258C364.038 413.192 357.583 410.704 354.03 407.918C353.208 407.273 352.864 405.596 353.195 403.84C353.371 402.908 354.186 399.793 357.306 398.853C363.759 396.91 367.86 400.168 368.307 400.545L370.206 402.148C371.697 403.406 373.615 404.041 375.562 403.919C377.509 403.797 379.333 402.929 380.655 401.495C383.723 398.169 383.222 392.885 379.551 390.24C375.656 387.433 371.871 385.347 368.017 384.146V381.964C367.985 379.949 367.162 378.028 365.725 376.615C364.289 375.201 362.355 374.409 360.339 374.409C358.324 374.409 356.39 375.201 354.954 376.615C353.517 378.028 352.694 379.949 352.661 381.964V384.224C345.187 386.566 339.617 392.969 338.105 400.998C336.693 408.493 339.164 415.774 344.554 420.002C349.84 424.147 357.392 427.131 364.766 429.738C370.388 431.725 370.555 436.022 370.154 438.407C369.48 442.419 366.104 446.753 360.287 446.792C354.123 446.844 352.369 446.556 347.726 443.518C346.808 442.917 345.771 442.52 344.686 442.354C343.601 442.187 342.493 442.256 341.437 442.554C340.38 442.852 339.4 443.373 338.562 444.082C337.724 444.791 337.048 445.671 336.578 446.663C334.894 450.18 336.253 454.38 339.524 456.502C344.494 459.726 348.272 461.169 352.66 461.768V463.765C352.693 465.78 353.516 467.701 354.953 469.115C356.389 470.528 358.323 471.32 360.338 471.32C362.354 471.32 364.288 470.528 365.724 469.115C367.161 467.701 367.984 465.78 368.016 463.765V460.964C377.692 457.906 383.881 449.374 385.296 440.952C387.218 429.521 381.024 419.196 369.884 415.258Z" fill="#FCA85F"/>
</g>
<defs>
<clipPath id="clip0_23_36">
<rect width="512" height="512" fill="white"/>
</clipPath>
</defs>
</svg>
