<svg width="512" height="512" viewBox="0 0 512 512" fill="none" xmlns="http://www.w3.org/2000/svg">
<g clip-path="url(#clip0_43_2)">
<path d="M505.549 58.0295C501.599 32.3995 479.719 10.5195 454.089 6.5695C438.649 4.2295 417.539 1.9695 388.729 0.7295C359.919 -0.4905 338.899 -0.0205002 323.569 1.0495C298.119 2.8295 277.999 23.7795 275.779 50.3195C274.479 66.2695 273.559 88.1595 273.649 118.109C273.739 148.069 274.779 169.959 276.219 185.919C278.589 212.479 299.649 233.529 326.199 235.899C342.149 237.329 364.049 238.389 394.009 238.469C423.959 238.549 445.859 237.639 461.799 236.339C488.329 234.119 509.279 213.99 511.069 188.549C512.139 173.219 512.619 152.199 511.389 123.389C510.149 94.5795 507.889 73.4795 505.549 58.0295ZM236.009 326.09C233.639 299.53 212.589 278.479 186.029 276.109C170.069 274.679 148.179 273.62 118.219 273.54C88.2592 273.46 66.3692 274.37 50.4292 275.67C23.8992 277.89 2.93922 298.02 1.15922 323.46C0.0892218 338.79 -0.390778 359.81 0.839222 388.62C2.07922 417.43 4.34922 438.53 6.67922 453.98C10.6392 479.61 32.5092 501.49 58.1392 505.44C73.5892 507.78 94.6892 510.04 123.499 511.28C152.309 512.5 173.329 512.03 188.659 510.96C214.099 509.18 234.229 488.23 236.449 461.69C237.749 445.74 238.669 423.85 238.579 393.9C238.499 363.94 237.439 342.05 236.009 326.09ZM511.069 323.46C509.289 298.02 488.339 277.89 461.799 275.67C445.849 274.37 423.959 273.45 394.009 273.54C364.049 273.62 342.159 274.669 326.199 276.109C299.639 278.489 278.589 299.54 276.219 326.09C274.789 342.05 273.729 363.94 273.649 393.9C273.569 423.85 274.489 445.75 275.779 461.69C277.999 488.23 298.129 509.18 323.569 510.96C338.899 512.03 359.919 512.51 388.729 511.28C417.539 510.04 438.649 507.77 454.089 505.44C479.719 501.49 501.599 479.61 505.549 453.98C507.879 438.54 510.149 417.43 511.389 388.62C512.609 359.81 512.139 338.79 511.069 323.46Z" fill="#FAAB48"/>
<path d="M50.4287 236.33C66.3787 237.63 88.2687 238.55 118.219 238.46C148.179 238.38 170.069 237.32 186.029 235.89C212.579 233.51 233.629 212.46 236.009 185.91C237.439 169.95 238.499 148.06 238.579 118.1C238.659 88.1396 237.739 66.2496 236.449 50.3096C234.229 23.7696 214.099 2.81963 188.659 1.03963C173.339 -0.0203717 152.309 -0.500372 123.499 0.719628C94.6987 1.95963 73.5787 4.22963 58.1387 6.55963C32.5087 10.5196 10.6387 32.3996 6.68867 58.0296C4.35867 73.4696 2.07867 94.5796 0.848672 123.38C0.428672 133.19 0.218672 142.07 0.148672 150.16V161.04C0.248672 171.8 0.638672 180.88 1.16867 188.53C2.94867 213.97 23.8987 234.1 50.4387 236.32L50.4287 236.33ZM323.579 1.04963C298.129 2.82963 278.009 23.7796 275.789 50.3196C274.489 66.2696 273.569 88.1596 273.659 118.11C273.749 148.07 274.789 169.96 276.229 185.92C278.599 212.48 299.659 233.53 326.209 235.9C338.309 236.99 353.829 237.85 373.679 238.25C389.749 203.19 398.709 164.21 398.709 123.12C398.709 78.9396 388.339 37.1896 369.919 0.139628C350.489 -0.240372 335.339 0.229628 323.569 1.04963H323.579ZM186.029 276.11C170.069 274.68 148.179 273.62 118.219 273.54C88.2587 273.46 66.3687 274.37 50.4287 275.67C23.8987 277.89 2.93867 298.02 1.15867 323.46C0.628672 331.12 0.238672 340.21 0.138672 350.98V361.81C0.168672 364.94 0.208672 368.19 0.288672 371.56C37.0387 389.61 78.3587 399.75 122.059 399.75C165.759 399.75 202.999 390.57 238.359 374.17C237.969 354.02 237.099 338.3 235.999 326.08C233.629 299.52 212.579 278.48 186.019 276.1L186.029 276.11ZM353.719 274.36C343.009 274.81 333.909 275.41 326.199 276.1C299.639 278.48 278.589 299.53 276.219 326.08C275.519 333.88 274.909 343.12 274.459 354.01C306.022 333.128 332.992 306.025 353.719 274.36Z" fill="#F8C358"/>
</g>
<defs>
<clipPath id="clip0_43_2">
<rect width="512" height="512" fill="white"/>
</clipPath>
</defs>
</svg>
