<svg width="512" height="512" viewBox="0 0 512 512" fill="none" xmlns="http://www.w3.org/2000/svg">
<g clip-path="url(#clip0_23_2)">
<path d="M315.38 177.017H113.152C100.031 177.017 89.3926 166.38 89.3926 153.258V63.054C89.3926 28.286 117.678 0 152.447 0H276.086C310.854 0 339.14 28.286 339.14 63.054V153.258C339.139 166.38 328.501 177.017 315.38 177.017ZM136.911 129.499H291.62V63.054C291.62 54.488 284.651 47.518 276.085 47.518H152.447C143.881 47.518 136.912 54.488 136.912 63.054V129.499H136.911Z" fill="#407093"/>
<path d="M317.101 129.499V63.054C317.101 54.488 310.132 47.518 301.566 47.518H276.085C284.651 47.518 291.62 54.488 291.62 63.054V129.499H317.101ZM114.874 153.258V63.054C114.874 28.286 143.159 0 177.927 0H152.446C117.678 0 89.3916 28.286 89.3916 63.054V153.258C89.3916 166.38 100.03 177.017 113.151 177.017H138.632C125.511 177.017 114.874 166.38 114.874 153.258Z" fill="#365E7D"/>
<path d="M428.535 160.383V355.969C428.535 404.371 389.294 443.602 340.902 443.602H87.6289C39.2359 443.602 0.00488281 404.371 0.00488281 355.969V160.383H428.535Z" fill="#9D6B6B"/>
<path d="M428.535 160.801V247.199L419.896 288.246C414.412 314.334 391.404 332.999 364.756 332.999H63.7839C37.1259 332.999 14.1179 314.334 8.63388 288.246L0.00488281 247.247V160.792C0.118883 160.659 0.223883 160.516 0.337883 160.383C9.82288 148.922 24.1639 134.334 40.5579 134.334H387.974C404.368 134.334 418.709 148.922 428.193 160.383C428.307 160.526 428.421 160.659 428.535 160.801Z" fill="#8B5E5E"/>
<path d="M157.353 443.603H87.634C39.241 443.603 0.000976562 404.372 0.000976562 355.97V160.384L69.729 153.256V355.97C69.729 404.372 108.96 443.603 157.353 443.603Z" fill="#8B5E5E"/>
<path d="M356.987 300.504H71.5435C46.2665 300.504 24.4445 282.797 19.2395 258.062L1.07949 171.776C-5.39551 141.011 18.0785 112.083 49.5175 112.083H379.013C410.452 112.083 433.925 141.011 427.451 171.776L409.292 258.061C404.085 282.797 382.264 300.504 356.987 300.504Z" fill="#9D6B6B"/>
<path d="M165.155 262.333H262.912V344.219H165.155V262.333ZM141.258 300.505H71.5386C46.2686 300.505 24.4476 282.8 19.2396 258.062L1.07859 171.778C-5.39341 141.014 18.0806 112.085 49.5186 112.085H119.238C87.7996 112.085 64.3256 141.014 70.7976 171.778L88.9586 258.062C94.1666 282.8 115.987 300.505 141.258 300.505Z" fill="#8B5E5E"/>
<path d="M247.252 245.441H181.277C162.517 245.441 147.311 260.647 147.311 279.417V329.444C147.311 348.204 162.517 363.41 181.277 363.41H247.252C266.012 363.41 281.218 348.204 281.218 329.444V279.417C281.218 260.647 266.013 245.441 247.252 245.441ZM250.531 317.973C250.531 328.132 242.291 336.372 232.132 336.372H196.398C186.239 336.372 177.999 328.132 177.999 317.973V290.878C177.999 280.718 186.239 272.479 196.398 272.479H232.132C242.291 272.479 250.531 280.719 250.531 290.878V317.973Z" fill="#F5DE7D"/>
<path d="M265 317.973V290.878C265 280.718 256.76 272.479 246.601 272.479H232.132C242.291 272.479 250.531 280.719 250.531 290.878V317.973C250.531 328.132 242.291 336.372 232.132 336.372H246.601C256.76 336.372 265 328.132 265 317.973ZM161.781 329.444V279.417C161.781 260.647 176.987 245.441 195.747 245.441H181.278C162.518 245.441 147.312 260.647 147.312 279.417V329.444C147.312 348.204 162.518 363.41 181.278 363.41H195.747C176.986 363.41 161.781 348.204 161.781 329.444Z" fill="#F1CE64"/>
<path d="M412.568 512C467.483 512 512 467.483 512 412.568C512 357.653 467.483 313.136 412.568 313.136C357.653 313.136 313.136 357.653 313.136 412.568C313.136 467.483 357.653 512 412.568 512Z" fill="#F1CE64"/>
<path d="M412.567 486.437C453.364 486.437 486.436 453.365 486.436 412.568C486.436 371.771 453.364 338.699 412.567 338.699C371.771 338.699 338.698 371.771 338.698 412.568C338.698 453.365 371.771 486.437 412.567 486.437Z" fill="#F5DE7D"/>
<path d="M423.224 404.835C415.916 402.252 407.832 399.13 403.279 395.559C401.744 394.355 401.097 391.741 401.632 388.901C401.966 387.132 402.834 385.132 404.346 383.598V387.887C404.346 389.936 405.16 391.901 406.609 393.35C408.058 394.799 410.023 395.613 412.072 395.613C414.121 395.613 416.086 394.799 417.535 393.35C418.984 391.901 419.798 389.936 419.798 387.887V382.017C421.58 382.793 422.682 383.651 422.935 383.862C424.514 385.143 426.534 385.751 428.557 385.553C430.581 385.355 432.445 384.367 433.746 382.803C435.046 381.24 435.677 379.227 435.503 377.201C435.329 375.175 434.364 373.3 432.816 371.981C431.545 370.923 426.88 367.393 419.798 365.883V362.358C419.798 360.309 418.984 358.344 417.535 356.895C416.086 355.446 414.121 354.632 412.072 354.632C410.023 354.632 408.058 355.446 406.609 356.895C405.16 358.344 404.346 360.309 404.346 362.358V366.408C404.032 366.494 403.719 366.575 403.401 366.671C394.701 369.292 388.204 376.713 386.446 386.039C384.83 394.613 387.625 402.92 393.741 407.718C398.829 411.708 405.878 415.094 418.072 419.405C426.446 422.365 426.263 429.151 425.795 431.931C425.212 435.398 423.182 439.034 419.798 441.318V428.503C419.798 426.454 418.984 424.489 417.535 423.04C416.086 421.591 414.121 420.777 412.072 420.777C410.023 420.777 408.058 421.591 406.609 423.04C405.16 424.489 404.346 426.454 404.346 428.503V443.247C401.487 442.744 399.179 441.65 395.657 439.346C394.808 438.79 393.858 438.407 392.861 438.219C391.864 438.031 390.839 438.041 389.846 438.248C388.853 438.456 387.91 438.857 387.072 439.429C386.234 440.001 385.517 440.733 384.962 441.582C384.406 442.431 384.024 443.381 383.835 444.378C383.647 445.375 383.657 446.399 383.865 447.392C384.072 448.386 384.474 449.328 385.045 450.166C385.617 451.004 386.349 451.721 387.198 452.277C393.696 456.528 398.465 458.215 404.346 458.809V462.779C404.346 464.828 405.16 466.793 406.609 468.242C408.058 469.691 410.023 470.505 412.072 470.505C414.121 470.505 416.086 469.691 417.535 468.242C418.984 466.793 419.798 464.828 419.798 462.779V458.064C431.704 454.853 439.334 444.605 441.034 434.493C443.254 421.303 436.096 409.384 423.224 404.835ZM368.445 404.625C367.43 404.625 366.425 404.824 365.488 405.213C364.551 405.601 363.699 406.17 362.981 406.887C362.264 407.605 361.695 408.457 361.307 409.394C360.918 410.331 360.719 411.336 360.719 412.351V412.785C360.719 413.799 360.919 414.804 361.307 415.741C361.695 416.679 362.264 417.531 362.982 418.248C363.699 418.965 364.551 419.534 365.488 419.923C366.425 420.311 367.43 420.511 368.445 420.511C369.459 420.511 370.464 420.311 371.401 419.923C372.339 419.534 373.19 418.965 373.908 418.248C374.625 417.531 375.194 416.679 375.583 415.741C375.971 414.804 376.171 413.799 376.171 412.785V412.351C376.171 410.302 375.357 408.337 373.908 406.888C372.459 405.439 370.494 404.625 368.445 404.625ZM456.691 404.625C455.676 404.625 454.671 404.824 453.734 405.213C452.797 405.601 451.945 406.17 451.227 406.887C450.51 407.605 449.941 408.457 449.553 409.394C449.164 410.331 448.965 411.336 448.965 412.351V412.785C448.965 414.834 449.779 416.799 451.228 418.248C452.677 419.697 454.642 420.511 456.691 420.511C458.74 420.511 460.705 419.697 462.154 418.248C463.603 416.799 464.417 414.834 464.417 412.785V412.351C464.417 411.336 464.217 410.331 463.829 409.394C463.441 408.457 462.872 407.605 462.154 406.887C461.437 406.17 460.585 405.601 459.648 405.213C458.71 404.824 457.705 404.625 456.691 404.625Z" fill="#E9BF51"/>
</g>
<defs>
<clipPath id="clip0_23_2">
<rect width="512" height="512" fill="white"/>
</clipPath>
</defs>
</svg>
