<svg width="512" height="512" viewBox="0 0 512 512" fill="none" xmlns="http://www.w3.org/2000/svg">
<g clip-path="url(#clip0_23_20)">
<path d="M423.068 77.1445V115.887C423.068 117.936 423.882 119.901 425.331 121.35C426.78 122.799 428.745 123.613 430.794 123.613C432.843 123.613 434.809 122.799 436.257 121.35C437.706 119.901 438.52 117.936 438.52 115.887V77.1445H423.068Z" fill="#818181"/>
<path d="M441.114 150.138H420.476C416.311 150.138 413.175 146.347 413.956 142.255L418.623 117.804C418.912 116.287 419.722 114.918 420.912 113.934C422.102 112.949 423.598 112.41 425.143 112.41H436.448C437.992 112.41 439.489 112.949 440.679 113.934C441.869 114.918 442.678 116.287 442.968 117.804L447.635 142.255C448.415 146.347 445.279 150.138 441.114 150.138Z" fill="#FA9801"/>
<path d="M272.207 8.38898L114.45 70.762C109.175 72.848 109.175 80.314 114.45 82.4L201.11 116.664C248.266 135.308 300.749 135.308 347.904 116.664L434.564 82.4C439.839 80.314 439.839 72.848 434.564 70.762L276.808 8.38898C275.331 7.80393 273.685 7.80393 272.207 8.38898Z" fill="#ABABAB"/>
<path d="M274.507 439.695C364.884 439.695 438.149 366.43 438.149 276.053C438.149 185.676 364.884 112.411 274.507 112.411C184.13 112.411 110.865 185.676 110.865 276.053C110.865 366.43 184.13 439.695 274.507 439.695Z" fill="#FBA615"/>
<path d="M346.057 277.143C346.522 219.501 310.853 170 260.216 150.124C197.384 157.176 148.302 210.222 147.78 275.031C147.252 340.541 196.526 394.839 260.228 401.984C310.105 382.394 345.599 334.011 346.057 277.143Z" fill="#FCEE56"/>
<path d="M275.529 149.325C263.802 149.221 252.118 150.743 240.81 153.849C294.847 168.697 334.35 218.383 333.877 277.074C333.41 335.039 294.099 383.601 240.846 398.256C251.482 401.177 262.455 402.697 273.485 402.78C343.475 403.344 400.67 347.064 401.235 277.074C401.799 207.084 345.519 149.889 275.529 149.325Z" fill="#F3D802"/>
<path d="M317.911 83.9796V83.8596C317.874 77.8006 313.268 72.6916 307.278 71.7776C296.323 70.0972 285.254 69.2684 274.171 69.2986C248.356 69.3346 222.766 74.0986 198.451 82.7706L182.786 88.3576C179.29 89.6044 176.265 91.902 174.127 94.9353C171.988 97.9686 170.84 101.589 170.84 105.301V149.263C170.84 150.022 171.141 150.75 171.678 151.287C172.215 151.824 172.944 152.126 173.703 152.126H317.91V83.9796H317.911Z" fill="#818181"/>
<path d="M366.249 88.3591L350.428 82.7191C334.729 77.1231 318.496 73.1451 302.01 71.0381C304.651 72.6398 306.836 74.8951 308.353 77.5865C309.869 80.2779 310.667 83.3147 310.669 86.4041V152.125H375.335C376.094 152.125 376.822 151.823 377.359 151.287C377.896 150.75 378.198 150.021 378.198 149.262V105.303C378.198 97.6971 373.414 90.9131 366.249 88.3591Z" fill="#595959"/>
<path d="M273.363 341.335H273.298C259.584 341.315 251.677 340.344 238.466 331.549C236.791 330.401 235.635 328.639 235.249 326.645C234.863 324.651 235.278 322.585 236.403 320.894C237.529 319.203 239.275 318.024 241.263 317.611C243.252 317.197 245.323 317.584 247.029 318.686C256.97 325.304 261.595 325.866 273.32 325.882H273.36C287.542 325.882 295.857 315.365 297.582 305.584C298.277 301.645 299.342 288.356 283.868 282.745C266.237 276.353 256.126 271.416 248.967 265.707C241.045 259.391 237.509 248.429 239.74 237.101C242.188 224.66 250.912 214.825 262.508 211.433C286.734 204.347 302.596 218.868 303.258 219.49C304.731 220.892 305.592 222.818 305.654 224.85C305.717 226.882 304.975 228.857 303.591 230.347C302.207 231.836 300.292 232.72 298.26 232.807C296.229 232.894 294.245 232.176 292.739 230.81C292.211 230.339 282.292 221.748 266.846 226.265C259.63 228.376 255.945 234.788 254.901 240.085C253.79 245.731 255.208 250.919 258.601 253.625C265.736 259.315 278.041 264.194 289.136 268.218C306.681 274.58 315.97 290.301 312.801 308.268C309.99 324.201 296.45 341.333 273.363 341.335Z" fill="#FBA615"/>
<path d="M151.72 475.984C161.837 479.713 172.536 481.622 183.319 481.621H305.999C320.199 481.62 334.204 478.305 346.898 471.94C346.898 471.94 354.442 467.71 354.484 467.683V467.688L438.302 420.715C448.192 415.173 452.511 400.368 445.554 391.467L441.486 385.661L433.507 381.49L326.212 428.733L324.382 424.046L324.438 416.362L326.325 413.248L326.384 405.199C324.463 385.882 309.59 370.38 290.37 367.66L202.037 357.49C181.66 354.607 171.478 347.778 153.714 337.387C129.462 323.2 101.871 315.723 73.7737 315.723H66.9467L53.3857 333.606V438.6L151.72 475.984Z" fill="#FCD0A3"/>
<path d="M507.469 371.861C499.378 359.97 485.993 357.903 471.265 364.867L433.507 381.492L440.917 391.062C447.664 399.776 445.115 412.447 435.523 417.873L354.226 463.861V463.856C354.185 463.882 346.868 468.023 346.868 468.023C334.571 474.25 320.982 477.497 307.199 477.501H188.209C177.746 477.501 167.367 475.632 157.561 471.982L53.3838 433.615V442.662L66.9448 464.802L157.561 498.531C167.367 502.181 177.746 504.05 188.209 504.05H307.199C323.85 504.05 340.159 499.318 354.225 490.405L503.212 406.126C513.042 397.397 514.864 382.729 507.469 371.861Z" fill="#FFB983"/>
<path d="M326.324 413.251H179.252C177.203 413.251 175.238 414.065 173.789 415.514C172.34 416.963 171.526 418.928 171.526 420.977C171.526 423.026 172.34 424.991 173.789 426.44C175.238 427.889 177.203 428.703 179.252 428.703H326.212L326.324 413.251Z" fill="#FFB983"/>
<path d="M66.945 478.553C66.945 486.93 60.154 493.721 51.777 493.721H15.168C6.791 493.721 0 486.93 0 478.553V302.948C0 294.571 6.791 287.78 15.168 287.78H51.777C60.154 287.78 66.945 294.571 66.945 302.948V478.553Z" fill="#3590BB"/>
</g>
<defs>
<clipPath id="clip0_23_20">
<rect width="512" height="512" fill="white"/>
</clipPath>
</defs>
</svg>
