<svg width="512" height="512" viewBox="0 0 512 512" fill="none" xmlns="http://www.w3.org/2000/svg">
<path d="M491.434 139.355C491.434 215.765 429.492 277.711 353.078 277.711C276.668 277.711 214.723 215.766 214.723 139.355C214.723 62.945 276.668 1 353.078 1C429.492 1 491.434 62.945 491.434 139.355Z" fill="#F0A70A"/>
<path d="M410.31 220.57C389.231 234.941 363.708 240.832 338.442 237.16C282.962 229.098 244.388 177.402 252.45 121.926C256.536 93.824 272.34 68.531 295.817 52.523C316.899 38.153 342.423 32.262 367.689 35.933C394.564 39.84 418.306 53.977 434.548 75.743C450.79 97.508 457.583 124.297 453.677 151.172C449.595 179.27 433.787 204.566 410.31 220.57Z" fill="#FED22B"/>
<path d="M371.23 236.594C360.405 238.564 349.332 238.756 338.445 237.164C282.961 229.098 244.387 177.398 252.453 121.926C256.531 93.8276 272.343 68.5306 295.816 52.5226C316.895 38.1596 342.418 32.2656 367.684 35.9366C368.828 36.1016 369.977 36.2886 371.117 36.4966C357.227 39.0066 343.918 44.4176 332.012 52.5226C308.539 68.5306 292.727 93.8276 288.652 121.926C280.75 176.25 317.586 226.957 371.23 236.594Z" fill="#FDC202"/>
<path d="M380.008 131.484C388.07 126.964 392.641 117.25 392.641 104.41C392.641 89.2464 386.25 80.1844 373.109 76.7384V65.0744C373.109 60.7974 369.633 57.3164 365.355 57.3164C361.078 57.3164 357.598 60.7964 357.598 65.0744V75.0904H347V65.0744C347 60.7974 343.52 57.3164 339.242 57.3164C334.965 57.3164 331.484 60.7964 331.484 65.0744V75.0904L318.297 75.0944C314.02 75.0944 310.539 78.5744 310.539 82.8524C310.539 87.1294 314.019 90.6054 318.297 90.6054H322.25V182.575H318.297C314.02 182.575 310.539 186.055 310.539 190.332C310.539 194.609 314.019 198.086 318.297 198.086L331.484 198.082V207.988C331.484 212.266 334.964 215.742 339.242 215.742C343.52 215.742 347 212.266 347 207.988V198.082H357.598V207.988C357.598 212.266 361.078 215.742 365.355 215.742C369.633 215.742 373.109 212.266 373.109 207.988V196.754C383.566 194.059 395.617 185.902 395.617 162.641C395.617 147.621 392.997 137.563 380.007 131.484H380.008ZM338.215 89.7304H357.363C370.539 89.7304 376.676 95.0274 376.676 106.398C376.676 119.238 371.051 124.718 357.859 124.718H338.215V89.7304ZM379.652 161.812C379.652 176.164 372.879 183.442 359.512 183.442H338.215V138.363H359.512C373.254 138.363 379.652 144.922 379.652 159V161.812Z" fill="#E38803"/>
<path d="M501.382 341.56L323.689 431.653C299.814 446.849 269.443 446.583 245.947 431.45C234.92 424.34 231.455 423.653 173.463 394.978C147.693 382.372 124.217 378.356 85.9473 373.638V262.337H212.85C216.752 262.337 220.616 263.106 224.22 264.6C227.824 266.094 231.099 268.284 233.857 271.044C235.6 272.79 222.279 259.47 290.939 328.114C293.437 330.608 295.4 333.585 296.708 336.863C298.016 340.142 298.641 343.653 298.545 347.181L299.768 346.345L486.021 299.455C510.701 296.333 521.756 328.626 501.381 341.56H501.382Z" fill="#F2BB88"/>
<path d="M291.651 363.791C281.854 373.919 265.741 374.075 255.749 364.106L208.289 316.634C205.756 314.101 202.32 312.678 198.737 312.677H85.9492V262.337H212.855C216.756 262.337 220.619 263.106 224.223 264.599C227.827 266.092 231.101 268.281 233.859 271.04C235.602 272.782 222.281 259.466 290.941 328.11C300.625 337.794 301.316 353.786 291.652 363.79L291.651 363.791Z" fill="#F2D1A5"/>
<path d="M92.3 259.246V396.852C92.3 398.809 92.113 400.73 91.773 402.594H91.762C89.051 417.152 76.207 428.27 60.882 428.27H31.419C14.137 428.27 0 414.133 0 396.852V259.246C0 243.848 11.223 230.953 25.895 228.324C27.7173 227.993 29.5658 227.827 31.418 227.828H60.883C78.164 227.828 92.3 241.965 92.3 259.246Z" fill="#D1CED3"/>
<path d="M91.762 402.598C89.051 417.16 76.207 428.278 60.882 428.278H31.419C14.137 428.277 0 414.14 0 396.858V259.254C0 243.852 11.223 230.957 25.895 228.332C25.125 232.406 25.359 223.109 25.359 371.676C25.359 388.957 39.496 403.094 56.777 403.094C89.141 403.094 88.176 403.258 91.762 402.598Z" fill="#C2BDC5"/>
</svg>
